<svg xmlns="http://www.w3.org/2000/svg" width="65.548" height="45.943" viewBox="0 0 65.548 45.943">
  <g id="Grupo_185" data-name="Grupo 185" transform="translate(-894.638 -494.308)">
    <path id="Caminho_193" data-name="Caminho 193" d="M895.684,510.559a2.7,2.7,0,0,0,0,3.745,2.665,2.665,0,1,0,0-3.745" transform="translate(-0.146 -7.774)" fill="#38643c"/>
    <path id="Caminho_194" data-name="Caminho 194" d="M895.666,536.081a2.627,2.627,0,0,0,.012,3.78,2.7,2.7,0,0,0,3.744,0,2.665,2.665,0,1,0-3.756-3.781" transform="translate(-0.117 -20.629)" fill="#38643c"/>
    <path id="Caminho_195" data-name="Caminho 195" d="M912.981,494.994c-.925-.959-1.371-.891-2.468.069l-.308.274c-1.062.959-1.027,1.372-.171,2.365,3.118,3.427,4.659,7.847,4.659,13.3,0,5.482-1.576,9.9-4.728,13.3-.925,1.062-.857,1.335.206,2.328l.342.31c1.1.993,1.371,1.061,2.434.1q5.91-6.116,5.928-16.037,0-9.714-5.894-16" transform="translate(-7.391 0)" fill="#38643c"/>
    <path id="Caminho_196" data-name="Caminho 196" d="M943.388,527.927v4.112a1.028,1.028,0,0,0,1.028,1.028h3.767c1.989,0,2.982-.822,2.982-2.5,0-1.747-.994-2.638-2.982-2.638Zm1.028-8.567a1.028,1.028,0,0,0-1.028,1.028v3.6h4.453c1.747,0,2.638-.788,2.638-2.365,0-1.508-.891-2.262-2.638-2.262Zm3.425-4.284c5.072,0,7.3,2.3,7.3,6a5.1,5.1,0,0,1-2.674,4.728c2.5,1.234,3.358,2.776,3.358,5.14,0,4.284-2.534,6.408-7.641,6.408h-5.276a4.113,4.113,0,0,1-4.113-4.113V519.189a4.044,4.044,0,0,1,4.113-4.031Z" transform="translate(-22.229 -10.455)" fill="#38643c"/>
    <path id="Caminho_197" data-name="Caminho 197" d="M978.2,527.305c0-1.542.377-1.989,1.988-1.989h.617c1.612,0,1.988.447,1.988,1.989v13.213c0,1.541-.376,1.987-1.988,1.987h-.617c-1.61,0-1.988-.446-1.988-1.987Z" transform="translate(-42.065 -15.61)" fill="#38643c"/>
    <path id="Caminho_198" data-name="Caminho 198" d="M992.027,517.065c0-1.542.377-1.989,1.987-1.989h9.526c3.8,0,5.139,1.268,5.139,4.113a5.575,5.575,0,0,1-2.569,4.9l-9.937,7.607c-.515.377-.79.72-.79.959q0,.411,1.029.411h10.279a1.988,1.988,0,0,1,1.987,1.988v.308c0,1.541-.376,1.988-1.986,1.988H996.482c-2.159,0-3.632-.344-4.386-.994a3.836,3.836,0,0,1-1.131-3.051,5.468,5.468,0,0,1,2.536-4.9l10.074-7.744c.447-.343.651-.617.651-.856,0-.309-.342-.446-.993-.446h-9.218a1.987,1.987,0,0,1-1.987-1.987Z" transform="translate(-48.493 -10.455)" fill="#38643c"/>
    <path id="Caminho_199" data-name="Caminho 199" d="M978.2,516.947c0-1.542.377-1.989,1.988-1.989h.617c1.612,0,1.988.447,1.988,1.989v.116c0,1.541-.376,1.987-1.988,1.987h-.617c-1.61,0-1.988-.446-1.988-1.987Z" transform="translate(-42.065 -10.396)" fill="#38643c"/>
    <path id="Caminho_200" data-name="Caminho 200" d="M894.638,576.166c0-.205.064-.248.248-.205a7.15,7.15,0,0,0,1.64.227c.907,0,1.307-.206,1.307-.734,0-.4-.205-.637-.713-.885l-1.446-.7a1.342,1.342,0,0,1-.95-1.36c0-.842.6-1.263,1.8-1.263a4.1,4.1,0,0,1,1.393.227c.2.075.248.108.248.291v.054q0,.275-.259.194a4.028,4.028,0,0,0-1.4-.226c-.853,0-1.22.194-1.22.712a.936.936,0,0,0,.626.864l1.468.7c.691.335,1.025.648,1.025,1.371,0,.907-.637,1.3-1.943,1.3a5.98,5.98,0,0,1-1.576-.227c-.205-.054-.248-.108-.248-.292Z" transform="translate(0 -38.731)" fill="#38643c"/>
    <path id="Caminho_201" data-name="Caminho 201" d="M904.906,569.6c0-.205.054-.259.259-.259h.054c.205,0,.259.054.259.259v4.771c0,.205-.054.259-.259.259h-.054c-.2,0-.259-.054-.259-.259Zm.68-1.943a.4.4,0,0,1-.388.4.408.408,0,0,1-.41-.4c-.032-.518.853-.518.8,0" transform="translate(-5.109 -36.728)" fill="#38643c"/>
    <path id="Caminho_202" data-name="Caminho 202" d="M909.794,576.371c0,.205-.054.259-.259.259h-.054c-.205,0-.259-.054-.259-.259V573.2a1.731,1.731,0,0,1,1.964-1.954,1.536,1.536,0,0,1,1.673.982,1.574,1.574,0,0,1,1.684-.982,1.71,1.71,0,0,1,1.965,1.954v3.173c0,.205-.054.259-.259.259h-.054c-.205,0-.259-.054-.259-.259V573.2c0-.961-.346-1.414-1.393-1.414s-1.392.453-1.392,1.414v3.173c0,.205-.054.259-.259.259h-.054c-.205,0-.259-.054-.259-.259V573.2c0-.961-.346-1.414-1.392-1.414s-1.392.464-1.392,1.414Z" transform="translate(-7.342 -38.731)" fill="#38643c"/>
    <path id="Caminho_203" data-name="Caminho 203" d="M930.789,573.456c0-1.154-.41-1.672-1.705-1.672s-1.705.518-1.705,1.672v1.058c0,1.155.41,1.672,1.705,1.672s1.705-.518,1.705-1.672Zm-3.982-.01c0-1.425.68-2.2,2.277-2.2,1.63,0,2.288.766,2.288,2.2V574.5a1.943,1.943,0,0,1-2.223,2.224,1.759,1.759,0,0,1-1.77-.864v2.666c0,.205-.054.259-.259.259h-.054c-.205,0-.259-.054-.259-.259Z" transform="translate(-16.194 -38.731)" fill="#38643c"/>
    <path id="Caminho_204" data-name="Caminho 204" d="M938.586,567.134c0-.2.054-.259.259-.259h.054c.205,0,.259.054.259.259v5.948c0,.572.195.853.583.853h.13c.205,0,.248.032.248.216v.044c0,.183-.043.237-.248.27a.792.792,0,0,1-.173.01c-.658,0-1.112-.388-1.112-1.327Z" transform="translate(-22.124 -36.532)" fill="#38643c"/>
    <path id="Caminho_205" data-name="Caminho 205" d="M943.679,573.705H946.9v-.432c0-1-.54-1.511-1.608-1.511s-1.609.508-1.609,1.511Zm3.735.248c-.032.205-.075.259-.281.259h-3.454v.378c0,1.166.518,1.6,1.781,1.6a4.81,4.81,0,0,0,1.565-.237c.173-.054.237-.01.237.194v.065c0,.184-.032.205-.237.281a4.523,4.523,0,0,1-1.554.237c-1.608,0-2.364-.648-2.364-2.212v-1.058a1.946,1.946,0,0,1,2.191-2.212,1.9,1.9,0,0,1,2.148,2.083,5.688,5.688,0,0,1-.032.626" transform="translate(-24.4 -38.731)" fill="#38643c"/>
    <path id="Caminho_206" data-name="Caminho 206" d="M954.127,576.166c0-.205.065-.248.249-.205a7.148,7.148,0,0,0,1.64.227c.907,0,1.306-.206,1.306-.734,0-.4-.205-.637-.713-.885l-1.446-.7a1.342,1.342,0,0,1-.95-1.36c0-.842.6-1.263,1.8-1.263a4.1,4.1,0,0,1,1.392.227c.205.075.248.108.248.291v.054q0,.275-.259.194a4.029,4.029,0,0,0-1.4-.226c-.853,0-1.22.194-1.22.712a.937.937,0,0,0,.626.864l1.468.7c.691.335,1.025.648,1.025,1.371,0,.907-.637,1.3-1.943,1.3a5.976,5.976,0,0,1-1.576-.227c-.205-.054-.249-.108-.249-.292Z" transform="translate(-29.948 -38.731)" fill="#38643c"/>
    <path id="Caminho_207" data-name="Caminho 207" d="M964.784,576.371c0,.205-.054.259-.259.259h-.054c-.2,0-.259-.054-.259-.259V573.2c0-1.306.723-1.954,2.17-1.954,1.554,0,2.169.7,2.169,1.954v3.173c0,.205-.054.259-.259.259h-.054c-.206,0-.259-.054-.259-.259V573.2c0-.95-.388-1.414-1.6-1.414s-1.6.464-1.6,1.414Z" transform="translate(-35.025 -38.731)" fill="#38643c"/>
    <path id="Caminho_208" data-name="Caminho 208" d="M979.455,573.456c0-1.154-.41-1.672-1.705-1.672s-1.705.518-1.705,1.672v1.058c0,1.155.421,1.673,1.705,1.673s1.705-.518,1.705-1.673Zm-3.983,1.058v-1.058c0-1.425.669-2.212,2.277-2.212,1.64,0,2.288.777,2.288,2.212v1.058c0,1.424-.658,2.212-2.288,2.212s-2.277-.777-2.277-2.212" transform="translate(-40.694 -38.731)" fill="#38643c"/>
    <path id="Caminho_209" data-name="Caminho 209" d="M987.252,567.134c0-.2.054-.259.259-.259h.054c.205,0,.259.054.259.259v5.948c0,.572.195.853.583.853h.129c.2,0,.248.032.248.216v.044c0,.183-.043.237-.248.27a.794.794,0,0,1-.173.01c-.659,0-1.112-.388-1.112-1.327Z" transform="translate(-46.624 -36.532)" fill="#38643c"/>
    <path id="Caminho_210" data-name="Caminho 210" d="M995.756,573.456c0-1.154-.41-1.672-1.705-1.672s-1.705.518-1.705,1.672v1.058c0,1.155.421,1.673,1.705,1.673s1.705-.518,1.705-1.673Zm-3.983,1.058v-1.058c0-1.425.669-2.212,2.277-2.212,1.641,0,2.288.777,2.288,2.212v1.058c0,1.424-.659,2.212-2.288,2.212s-2.277-.777-2.277-2.212" transform="translate(-48.9 -38.731)" fill="#38643c"/>
    <path id="Caminho_211" data-name="Caminho 211" d="M1006.8,572.66c0-.874-.529-1.306-1.587-1.306s-1.6.432-1.6,1.306v.151c0,.874.378,1.317,1.6,1.317s1.587-.442,1.587-1.317Zm-2.72,3.324a1.051,1.051,0,0,0-.582,1.025c0,.82.431,1.047,1.716,1.047,1.22,0,1.705-.227,1.705-1.09a.751.751,0,0,0-.377-.756,3.442,3.442,0,0,0-1.328-.173c-.421,0-.8-.022-1.133-.054m3.292-3.173c0,1.219-.722,1.835-2.159,1.835a6.037,6.037,0,0,0-1.263.086.358.358,0,0,0-.291.367.343.343,0,0,0,.3.345,6.123,6.123,0,0,0,1.252.076,3.6,3.6,0,0,1,1.77.313,1.189,1.189,0,0,1,.507,1.1c0,1.2-.6,1.641-2.277,1.641-1.716,0-2.288-.486-2.288-1.522a1.318,1.318,0,0,1,.637-1.209.7.7,0,0,1-.475-.691c0-.431.323-.723.885-.777a1.47,1.47,0,0,1-.939-1.565v-.151c0-1.165.8-1.824,2.18-1.824a2.642,2.642,0,0,1,1.165.238l.626-.572a.216.216,0,0,1,.324.011l.043.043a.192.192,0,0,1,0,.3l-.539.518a1.544,1.544,0,0,1,.539,1.285Z" transform="translate(-54.513 -38.323)" fill="#38643c"/>
    <path id="Caminho_212" data-name="Caminho 212" d="M1014.452,569.6c0-.205.054-.259.259-.259h.054c.2,0,.259.054.259.259v4.771c0,.205-.054.259-.259.259h-.054c-.205,0-.259-.054-.259-.259Zm.68-1.943a.4.4,0,0,1-.389.4.408.408,0,0,1-.41-.4c-.032-.518.853-.518.8,0" transform="translate(-60.257 -36.728)" fill="#38643c"/>
    <path id="Caminho_213" data-name="Caminho 213" d="M1021.863,574.083h-1.327c-1.155,0-1.652.281-1.652,1.069,0,.7.442,1.058,1.327,1.058,1.155,0,1.652-.259,1.652-1.2Zm.572.95c0,1.22-.68,1.694-2.224,1.694-1.079,0-1.9-.486-1.9-1.576s.7-1.543,2.2-1.543h1.349v-.745c0-.81-.529-1.1-1.522-1.1a4.957,4.957,0,0,0-1.3.151c-.183.054-.237.011-.237-.194v-.075c0-.184.054-.238.237-.281a5.838,5.838,0,0,1,1.263-.119c1.414,0,2.126.54,2.126,1.619Z" transform="translate(-62.26 -38.731)" fill="#38643c"/>
  </g>
</svg>
