<svg id="biz-rodape" xmlns="http://www.w3.org/2000/svg" width="160.855" height="22.224" viewBox="0 0 160.855 22.224">
  <g id="Grupo_108" data-name="Grupo 108">
    <path id="Caminho_65" data-name="Caminho 65" d="M234.239,6.264a1.507,1.507,0,0,0,0,2.091,1.488,1.488,0,1,0,0-2.091" transform="translate(-233.801 -1.532)" fill="#575756"/>
    <path id="Caminho_66" data-name="Caminho 66" d="M234.242,15.286a1.467,1.467,0,0,0,.007,2.111,1.507,1.507,0,0,0,2.09,0,1.488,1.488,0,1,0-2.1-2.111" transform="translate(-233.797 -3.482)" fill="#575756"/>
    <path id="Caminho_67" data-name="Caminho 67" d="M240.95.736c-.517-.535-.765-.5-1.378.038L239.4.927c-.593.535-.573.765-.095,1.32a10.586,10.586,0,0,1,2.6,7.422,10.465,10.465,0,0,1-2.64,7.424c-.517.593-.478.745.115,1.3l.19.172c.612.554.765.593,1.359.057a12.35,12.35,0,0,0,3.309-8.953A12.507,12.507,0,0,0,240.95.736" transform="translate(-234.9 -0.353)" fill="#575756"/>
    <path id="Caminho_68" data-name="Caminho 68" d="M251.893,14.87v2.3a.574.574,0,0,0,.574.574h2.1c1.11,0,1.665-.459,1.665-1.4,0-.975-.555-1.472-1.665-1.472Zm.574-4.782a.573.573,0,0,0-.574.573V12.67h2.486c.975,0,1.473-.44,1.473-1.32,0-.842-.5-1.262-1.473-1.262ZM254.38,7.7c2.832,0,4.075,1.282,4.075,3.348a2.846,2.846,0,0,1-1.493,2.641,2.863,2.863,0,0,1,1.875,2.869c0,2.392-1.414,3.578-4.266,3.578h-2.946a2.3,2.3,0,0,1-2.3-2.3V9.992a2.258,2.258,0,0,1,2.3-2.251Z" transform="translate(-237.152 -1.939)" fill="#575756"/>
    <path id="Caminho_69" data-name="Caminho 69" d="M263.262,12.427c0-.861.211-1.11,1.11-1.11h.344c.9,0,1.11.249,1.11,1.11V19.8c0,.86-.211,1.109-1.11,1.109h-.344c-.9,0-1.11-.249-1.11-1.109Z" transform="translate(-240.161 -2.721)" fill="#575756"/>
    <path id="Caminho_70" data-name="Caminho 70" d="M268.369,8.806c0-.861.211-1.11,1.109-1.11H274.8c2.123,0,2.869.707,2.869,2.3a3.112,3.112,0,0,1-1.434,2.736l-5.548,4.247c-.288.21-.441.4-.441.535,0,.153.192.23.575.23h5.738a1.109,1.109,0,0,1,1.109,1.109v.172c0,.86-.21,1.109-1.109,1.109h-5.7a3.932,3.932,0,0,1-2.449-.554,2.144,2.144,0,0,1-.631-1.7,3.052,3.052,0,0,1,1.416-2.735l5.624-4.323c.249-.191.364-.345.364-.478,0-.172-.19-.249-.555-.249h-5.146a1.109,1.109,0,0,1-1.109-1.109Z" transform="translate(-241.136 -1.939)" fill="#575756"/>
    <path id="Caminho_71" data-name="Caminho 71" d="M263.262,8.765c0-.861.211-1.11,1.11-1.11h.344c.9,0,1.11.249,1.11,1.11v.064c0,.861-.211,1.11-1.11,1.11h-.344c-.9,0-1.11-.249-1.11-1.11Z" transform="translate(-240.161 -1.93)" fill="#575756"/>
    <g id="Grupo_80" data-name="Grupo 80" transform="translate(44.415 8.166)">
      <path id="Caminho_72" data-name="Caminho 72" d="M290.448,19.607c0-.368.117-.446.448-.368a13,13,0,0,0,2.965.408c1.638,0,2.36-.368,2.36-1.319,0-.717-.371-1.143-1.287-1.589l-2.614-1.26a2.41,2.41,0,0,1-1.716-2.442c0-1.512,1.092-2.268,3.258-2.268a7.444,7.444,0,0,1,2.516.407c.371.136.448.194.448.524v.1q0,.494-.468.349a7.32,7.32,0,0,0-2.535-.407c-1.541,0-2.2.349-2.2,1.279a1.682,1.682,0,0,0,1.131,1.551l2.652,1.26c1.248.6,1.853,1.163,1.853,2.462,0,1.628-1.151,2.326-3.512,2.326a10.864,10.864,0,0,1-2.848-.407c-.37-.1-.448-.194-.448-.524Z" transform="translate(-290.448 -10.768)" fill="#575756"/>
    </g>
    <g id="Grupo_81" data-name="Grupo 81" transform="translate(44.2 7.951)">
      <path id="Caminho_73" data-name="Caminho 73" d="M293.685,20.771a11.113,11.113,0,0,1-2.9-.414c-.459-.122-.607-.3-.607-.731v-.078a.633.633,0,0,1,.181-.519.614.614,0,0,1,.531-.058,12.813,12.813,0,0,0,2.917.4c1.78,0,2.145-.441,2.145-1.1,0-.612-.306-.978-1.167-1.4l-2.613-1.259a2.611,2.611,0,0,1-1.838-2.636c0-1.648,1.168-2.483,3.472-2.483a7.687,7.687,0,0,1,2.588.419c.412.151.591.264.591.726v.1a.522.522,0,0,1-.747.554,7.066,7.066,0,0,0-2.471-.4c-1.657,0-1.989.407-1.989,1.065a1.471,1.471,0,0,0,1.01,1.357l2.651,1.26c1.281.616,1.976,1.222,1.976,2.655C297.411,20.507,295.284,20.771,293.685,20.771Zm-3.068-1.4a1.267,1.267,0,0,0-.013.178v.078c0,.217,0,.241.289.316a10.677,10.677,0,0,0,2.793.4c2.28,0,3.3-.651,3.3-2.111,0-1.221-.559-1.7-1.732-2.268L292.6,14.7a1.881,1.881,0,0,1-1.254-1.744c0-1.317,1.222-1.494,2.419-1.494a7.476,7.476,0,0,1,2.609.42.253.253,0,0,0,.149.015s.031-.031.031-.162v-.1c0-.209,0-.209-.307-.322a7.263,7.263,0,0,0-2.442-.394c-2.048,0-3.043.672-3.043,2.053,0,1.122.387,1.668,1.594,2.249l2.615,1.26c.846.412,1.409.872,1.409,1.783,0,1.352-1.3,1.534-2.575,1.534a13.218,13.218,0,0,1-3.015-.415A.424.424,0,0,0,290.617,19.369Z" transform="translate(-290.174 -10.494)" fill="#575756"/>
    </g>
    <g id="Grupo_82" data-name="Grupo 82" transform="translate(53.341 4.667)">
      <path id="Caminho_74" data-name="Caminho 74" d="M302.066,10.477c0-.367.105-.463.5-.463h.1c.4,0,.5.1.5.463v8.538c0,.367-.1.463-.5.463h-.1c-.4,0-.5-.1-.5-.463ZM303.385,7a.739.739,0,0,1-.753.715.764.764,0,0,1-.8-.715c-.063-.927,1.653-.927,1.549,0" transform="translate(-301.834 -6.305)" fill="#575756"/>
    </g>
    <g id="Grupo_83" data-name="Grupo 83" transform="translate(53.126 4.45)">
      <path id="Caminho_75" data-name="Caminho 75" d="M302.614,19.634h-.1c-.517,0-.717-.191-.717-.678V10.418c0-.488.2-.678.717-.678h.1c.516,0,.717.19.717.678v8.538C303.331,19.443,303.129,19.634,302.614,19.634Zm-.1-9.464c-.288,0-.288.009-.288.249v8.538c0,.239,0,.248.288.248h.1c.288,0,.288-.009.288-.248V10.418c0-.239,0-.249-.288-.249Zm.063-2.3a.974.974,0,0,1-1.011-.93.8.8,0,0,1,.411-.757,1.206,1.206,0,0,1,1.211.017.777.777,0,0,1,.358.752A.952.952,0,0,1,302.572,7.871Zm-.006-1.41a.758.758,0,0,0-.376.093.377.377,0,0,0-.2.372.555.555,0,0,0,.582.515.528.528,0,0,0,.539-.5V6.917a.344.344,0,0,0-.163-.356A.714.714,0,0,0,302.566,6.461Z" transform="translate(-301.559 -6.029)" fill="#575756"/>
    </g>
    <g id="Grupo_84" data-name="Grupo 84" transform="translate(57.243 8.166)">
      <path id="Caminho_76" data-name="Caminho 76" d="M307.835,19.978c0,.368-.1.466-.463.466h-.1c-.367,0-.463-.1-.463-.466v-5.7c0-2.346,1.178-3.509,3.516-3.509,1.6,0,2.608.582,2.994,1.764.425-1.182,1.429-1.764,3.014-1.764,2.531,0,3.516,1.261,3.516,3.509v5.7c0,.368-.1.466-.464.466h-.1c-.367,0-.463-.1-.463-.466v-5.7c0-1.726-.619-2.539-2.492-2.539s-2.492.814-2.492,2.539v5.7c0,.368-.1.466-.463.466h-.1c-.367,0-.464-.1-.464-.466v-5.7c0-1.726-.618-2.539-2.492-2.539-1.855,0-2.492.833-2.492,2.539Z" transform="translate(-306.811 -10.768)" fill="#575756"/>
    </g>
    <g id="Grupo_85" data-name="Grupo 85" transform="translate(57.028 7.951)">
      <path id="Caminho_77" data-name="Caminho 77" d="M319.328,20.6h-.1c-.488,0-.678-.191-.678-.681v-5.7c0-1.7-.618-2.325-2.278-2.325S314,12.523,314,14.218v5.7c0,.49-.19.681-.677.681h-.1c-.488,0-.679-.191-.679-.681v-5.7c0-1.7-.617-2.325-2.277-2.325-1.639,0-2.278.652-2.278,2.325v5.7c0,.49-.19.681-.677.681h-.1c-.488,0-.678-.191-.678-.681v-5.7c0-2.471,1.255-3.724,3.731-3.724a3.089,3.089,0,0,1,3,1.444,3.149,3.149,0,0,1,3.007-1.444c2.51,0,3.731,1.218,3.731,3.724v5.7C320.007,20.408,319.816,20.6,319.328,20.6Zm-3.052-9.136c1.9,0,2.706.824,2.706,2.755v5.7c0,.251,0,.251.249.251h.1c.249,0,.249,0,.249-.251v-5.7c0-2.279-1.018-3.3-3.3-3.3-1.5,0-2.419.531-2.812,1.622l-.212.59-.194-.6c-.355-1.087-1.268-1.616-2.789-1.616-2.222,0-3.3,1.078-3.3,3.3v5.7c0,.251,0,.251.249.251h.1c.249,0,.249,0,.249-.251v-5.7c0-1.905.834-2.755,2.707-2.755,1.9,0,2.706.824,2.706,2.755v5.7c0,.251,0,.251.249.251h.1c.249,0,.249,0,.249-.251v-5.7C313.569,12.287,314.378,11.463,316.276,11.463Z" transform="translate(-306.537 -10.494)" fill="#575756"/>
    </g>
    <g id="Grupo_86" data-name="Grupo 86" transform="translate(72.711 8.166)">
      <path id="Caminho_78" data-name="Caminho 78" d="M333.712,14.727c0-2.067-.738-2.993-3.071-2.993s-3.071.927-3.071,2.993V16.62c0,2.066.739,2.993,3.071,2.993s3.071-.927,3.071-2.993Zm-7.172-.02c0-2.55,1.225-3.94,4.1-3.94,2.935,0,4.121,1.371,4.121,3.94V16.6c0,2.568-1.147,3.978-4,3.978-1.633,0-2.7-.521-3.188-1.544V23.8c0,.367-.1.463-.466.463h-.1c-.369,0-.466-.1-.466-.463Z" transform="translate(-326.54 -10.768)" fill="#575756"/>
    </g>
    <g id="Grupo_87" data-name="Grupo 87" transform="translate(72.496 7.951)">
      <path id="Caminho_79" data-name="Caminho 79" d="M327.045,24.423h-.1c-.49,0-.681-.191-.681-.678v-9.1c0-2.795,1.412-4.154,4.316-4.154s4.336,1.359,4.336,4.154V16.54c0,2.822-1.381,4.194-4.219,4.194a3.8,3.8,0,0,1-2.973-1.046v4.056C327.726,24.232,327.535,24.423,327.045,24.423Zm3.537-13.5c-2.651,0-3.886,1.184-3.886,3.725v9.1c0,.248,0,.248.252.248h.1c.252,0,.252,0,.252-.248V18.021l.408.862c.448.943,1.455,1.421,2.994,1.421,2.62,0,3.789-1.16,3.789-3.763V14.648C334.488,12.072,333.283,10.923,330.582,10.923Zm0,8.846c-2.334,0-3.286-.93-3.286-3.208V14.668c0-2.279.952-3.208,3.286-3.208s3.286.929,3.286,3.208v1.893C333.868,18.839,332.915,19.769,330.582,19.769Zm0-7.88c-2.109,0-2.856.728-2.856,2.779v1.893c0,2.051.747,2.778,2.856,2.778s2.856-.727,2.856-2.778V14.668C333.438,12.616,332.69,11.889,330.582,11.889Z" transform="translate(-326.266 -10.494)" fill="#575756"/>
    </g>
    <g id="Grupo_88" data-name="Grupo 88" transform="translate(83.073 4.323)">
      <path id="Caminho_80" data-name="Caminho 80" d="M339.757,6.329c0-.367.1-.463.481-.463h.1c.382,0,.482.1.482.463v10.64c0,1.024.361,1.526,1.083,1.526h.241c.381,0,.461.058.461.387v.077c0,.328-.08.425-.461.483a1.468,1.468,0,0,1-.321.02c-1.224,0-2.067-.7-2.067-2.376Z" transform="translate(-339.757 -5.866)" fill="#575756"/>
    </g>
    <g id="Grupo_89" data-name="Grupo 89" transform="translate(82.858 4.108)">
      <path id="Caminho_81" data-name="Caminho 81" d="M341.764,19.616c-1.471,0-2.281-.92-2.281-2.59V6.27c0-.488.2-.678.7-.678h.1c.5,0,.7.19.7.678V16.91c0,1.175.5,1.311.868,1.311h.241c.438,0,.676.1.676.6V18.9c0,.441-.169.623-.644.7A1.578,1.578,0,0,1,341.764,19.616ZM340.179,6.022c-.267,0-.267,0-.267.249V17.026c0,1.433.623,2.16,1.852,2.16a1.419,1.419,0,0,0,.271-.013c.3-.045.3-.054.3-.274v-.077a.452.452,0,0,0-.015-.158,1.274,1.274,0,0,0-.231-.013h-.241c-.593,0-1.3-.3-1.3-1.74V6.27c0-.244,0-.249-.267-.249Z" transform="translate(-339.483 -5.592)" fill="#575756"/>
    </g>
    <g id="Grupo_90" data-name="Grupo 90" transform="translate(87.049 8.165)">
      <path id="Caminho_82" data-name="Caminho 82" d="M345.861,15.186h5.8v-.775c0-1.8-.973-2.713-2.9-2.713s-2.9.911-2.9,2.713Zm6.731.446c-.058.368-.136.465-.506.465h-6.225v.679c0,2.093.934,2.869,3.21,2.869a8.7,8.7,0,0,0,2.821-.426c.311-.1.428-.02.428.349v.116c0,.33-.059.368-.428.5a8.183,8.183,0,0,1-2.8.426c-2.9,0-4.261-1.163-4.261-3.973v-1.9c0-2.656,1.323-3.974,3.95-3.974,2.47,0,3.871,1.26,3.871,3.741a10.031,10.031,0,0,1-.058,1.124" transform="translate(-344.829 -10.767)" fill="#575756"/>
    </g>
    <g id="Grupo_91" data-name="Grupo 91" transform="translate(86.834 7.951)">
      <path id="Caminho_83" data-name="Caminho 83" d="M349.031,20.771c-3.1,0-4.477-1.292-4.477-4.189v-1.9c0-2.779,1.4-4.188,4.165-4.188,2.635,0,4.086,1.4,4.086,3.955a10.241,10.241,0,0,1-.06,1.148l0,.01c-.066.419-.2.647-.717.647h-6.01v.463c0,1.935.811,2.654,2.995,2.654a8.455,8.455,0,0,0,2.752-.415.577.577,0,0,1,.523.027.619.619,0,0,1,.189.525v.115c0,.455-.156.554-.568.706A8.323,8.323,0,0,1,349.031,20.771Zm-.312-9.848c-2.514,0-3.734,1.23-3.734,3.759v1.9c0,2.635,1.21,3.759,4.046,3.759a7.912,7.912,0,0,0,2.728-.413c.287-.105.287-.105.287-.3v-.115a.549.549,0,0,0-.02-.179c-.009.005-.049.009-.129.034a8.857,8.857,0,0,1-2.885.437c-2.433,0-3.425-.894-3.425-3.084v-.894h6.441c.242,0,.249,0,.292-.278a9.9,9.9,0,0,0,.056-1.1C352.375,12.143,351.111,10.923,348.719,10.923Zm3.094,4.42h-6.227v-.991c0-1.915,1.077-2.927,3.114-2.927s3.113,1.012,3.113,2.927Zm-5.8-.43h5.366v-.561c0-1.681-.877-2.5-2.683-2.5s-2.684.818-2.684,2.5Z" transform="translate(-344.554 -10.494)" fill="#575756"/>
    </g>
    <g id="Grupo_92" data-name="Grupo 92" transform="translate(96.743 8.166)">
      <path id="Caminho_84" data-name="Caminho 84" d="M357.193,19.607c0-.368.117-.446.448-.368a13,13,0,0,0,2.965.408c1.638,0,2.36-.368,2.36-1.319,0-.717-.371-1.143-1.287-1.589l-2.614-1.26a2.41,2.41,0,0,1-1.716-2.442c0-1.512,1.092-2.268,3.258-2.268a7.444,7.444,0,0,1,2.516.407c.371.136.448.194.448.524v.1q0,.494-.468.349a7.32,7.32,0,0,0-2.535-.407c-1.541,0-2.2.349-2.2,1.279a1.682,1.682,0,0,0,1.131,1.551l2.652,1.26c1.248.6,1.853,1.163,1.853,2.462,0,1.628-1.15,2.326-3.511,2.326a10.864,10.864,0,0,1-2.848-.407c-.37-.1-.448-.194-.448-.524Z" transform="translate(-357.193 -10.768)" fill="#575756"/>
    </g>
    <g id="Grupo_93" data-name="Grupo 93" transform="translate(96.528 7.951)">
      <path id="Caminho_85" data-name="Caminho 85" d="M360.431,20.771a11.124,11.124,0,0,1-2.9-.414c-.459-.122-.607-.3-.607-.731v-.078a.635.635,0,0,1,.181-.519.612.612,0,0,1,.531-.058,12.824,12.824,0,0,0,2.916.4c1.78,0,2.144-.441,2.144-1.1,0-.612-.3-.978-1.166-1.4l-2.613-1.259a2.613,2.613,0,0,1-1.838-2.636c0-1.648,1.169-2.483,3.473-2.483a7.684,7.684,0,0,1,2.588.419c.412.151.592.264.592.726v.1a.522.522,0,0,1-.747.554,7.071,7.071,0,0,0-2.472-.4c-1.657,0-1.989.407-1.989,1.065a1.471,1.471,0,0,0,1.01,1.357l2.651,1.26c1.282.615,1.976,1.221,1.976,2.655C364.156,20.507,362.03,20.771,360.431,20.771Zm-3.068-1.4a1.327,1.327,0,0,0-.013.179v.078c0,.217,0,.241.287.316a10.7,10.7,0,0,0,2.794.4c2.279,0,3.3-.651,3.3-2.111,0-1.221-.558-1.7-1.731-2.268l-2.651-1.26a1.883,1.883,0,0,1-1.255-1.744c0-1.317,1.224-1.494,2.419-1.494a7.472,7.472,0,0,1,2.609.42c.1.031.144.02.149.015s.031-.047.031-.162v-.1c0-.21,0-.21-.307-.322a7.26,7.26,0,0,0-2.442-.394c-2.047,0-3.043.672-3.043,2.053,0,1.122.387,1.668,1.594,2.249l2.615,1.26c.846.412,1.409.871,1.409,1.783,0,1.352-1.3,1.534-2.575,1.534a13.23,13.23,0,0,1-3.015-.415A.432.432,0,0,0,357.363,19.368Z" transform="translate(-356.919 -10.494)" fill="#575756"/>
    </g>
    <g id="Grupo_94" data-name="Grupo 94" transform="translate(105.614 8.166)">
      <path id="Caminho_86" data-name="Caminho 86" d="M369.539,19.978c0,.368-.1.466-.467.466h-.1c-.369,0-.466-.1-.466-.466v-5.7c0-2.346,1.3-3.509,3.91-3.509,2.8,0,3.911,1.261,3.911,3.509v5.7c0,.368-.1.466-.467.466h-.1c-.369,0-.466-.1-.466-.466v-5.7c0-1.706-.7-2.539-2.88-2.539s-2.879.833-2.879,2.539Z" transform="translate(-368.508 -10.768)" fill="#575756"/>
    </g>
    <g id="Grupo_95" data-name="Grupo 95" transform="translate(105.399 7.951)">
      <path id="Caminho_87" data-name="Caminho 87" d="M375.8,20.6h-.1c-.491,0-.682-.191-.682-.681v-5.7c0-1.436-.446-2.325-2.665-2.325s-2.663.89-2.663,2.325v5.7c0,.49-.191.681-.682.681h-.1c-.491,0-.682-.191-.682-.681v-5.7c0-2.471,1.388-3.724,4.125-3.724,2.776,0,4.126,1.218,4.126,3.724v5.7C376.485,20.408,376.294,20.6,375.8,20.6Zm-3.444-9.136c2.169,0,3.1.824,3.1,2.755v5.7c0,.251,0,.251.252.251h.1c.252,0,.252,0,.252-.251v-5.7c0-2.248-1.174-3.3-3.7-3.3-2.487,0-3.7,1.078-3.7,3.3v5.7c0,.251,0,.251.252.251h.1c.252,0,.252,0,.252-.251v-5.7C369.265,12.287,370.191,11.463,372.359,11.463Z" transform="translate(-368.234 -10.494)" fill="#575756"/>
    </g>
    <g id="Grupo_96" data-name="Grupo 96" transform="translate(115.518 8.166)">
      <path id="Caminho_88" data-name="Caminho 88" d="M388.313,14.741c0-2.074-.739-3-3.071-3-2.313,0-3.071.931-3.071,3v1.9c0,2.074.758,3,3.071,3,2.332,0,3.071-.931,3.071-3Zm-7.172,1.9v-1.9c0-2.559,1.205-3.973,4.1-3.973,2.955,0,4.121,1.4,4.121,3.973v1.9c0,2.559-1.185,3.973-4.121,3.973-2.954,0-4.1-1.4-4.1-3.973" transform="translate(-381.141 -10.768)" fill="#575756"/>
    </g>
    <g id="Grupo_97" data-name="Grupo 97" transform="translate(115.303 7.951)">
      <path id="Caminho_89" data-name="Caminho 89" d="M385.183,20.77c-2.945,0-4.317-1.33-4.317-4.188v-1.9c0-2.818,1.412-4.188,4.317-4.188s4.336,1.37,4.336,4.188v1.9C389.519,19.4,388.1,20.77,385.183,20.77Zm0-9.846c-2.652,0-3.886,1.194-3.886,3.759v1.9c0,2.6,1.2,3.758,3.886,3.758,2.665,0,3.906-1.193,3.906-3.758v-1.9C389.089,12.082,387.884,10.924,385.183,10.924Zm0,8.878c-2.333,0-3.286-.934-3.286-3.22v-1.9c0-2.287.953-3.219,3.286-3.219s3.286.932,3.286,3.219v1.9C388.469,18.868,387.517,19.8,385.183,19.8Zm0-7.909c-2.108,0-2.855.73-2.855,2.789v1.9c0,2.06.747,2.789,2.855,2.789s2.856-.73,2.856-2.789v-1.9C388.039,12.623,387.292,11.893,385.183,11.893Z" transform="translate(-380.866 -10.494)" fill="#575756"/>
    </g>
    <g id="Grupo_98" data-name="Grupo 98" transform="translate(125.88 4.323)">
      <path id="Caminho_90" data-name="Caminho 90" d="M394.358,6.329c0-.367.1-.463.481-.463h.1c.382,0,.482.1.482.463v10.64c0,1.024.361,1.526,1.083,1.526h.241c.381,0,.461.058.461.387v.077c0,.328-.08.425-.461.483a1.464,1.464,0,0,1-.321.02c-1.224,0-2.067-.7-2.067-2.376Z" transform="translate(-394.358 -5.866)" fill="#575756"/>
    </g>
    <g id="Grupo_99" data-name="Grupo 99" transform="translate(125.665 4.108)">
      <path id="Caminho_91" data-name="Caminho 91" d="M396.365,19.616c-1.471,0-2.281-.92-2.281-2.59V6.27c0-.488.2-.678.7-.678h.1c.5,0,.7.19.7.678V16.91c0,1.175.5,1.311.869,1.311h.241c.437,0,.676.1.676.6V18.9c0,.441-.169.623-.644.7A1.593,1.593,0,0,1,396.365,19.616ZM394.781,6.022c-.267,0-.267,0-.267.249V17.026c0,1.433.622,2.16,1.851,2.16a1.446,1.446,0,0,0,.273-.013c.295-.045.295-.054.295-.274v-.077a.434.434,0,0,0-.016-.158,1.236,1.236,0,0,0-.23-.013h-.241c-.593,0-1.3-.3-1.3-1.74V6.27c0-.244,0-.249-.267-.249Z" transform="translate(-394.084 -5.592)" fill="#575756"/>
    </g>
    <g id="Grupo_100" data-name="Grupo 100" transform="translate(129.858 8.166)">
      <path id="Caminho_92" data-name="Caminho 92" d="M406.6,14.741c0-2.074-.739-3-3.071-3-2.313,0-3.071.931-3.071,3v1.9c0,2.074.758,3,3.071,3,2.332,0,3.071-.931,3.071-3Zm-7.172,1.9v-1.9c0-2.559,1.2-3.973,4.1-3.973,2.955,0,4.121,1.4,4.121,3.973v1.9c0,2.559-1.185,3.973-4.121,3.973-2.954,0-4.1-1.4-4.1-3.973" transform="translate(-399.431 -10.768)" fill="#575756"/>
    </g>
    <g id="Grupo_101" data-name="Grupo 101" transform="translate(129.642 7.951)">
      <path id="Caminho_93" data-name="Caminho 93" d="M403.472,20.77c-2.944,0-4.316-1.33-4.316-4.188v-1.9c0-2.818,1.412-4.188,4.316-4.188s4.336,1.37,4.336,4.188v1.9C407.808,19.4,406.389,20.77,403.472,20.77Zm0-9.846c-2.651,0-3.886,1.194-3.886,3.759v1.9c0,2.6,1.2,3.758,3.886,3.758,2.665,0,3.906-1.193,3.906-3.758v-1.9C407.378,12.082,406.174,10.924,403.472,10.924Zm0,8.878c-2.333,0-3.286-.934-3.286-3.22v-1.9c0-2.287.953-3.219,3.286-3.219s3.286.932,3.286,3.219v1.9C406.758,18.868,405.806,19.8,403.472,19.8Zm0-7.909c-2.108,0-2.855.73-2.855,2.789v1.9c0,2.06.747,2.789,2.855,2.789s2.856-.73,2.856-2.789v-1.9C406.328,12.623,405.581,11.893,403.472,11.893Z" transform="translate(-399.156 -10.494)" fill="#575756"/>
    </g>
    <g id="Grupo_102" data-name="Grupo 102" transform="translate(139.666 7.453)">
      <path id="Caminho_94" data-name="Caminho 94" d="M418.92,13.838c0-1.563-.953-2.335-2.857-2.335-1.925,0-2.877.772-2.877,2.335v.27c0,1.563.681,2.354,2.877,2.354,2.176,0,2.857-.791,2.857-2.354Zm-4.9,5.944a1.877,1.877,0,0,0-1.049,1.833c0,1.467.777,1.871,3.091,1.871,2.2,0,3.071-.4,3.071-1.949a1.34,1.34,0,0,0-.681-1.351,6.252,6.252,0,0,0-2.39-.308c-.758,0-1.439-.039-2.042-.1m5.929-5.674c0,2.18-1.3,3.28-3.887,3.28a10.92,10.92,0,0,0-2.274.154.642.642,0,0,0-.525.656.618.618,0,0,0,.545.618,11.169,11.169,0,0,0,2.255.135,6.519,6.519,0,0,1,3.187.56,2.12,2.12,0,0,1,.914,1.969c0,2.142-1.089,2.933-4.1,2.933-3.091,0-4.121-.869-4.121-2.721a2.351,2.351,0,0,1,1.146-2.161,1.246,1.246,0,0,1-.855-1.236c0-.771.583-1.293,1.594-1.389a2.627,2.627,0,0,1-1.69-2.8v-.27c0-2.084,1.438-3.261,3.926-3.261a4.8,4.8,0,0,1,2.1.424l1.127-1.022a.392.392,0,0,1,.583.019l.078.078a.344.344,0,0,1,0,.54l-.972.926a2.748,2.748,0,0,1,.972,2.3Z" transform="translate(-411.942 -9.858)" fill="#575756"/>
    </g>
    <g id="Grupo_103" data-name="Grupo 103" transform="translate(139.451 7.239)">
      <path id="Caminho_95" data-name="Caminho 95" d="M416,24.571c-3.08,0-4.336-.851-4.336-2.936a2.586,2.586,0,0,1,.949-2.134,1.415,1.415,0,0,1-.658-1.262,1.506,1.506,0,0,1,1.147-1.473,2.974,2.974,0,0,1-1.243-2.714V13.78c0-2.209,1.51-3.475,4.142-3.475a5.147,5.147,0,0,1,2.059.385l1.023-.927a.605.605,0,0,1,.87.018l.087.086a.555.555,0,0,1,0,.844l-.8.766a3.024,3.024,0,0,1,.868,2.3v.271c0,1.594-.712,3.5-4.1,3.5a11.112,11.112,0,0,0-2.221.147.428.428,0,0,0-.364.448c0,.144.043.321.384.411a11.139,11.139,0,0,0,2.2.127,6.659,6.659,0,0,1,3.3.591,2.323,2.323,0,0,1,1.017,2.152C420.319,23.688,419.109,24.571,416,24.571Zm0-13.837c-2.394,0-3.711,1.082-3.711,3.046v.271a2.418,2.418,0,0,0,1.548,2.6l.9.325-.956.092c-.889.085-1.4.514-1.4,1.176a1.031,1.031,0,0,0,.722,1.037l.392.161-.362.221a2.135,2.135,0,0,0-1.043,1.977c0,1.547.653,2.506,3.906,2.506,2.869,0,3.886-.711,3.886-2.718a1.922,1.922,0,0,0-.811-1.784A6.381,6.381,0,0,0,416,19.109a11.05,11.05,0,0,1-2.31-.143.831.831,0,0,1-.706-.826.857.857,0,0,1,.683-.862A11.074,11.074,0,0,1,416,17.116c2.47,0,3.672-1,3.672-3.065V13.78a2.542,2.542,0,0,0-.89-2.127l-.2-.153,1.153-1.1a.194.194,0,0,0,.063-.115.2.2,0,0,0-.067-.117l-.078-.078c-.128-.113-.2-.091-.289-.01L418.139,11.2l-.13-.063A4.556,4.556,0,0,0,416,10.734Zm0,12.91c-2.144,0-3.306-.333-3.306-2.086a2.08,2.08,0,0,1,1.169-2.026l.055-.027.061.006c.665.063,1.345.095,2.021.095a6.348,6.348,0,0,1,2.482.33,1.541,1.541,0,0,1,.8,1.544C419.289,23.29,418.084,23.644,416,23.644Zm-2-3.7a1.663,1.663,0,0,0-.877,1.614c0,1.168.4,1.656,2.876,1.656,2.188,0,2.855-.4,2.855-1.734a1.135,1.135,0,0,0-.557-1.156,6.133,6.133,0,0,0-2.3-.289C415.335,20.035,414.663,20,414,19.943Zm2-3.323c-2.168,0-3.093-.768-3.093-2.569V13.78c0-1.692,1.04-2.549,3.093-2.549s3.072.857,3.072,2.549v.271C419.075,15.852,418.157,16.62,416,16.62Zm0-4.96c-1.817,0-2.662.674-2.662,2.12v.271c0,1.32.445,2.139,2.662,2.139,2.2,0,2.642-.818,2.642-2.139V13.78C418.645,12.353,417.781,11.66,416,11.66Z" transform="translate(-411.667 -9.586)" fill="#575756"/>
    </g>
    <g id="Grupo_104" data-name="Grupo 104" transform="translate(149.702 4.667)">
      <path id="Caminho_96" data-name="Caminho 96" d="M424.974,10.477c0-.367.105-.463.5-.463h.1c.4,0,.5.1.5.463v8.538c0,.367-.1.463-.5.463h-.1c-.4,0-.5-.1-.5-.463ZM426.293,7a.739.739,0,0,1-.753.715.763.763,0,0,1-.8-.715c-.064-.927,1.653-.927,1.548,0" transform="translate(-424.743 -6.305)" fill="#575756"/>
    </g>
    <g id="Grupo_105" data-name="Grupo 105" transform="translate(149.486 4.451)">
      <path id="Caminho_97" data-name="Caminho 97" d="M425.522,19.634h-.1c-.517,0-.718-.191-.718-.678V10.418c0-.488.2-.678.718-.678h.1c.516,0,.717.19.717.678v8.538C426.239,19.443,426.037,19.634,425.522,19.634Zm-.1-9.464c-.288,0-.288.009-.288.249v8.538c0,.239,0,.248.288.248h.1c.287,0,.287-.009.287-.248V10.418c0-.239,0-.249-.287-.249Zm.063-2.3a.974.974,0,0,1-1.011-.93.8.8,0,0,1,.41-.757,1.209,1.209,0,0,1,1.21.016.777.777,0,0,1,.357.753A.95.95,0,0,1,425.48,7.871Zm-.006-1.41a.746.746,0,0,0-.376.093.373.373,0,0,0-.2.372.554.554,0,0,0,.581.515.528.528,0,0,0,.539-.5l0-.024a.345.345,0,0,0-.164-.356A.717.717,0,0,0,425.474,6.461Z" transform="translate(-424.467 -6.029)" fill="#575756"/>
    </g>
    <g id="Grupo_106" data-name="Grupo 106" transform="translate(153.202 8.166)">
      <path id="Caminho_98" data-name="Caminho 98" d="M435.613,15.866h-2.4c-2.084,0-2.979.5-2.979,1.919,0,1.26.8,1.9,2.4,1.9,2.083,0,2.979-.465,2.979-2.151Zm1.032,1.706c0,2.191-1.227,3.043-4.011,3.043-1.947,0-3.427-.873-3.427-2.83s1.265-2.772,3.972-2.772h2.434V13.675c0-1.454-.954-1.976-2.746-1.976a8.97,8.97,0,0,0-2.336.271c-.332.1-.429.019-.429-.349v-.136c0-.33.1-.426.429-.5a10.556,10.556,0,0,1,2.277-.213c2.551,0,3.836.969,3.836,2.907Z" transform="translate(-429.207 -10.768)" fill="#575756"/>
    </g>
    <g id="Grupo_107" data-name="Grupo 107" transform="translate(152.987 7.951)">
      <path id="Caminho_99" data-name="Caminho 99" d="M432.574,20.771c-2.28,0-3.641-1.138-3.641-3.045,0-2.038,1.33-2.987,4.187-2.987h2.219V13.616c0-1.251-.733-1.762-2.531-1.762a8.791,8.791,0,0,0-2.28.263.579.579,0,0,1-.52-.032.62.62,0,0,1-.181-.524v-.136c0-.48.219-.625.6-.713a10.8,10.8,0,0,1,2.327-.219c2.688,0,4.051,1.051,4.051,3.122v3.9C436.8,19.8,435.537,20.771,432.574,20.771Zm.546-5.6c-2.633,0-3.756.765-3.756,2.557,0,2.361,2.245,2.615,3.211,2.615,2.732,0,3.8-.793,3.8-2.828v-3.9c0-1.812-1.185-2.692-3.621-2.692a10.357,10.357,0,0,0-2.23.208c-.252.06-.261.085-.261.295v.136a.685.685,0,0,0,.016.179c.011-.007.055-.012.139-.036a9.215,9.215,0,0,1,2.4-.28c1.271,0,2.961.227,2.961,2.191v1.552Zm-.546,4.672c-2.157,0-2.61-1.149-2.61-2.114,0-1.875,1.535-2.134,3.195-2.134h2.611v1.882C435.77,19.445,434.546,19.84,432.574,19.84Zm.585-3.819c-2.3,0-2.764.652-2.764,1.7,0,1.134.713,1.685,2.18,1.685,2.093,0,2.765-.47,2.765-1.936V16.021Z" transform="translate(-428.933 -10.494)" fill="#575756"/>
    </g>
  </g>
  <g id="Grupo_109" data-name="Grupo 109" transform="translate(40.066 2.343)">
    <rect id="Retângulo_47" data-name="Retângulo 47" width="0.784" height="17.454" fill="#575756"/>
  </g>
</svg>
