<?xml version="1.0" encoding="utf-8"?>
<!-- Generator: Adobe Illustrator 23.1.0, SVG Export Plug-In . SVG Version: 6.00 Build 0)  -->
<svg version="1.1" id="Camada_1" xmlns="http://www.w3.org/2000/svg" xmlns:xlink="http://www.w3.org/1999/xlink" x="0px" y="0px"
	 viewBox="0 0 205.17 28.35" style="enable-background:new 0 0 205.17 28.35;" xml:space="preserve">
<style type="text/css">
	.st0{fill:#FFFFFF;}
</style>
<g>
	<path class="st0" d="M0.56,6.04c-0.72,0.73-0.72,1.94,0,2.67c0.76,0.76,1.93,0.77,2.69,0.01c0.76-0.76,0.76-1.93,0-2.68
		C2.49,5.27,1.31,5.27,0.56,6.04"/>
	<path class="st0" d="M0.57,15.06c-0.76,0.76-0.76,1.94,0.01,2.69c0.73,0.72,1.94,0.72,2.67,0c0.77-0.76,0.77-1.93,0.01-2.69
		C2.5,14.3,1.32,14.3,0.57,15.06"/>
	<path class="st0" d="M7.72,0.49C7.06-0.19,6.74-0.15,5.96,0.54L5.74,0.73C4.98,1.42,5.01,1.71,5.62,2.42
		C7.84,4.86,8.94,8,8.94,11.88c0,3.9-1.12,7.05-3.37,9.47c-0.66,0.76-0.61,0.95,0.15,1.66l0.24,0.22c0.78,0.71,0.98,0.76,1.73,0.07
		c2.81-2.9,4.22-6.71,4.22-11.42C11.91,7.27,10.52,3.47,7.72,0.49"/>
	<path class="st0" d="M18.8,16.49v2.93c0,0.4,0.33,0.73,0.73,0.73h2.68c1.42,0,2.12-0.59,2.12-1.78c0-1.24-0.71-1.88-2.12-1.88H18.8
		z M19.53,10.39c-0.4,0-0.73,0.33-0.73,0.73v2.56h3.17c1.24,0,1.88-0.56,1.88-1.68c0-1.07-0.64-1.61-1.88-1.61H19.53z M21.97,7.34
		c3.61,0,5.2,1.63,5.2,4.27c0,1.51-0.64,2.64-1.9,3.37c1.78,0.88,2.39,1.98,2.39,3.66c0,3.05-1.8,4.56-5.44,4.56h-3.76
		c-1.62,0-2.93-1.31-2.93-2.93v-10c0-1.62,1.31-2.87,2.93-2.87L21.97,7.34z"/>
	<path class="st0" d="M29.46,12.38c0-1.1,0.27-1.42,1.42-1.42h0.44c1.15,0,1.42,0.32,1.42,1.42v9.41c0,1.1-0.27,1.41-1.42,1.41
		h-0.44c-1.15,0-1.42-0.32-1.42-1.41V12.38z"/>
	<path class="st0" d="M34.74,8.76c0-1.1,0.27-1.42,1.41-1.42h6.78c2.71,0,3.66,0.9,3.66,2.93c0,1.46-0.46,2.42-1.83,3.49l-7.08,5.42
		c-0.37,0.27-0.56,0.51-0.56,0.68c0,0.19,0.24,0.29,0.73,0.29h7.32c0.78,0,1.42,0.63,1.42,1.42v0.22c0,1.1-0.27,1.41-1.41,1.41
		h-7.27c-1.54,0-2.59-0.24-3.12-0.71c-0.54-0.46-0.81-1.2-0.81-2.17c0-1.54,0.46-2.44,1.81-3.49l7.17-5.51
		c0.32-0.24,0.46-0.44,0.46-0.61c0-0.22-0.24-0.32-0.71-0.32h-6.56c-0.78,0-1.41-0.63-1.41-1.41V8.76z"/>
	<path class="st0" d="M29.46,8.72c0-1.1,0.27-1.42,1.42-1.42h0.44c1.15,0,1.42,0.32,1.42,1.42V8.8c0,1.1-0.27,1.42-1.42,1.42h-0.44
		c-1.15,0-1.42-0.32-1.42-1.42V8.72z"/>
	<g>
		<path class="st0" d="M56.65,21.69c0-0.47,0.15-0.57,0.57-0.47c1.44,0.35,2.71,0.52,3.78,0.52c2.09,0,3.01-0.47,3.01-1.68
			c0-0.91-0.47-1.46-1.64-2.03l-3.33-1.61c-1.49-0.72-2.19-1.46-2.19-3.12c0-1.93,1.39-2.89,4.16-2.89c1.17,0,2.24,0.17,3.21,0.52
			c0.47,0.17,0.57,0.25,0.57,0.67v0.12c0,0.42-0.2,0.57-0.6,0.44c-0.94-0.35-2.01-0.52-3.23-0.52c-1.97,0-2.81,0.44-2.81,1.63
			c0,0.87,0.47,1.51,1.44,1.98l3.38,1.61c1.59,0.77,2.36,1.48,2.36,3.14c0,2.08-1.47,2.97-4.48,2.97c-1.14,0-2.36-0.17-3.63-0.52
			c-0.47-0.12-0.57-0.25-0.57-0.67V21.69z"/>
	</g>
	<g>
		<path class="st0" d="M60.85,23.25c-1.17,0-2.42-0.18-3.7-0.53c-0.59-0.15-0.77-0.38-0.77-0.93v-0.1c0-0.22,0.03-0.5,0.23-0.66
			c0.2-0.16,0.47-0.12,0.68-0.07c1.42,0.34,2.67,0.51,3.72,0.51c2.27,0,2.74-0.56,2.74-1.41c0-0.78-0.39-1.25-1.49-1.78l-3.33-1.61
			c-1.48-0.71-2.34-1.49-2.34-3.36c0-2.1,1.49-3.17,4.43-3.17c1.2,0,2.31,0.18,3.3,0.53c0.52,0.19,0.75,0.34,0.75,0.93v0.12
			c0,0.3-0.09,0.52-0.26,0.65c-0.17,0.13-0.41,0.15-0.69,0.06c-0.94-0.34-1.96-0.51-3.15-0.51c-2.11,0-2.54,0.52-2.54,1.36
			c0,0.76,0.41,1.31,1.29,1.73l3.38,1.61c1.63,0.79,2.52,1.56,2.52,3.39C65.61,22.91,62.9,23.25,60.85,23.25z M56.94,21.46
			c0,0.01-0.02,0.06-0.02,0.23v0.1c0,0.28,0,0.31,0.37,0.4c1.24,0.34,2.44,0.51,3.56,0.51c2.91,0,4.21-0.83,4.21-2.69
			c0-1.56-0.71-2.17-2.21-2.89l-3.38-1.61c-1.08-0.52-1.6-1.25-1.6-2.23c0-1.68,1.56-1.91,3.08-1.91c1.26,0,2.34,0.18,3.33,0.54
			c0.12,0.04,0.18,0.02,0.19,0.02c0,0,0.04-0.04,0.04-0.21V11.6c0-0.27,0-0.27-0.39-0.41c-0.93-0.33-1.98-0.5-3.11-0.5
			c-2.61,0-3.88,0.86-3.88,2.62c0,1.43,0.49,2.13,2.03,2.87l3.33,1.61c1.08,0.52,1.8,1.11,1.8,2.27c0,1.72-1.66,1.96-3.28,1.96
			c-1.09,0-2.38-0.18-3.85-0.53C57.01,21.45,56.96,21.46,56.94,21.46z"/>
	</g>
	<g>
		<path class="st0" d="M68.33,11.27c0-0.47,0.13-0.59,0.64-0.59h0.13c0.51,0,0.64,0.12,0.64,0.59v10.89c0,0.47-0.13,0.59-0.64,0.59
			h-0.13c-0.51,0-0.64-0.12-0.64-0.59V11.27z M70.02,6.84c0,0.49-0.43,0.91-0.96,0.91c-0.56,0-1.01-0.42-1.01-0.91
			C67.96,5.66,70.15,5.66,70.02,6.84"/>
	</g>
	<g>
		<path class="st0" d="M69.11,23.03h-0.13c-0.66,0-0.92-0.24-0.92-0.87V11.27c0-0.62,0.26-0.86,0.92-0.86h0.13
			c0.66,0,0.91,0.24,0.91,0.86v10.89C70.02,22.79,69.77,23.03,69.11,23.03z M68.97,10.96c-0.37,0-0.37,0.01-0.37,0.32v10.89
			c0,0.3,0,0.32,0.37,0.32h0.13c0.37,0,0.37-0.01,0.37-0.32V11.27c0-0.3,0-0.32-0.37-0.32H68.97z M69.05,8.03
			c-0.71,0-1.29-0.53-1.29-1.19c-0.03-0.4,0.16-0.75,0.52-0.97c0.46-0.27,1.11-0.26,1.54,0.02c0.33,0.21,0.5,0.56,0.46,0.96
			C70.28,7.5,69.73,8.03,69.05,8.03z M69.05,6.23c-0.17,0-0.34,0.04-0.48,0.12c-0.18,0.11-0.27,0.27-0.25,0.48
			c0,0.36,0.34,0.66,0.74,0.66c0.37,0,0.69-0.29,0.69-0.64l0-0.03c0.02-0.2-0.05-0.35-0.21-0.45C69.4,6.27,69.23,6.23,69.05,6.23z"
			/>
	</g>
	<g>
		<path class="st0" d="M74.32,22.16c0,0.47-0.12,0.59-0.59,0.59H73.6c-0.47,0-0.59-0.12-0.59-0.59v-7.27c0-2.99,1.5-4.48,4.49-4.48
			c2.05,0,3.33,0.74,3.82,2.25c0.54-1.51,1.82-2.25,3.84-2.25c3.23,0,4.49,1.61,4.49,4.48v7.27c0,0.47-0.12,0.59-0.59,0.59h-0.12
			c-0.47,0-0.59-0.12-0.59-0.59v-7.27c0-2.2-0.79-3.24-3.18-3.24s-3.18,1.04-3.18,3.24v7.27c0,0.47-0.12,0.59-0.59,0.59h-0.12
			c-0.47,0-0.59-0.12-0.59-0.59v-7.27c0-2.2-0.79-3.24-3.18-3.24c-2.37,0-3.18,1.06-3.18,3.24V22.16z"/>
	</g>
	<g>
		<path class="st0" d="M89.05,23.03h-0.12c-0.62,0-0.87-0.24-0.87-0.87v-7.27c0-2.16-0.79-2.97-2.9-2.97s-2.91,0.8-2.91,2.97v7.27
			c0,0.63-0.24,0.87-0.86,0.87h-0.12c-0.62,0-0.87-0.24-0.87-0.87v-7.27c0-2.16-0.79-2.97-2.9-2.97c-2.09,0-2.91,0.83-2.91,2.97
			v7.27c0,0.63-0.24,0.87-0.86,0.87H73.6c-0.62,0-0.86-0.24-0.86-0.87v-7.27c0-3.15,1.6-4.75,4.76-4.75c1.89,0,3.18,0.62,3.83,1.84
			c0.68-1.22,1.97-1.84,3.84-1.84c3.2,0,4.76,1.55,4.76,4.75v7.27C89.92,22.79,89.68,23.03,89.05,23.03z M85.16,11.38
			c2.42,0,3.45,1.05,3.45,3.51v7.27c0,0.32,0,0.32,0.32,0.32h0.12c0.32,0,0.32,0,0.32-0.32v-7.27c0-2.91-1.3-4.2-4.21-4.2
			c-1.91,0-3.09,0.68-3.59,2.07l-0.27,0.75l-0.25-0.76c-0.45-1.39-1.62-2.06-3.56-2.06c-2.83,0-4.21,1.37-4.21,4.2v7.27
			c0,0.32,0,0.32,0.32,0.32h0.12c0.32,0,0.32,0,0.32-0.32v-7.27c0-2.43,1.06-3.51,3.45-3.51c2.42,0,3.45,1.05,3.45,3.51v7.27
			c0,0.32,0,0.32,0.32,0.32h0.12c0.32,0,0.32,0,0.32-0.32v-7.27C81.71,12.43,82.74,11.38,85.16,11.38z"/>
	</g>
	<g>
		<path class="st0" d="M101.89,15.47c0-2.64-0.94-3.82-3.92-3.82s-3.92,1.18-3.92,3.82v2.41c0,2.63,0.94,3.82,3.92,3.82
			s3.92-1.18,3.92-3.82V15.47z M92.74,15.44c0-3.25,1.56-5.02,5.23-5.02c3.74,0,5.26,1.75,5.26,5.02v2.41
			c0,3.28-1.46,5.07-5.11,5.07c-2.08,0-3.45-0.67-4.07-1.97v6.08c0,0.47-0.12,0.59-0.6,0.59h-0.12c-0.47,0-0.59-0.12-0.59-0.59
			V15.44z"/>
	</g>
	<g>
		<path class="st0" d="M93.46,27.91h-0.12c-0.63,0-0.87-0.24-0.87-0.87v-11.6c0-3.57,1.8-5.3,5.5-5.3c3.72,0,5.53,1.73,5.53,5.3
			v2.41c0,3.6-1.76,5.35-5.38,5.35c-1.73,0-3-0.45-3.79-1.33v5.17C94.33,27.66,94.09,27.91,93.46,27.91z M97.97,10.69
			c-3.38,0-4.96,1.51-4.96,4.75v11.6c0,0.32,0,0.32,0.32,0.32h0.12c0.32,0,0.32,0,0.32-0.32v-7.3l0.52,1.1
			c0.57,1.2,1.86,1.81,3.82,1.81c3.34,0,4.83-1.48,4.83-4.8v-2.41C102.96,12.15,101.42,10.69,97.97,10.69z M97.97,21.97
			c-2.98,0-4.19-1.19-4.19-4.09v-2.41c0-2.91,1.21-4.09,4.19-4.09s4.19,1.19,4.19,4.09v2.41C102.16,20.79,100.95,21.97,97.97,21.97z
			 M97.97,11.92c-2.69,0-3.64,0.93-3.64,3.54v2.41c0,2.62,0.95,3.54,3.64,3.54s3.64-0.93,3.64-3.54v-2.41
			C101.62,12.85,100.66,11.92,97.97,11.92z"/>
	</g>
	<g>
		<path class="st0" d="M105.96,6.1c0-0.47,0.13-0.59,0.61-0.59h0.13c0.49,0,0.61,0.12,0.61,0.59v13.57c0,1.31,0.46,1.95,1.38,1.95
			h0.31c0.49,0,0.59,0.07,0.59,0.49v0.1c0,0.42-0.1,0.54-0.59,0.62c-0.1,0.02-0.23,0.02-0.41,0.02c-1.56,0-2.64-0.89-2.64-3.03V6.1z
			"/>
	</g>
	<g>
		<path class="st0" d="M108.6,23.13c-1.88,0-2.91-1.17-2.91-3.3V6.1c0-0.62,0.25-0.86,0.89-0.86h0.13c0.64,0,0.89,0.24,0.89,0.86
			v13.57c0,1.5,0.63,1.67,1.11,1.67h0.31c0.56,0,0.86,0.12,0.86,0.77v0.1c0,0.56-0.21,0.79-0.82,0.89
			C108.94,23.13,108.79,23.13,108.6,23.13z M106.57,5.79c-0.34,0-0.34,0.01-0.34,0.32v13.72c0,1.83,0.79,2.75,2.36,2.75
			c0.16,0,0.28,0,0.35-0.02c0.38-0.06,0.38-0.07,0.38-0.35v-0.1c0-0.16-0.02-0.2-0.02-0.2c-0.01,0-0.06-0.02-0.29-0.02h-0.31
			c-0.76,0-1.66-0.39-1.66-2.22V6.1c0-0.31,0-0.32-0.34-0.32H106.57z"/>
	</g>
	<g>
		<path class="st0" d="M112.35,16.05h7.39v-0.99c0-2.3-1.24-3.46-3.7-3.46c-2.46,0-3.7,1.16-3.7,3.46V16.05z M120.93,16.62
			c-0.07,0.47-0.17,0.59-0.65,0.59h-7.94v0.87c0,2.67,1.19,3.66,4.09,3.66c1.32,0,2.51-0.17,3.6-0.54c0.4-0.12,0.55-0.02,0.55,0.45
			v0.15c0,0.42-0.08,0.47-0.55,0.64c-1.02,0.37-2.21,0.54-3.57,0.54c-3.7,0-5.43-1.48-5.43-5.07v-2.42c0-3.39,1.69-5.07,5.04-5.07
			c3.15,0,4.94,1.61,4.94,4.77C121.01,15.71,120.98,16.18,120.93,16.62"/>
	</g>
	<g>
		<path class="st0" d="M116.47,23.25c-3.95,0-5.71-1.65-5.71-5.34v-2.42c0-3.55,1.79-5.34,5.31-5.34c3.36,0,5.21,1.79,5.21,5.05
			c0,0.53-0.03,1.01-0.08,1.46l0,0.01c-0.08,0.54-0.25,0.83-0.92,0.83h-7.67v0.59c0,2.47,1.04,3.38,3.82,3.38
			c1.31,0,2.46-0.17,3.51-0.53c0.21-0.06,0.46-0.12,0.67,0.04c0.21,0.16,0.24,0.44,0.24,0.67v0.15c0,0.58-0.2,0.71-0.73,0.9
			C119.1,23.07,117.9,23.25,116.47,23.25z M116.07,10.69c-3.21,0-4.76,1.57-4.76,4.79v2.42c0,3.36,1.54,4.79,5.16,4.79
			c1.37,0,2.51-0.17,3.48-0.53c0.37-0.13,0.37-0.13,0.37-0.39v-0.15c0-0.14-0.02-0.2-0.02-0.23c-0.01,0.01-0.06,0.01-0.17,0.04
			c-1.1,0.37-2.31,0.56-3.68,0.56c-3.1,0-4.37-1.14-4.37-3.93v-1.14h8.21c0.31,0,0.32,0,0.37-0.36c0.05-0.43,0.07-0.89,0.07-1.4
			C120.73,12.24,119.12,10.69,116.07,10.69z M120.02,16.33h-7.94v-1.26c0-2.44,1.37-3.73,3.97-3.73s3.97,1.29,3.97,3.73V16.33z
			 M112.62,15.78h6.84v-0.71c0-2.14-1.12-3.19-3.42-3.19c-2.3,0-3.42,1.04-3.42,3.19V15.78z"/>
	</g>
	<g>
		<path class="st0" d="M123.4,21.69c0-0.47,0.15-0.57,0.57-0.47c1.44,0.35,2.71,0.52,3.78,0.52c2.09,0,3.01-0.47,3.01-1.68
			c0-0.91-0.47-1.46-1.64-2.03l-3.33-1.61c-1.49-0.72-2.19-1.46-2.19-3.12c0-1.93,1.39-2.89,4.15-2.89c1.17,0,2.24,0.17,3.21,0.52
			c0.47,0.17,0.57,0.25,0.57,0.67v0.12c0,0.42-0.2,0.57-0.6,0.44c-0.95-0.35-2.01-0.52-3.23-0.52c-1.96,0-2.81,0.44-2.81,1.63
			c0,0.87,0.47,1.51,1.44,1.98l3.38,1.61c1.59,0.77,2.36,1.48,2.36,3.14c0,2.08-1.47,2.97-4.48,2.97c-1.14,0-2.36-0.17-3.63-0.52
			c-0.47-0.12-0.57-0.25-0.57-0.67V21.69z"/>
	</g>
	<g>
		<path class="st0" d="M127.6,23.25c-1.17,0-2.42-0.18-3.71-0.53c-0.58-0.15-0.77-0.38-0.77-0.93v-0.1c0-0.22,0.03-0.5,0.23-0.66
			c0.2-0.16,0.47-0.12,0.68-0.07c1.42,0.34,2.67,0.51,3.72,0.51c2.27,0,2.74-0.56,2.74-1.41c0-0.78-0.39-1.25-1.49-1.78l-3.33-1.61
			c-1.48-0.71-2.34-1.49-2.34-3.36c0-2.1,1.49-3.17,4.43-3.17c1.2,0,2.31,0.18,3.3,0.54c0.53,0.19,0.75,0.34,0.75,0.93v0.12
			c0,0.3-0.09,0.52-0.26,0.65c-0.17,0.13-0.4,0.15-0.69,0.06c-0.94-0.34-1.96-0.51-3.15-0.51c-2.11,0-2.54,0.52-2.54,1.36
			c0,0.76,0.41,1.31,1.29,1.73l3.38,1.61c1.63,0.79,2.52,1.56,2.52,3.39C132.35,22.91,129.64,23.25,127.6,23.25z M123.69,21.46
			c0,0.01-0.02,0.06-0.02,0.23v0.1c0,0.28,0,0.31,0.37,0.4c1.24,0.34,2.44,0.51,3.56,0.51c2.91,0,4.2-0.83,4.2-2.69
			c0-1.56-0.71-2.17-2.21-2.89l-3.38-1.61c-1.08-0.52-1.6-1.25-1.6-2.23c0-1.68,1.56-1.91,3.09-1.91c1.26,0,2.34,0.18,3.33,0.54
			c0.13,0.04,0.18,0.03,0.19,0.02c0.01-0.01,0.04-0.06,0.04-0.21V11.6c0-0.27,0-0.27-0.39-0.41c-0.93-0.33-1.98-0.5-3.12-0.5
			c-2.61,0-3.88,0.86-3.88,2.62c0,1.43,0.49,2.13,2.03,2.87l3.33,1.61c1.08,0.52,1.8,1.11,1.8,2.27c0,1.72-1.66,1.96-3.28,1.96
			c-1.09,0-2.38-0.18-3.85-0.53C123.76,21.45,123.7,21.46,123.69,21.46z"/>
	</g>
	<g>
		<path class="st0" d="M136.03,22.16c0,0.47-0.12,0.59-0.6,0.59h-0.12c-0.47,0-0.6-0.12-0.6-0.59v-7.27c0-2.99,1.66-4.48,4.99-4.48
			c3.57,0,4.99,1.61,4.99,4.48v7.27c0,0.47-0.12,0.59-0.6,0.59h-0.12c-0.47,0-0.6-0.12-0.6-0.59v-7.27c0-2.18-0.89-3.24-3.67-3.24
			c-2.78,0-3.67,1.06-3.67,3.24V22.16z"/>
	</g>
	<g>
		<path class="st0" d="M144.09,23.03h-0.12c-0.63,0-0.87-0.24-0.87-0.87v-7.27c0-1.83-0.57-2.97-3.4-2.97c-2.83,0-3.4,1.13-3.4,2.97
			v7.27c0,0.63-0.24,0.87-0.87,0.87h-0.12c-0.63,0-0.87-0.24-0.87-0.87v-7.27c0-3.15,1.77-4.75,5.26-4.75
			c3.54,0,5.26,1.55,5.26,4.75v7.27C144.96,22.79,144.72,23.03,144.09,23.03z M139.7,11.38c2.77,0,3.95,1.05,3.95,3.51v7.27
			c0,0.32,0,0.32,0.32,0.32h0.12c0.32,0,0.32,0,0.32-0.32v-7.27c0-2.87-1.5-4.2-4.71-4.2c-3.17,0-4.71,1.37-4.71,4.2v7.27
			c0,0.32,0,0.32,0.32,0.32h0.12c0.32,0,0.32,0,0.32-0.32v-7.27C135.75,12.43,136.93,11.38,139.7,11.38z"/>
	</g>
	<g>
		<path class="st0" d="M156.49,15.48c0-2.65-0.94-3.83-3.92-3.83c-2.95,0-3.92,1.19-3.92,3.83v2.42c0,2.64,0.97,3.83,3.92,3.83
			c2.98,0,3.92-1.19,3.92-3.83V15.48z M147.34,17.91v-2.42c0-3.26,1.54-5.07,5.23-5.07c3.77,0,5.26,1.78,5.26,5.07v2.42
			c0,3.26-1.51,5.07-5.26,5.07C148.81,22.97,147.34,21.19,147.34,17.91"/>
	</g>
	<g>
		<path class="st0" d="M152.58,23.25c-3.76,0-5.51-1.7-5.51-5.34v-2.42c0-3.59,1.8-5.34,5.51-5.34c3.72,0,5.53,1.75,5.53,5.34v2.42
			C158.11,21.5,156.3,23.25,152.58,23.25z M152.58,10.69c-3.38,0-4.96,1.52-4.96,4.79v2.42c0,3.32,1.53,4.79,4.96,4.79
			c3.4,0,4.98-1.52,4.98-4.79v-2.42C157.56,12.17,156.02,10.69,152.58,10.69z M152.58,22.01c-2.98,0-4.19-1.19-4.19-4.11v-2.42
			c0-2.92,1.21-4.11,4.19-4.11s4.19,1.19,4.19,4.11v2.42C156.77,20.82,155.55,22.01,152.58,22.01z M152.58,11.93
			c-2.69,0-3.64,0.93-3.64,3.56v2.42c0,2.63,0.95,3.56,3.64,3.56s3.64-0.93,3.64-3.56v-2.42C156.22,12.86,155.26,11.93,152.58,11.93
			z"/>
	</g>
	<g>
		<path class="st0" d="M160.56,6.1c0-0.47,0.13-0.59,0.61-0.59h0.13c0.49,0,0.62,0.12,0.62,0.59v13.57c0,1.31,0.46,1.95,1.38,1.95
			h0.31c0.49,0,0.59,0.07,0.59,0.49v0.1c0,0.42-0.1,0.54-0.59,0.62c-0.1,0.02-0.23,0.02-0.41,0.02c-1.56,0-2.64-0.89-2.64-3.03V6.1z
			"/>
	</g>
	<g>
		<path class="st0" d="M163.2,23.13c-1.88,0-2.91-1.17-2.91-3.3V6.1c0-0.62,0.25-0.86,0.89-0.86h0.13c0.64,0,0.89,0.24,0.89,0.86
			v13.57c0,1.5,0.63,1.67,1.11,1.67h0.31c0.56,0,0.86,0.12,0.86,0.77v0.1c0,0.56-0.21,0.79-0.82,0.89
			C163.54,23.13,163.39,23.13,163.2,23.13z M161.18,5.79c-0.34,0-0.34,0.01-0.34,0.32v13.72c0,1.83,0.79,2.75,2.36,2.75
			c0.16,0,0.27,0,0.35-0.02c0.38-0.06,0.38-0.07,0.38-0.35v-0.1c0-0.16-0.02-0.2-0.02-0.2c-0.01,0-0.06-0.02-0.29-0.02h-0.31
			c-0.76,0-1.66-0.39-1.66-2.22V6.1c0-0.31,0-0.32-0.34-0.32H161.18z"/>
	</g>
	<g>
		<path class="st0" d="M174.78,15.48c0-2.65-0.94-3.83-3.92-3.83c-2.95,0-3.92,1.19-3.92,3.83v2.42c0,2.64,0.97,3.83,3.92,3.83
			c2.98,0,3.92-1.19,3.92-3.83V15.48z M165.63,17.91v-2.42c0-3.26,1.54-5.07,5.23-5.07c3.77,0,5.26,1.78,5.26,5.07v2.42
			c0,3.26-1.51,5.07-5.26,5.07C167.1,22.97,165.63,21.19,165.63,17.91"/>
	</g>
	<g>
		<path class="st0" d="M170.86,23.25c-3.76,0-5.5-1.7-5.5-5.34v-2.42c0-3.59,1.8-5.34,5.5-5.34c3.72,0,5.53,1.75,5.53,5.34v2.42
			C176.39,21.5,174.59,23.25,170.86,23.25z M170.86,10.69c-3.38,0-4.96,1.52-4.96,4.79v2.42c0,3.32,1.53,4.79,4.96,4.79
			c3.4,0,4.98-1.52,4.98-4.79v-2.42C175.85,12.17,174.31,10.69,170.86,10.69z M170.86,22.01c-2.98,0-4.19-1.19-4.19-4.11v-2.42
			c0-2.92,1.21-4.11,4.19-4.11s4.19,1.19,4.19,4.11v2.42C175.06,20.82,173.84,22.01,170.86,22.01z M170.86,11.93
			c-2.69,0-3.64,0.93-3.64,3.56v2.42c0,2.63,0.95,3.56,3.64,3.56s3.64-0.93,3.64-3.56v-2.42C174.51,12.86,173.55,11.93,170.86,11.93
			z"/>
	</g>
	<g>
		<path class="st0" d="M187.04,14.58c0-1.99-1.21-2.98-3.64-2.98c-2.46,0-3.67,0.99-3.67,2.98v0.34c0,1.99,0.87,3,3.67,3
			c2.78,0,3.64-1.01,3.64-3V14.58z M180.8,22.17c-0.89,0.44-1.34,1.23-1.34,2.34c0,1.87,0.99,2.39,3.94,2.39
			c2.8,0,3.92-0.52,3.92-2.49c0-0.89-0.3-1.45-0.87-1.72c-0.57-0.27-1.59-0.39-3.05-0.39C182.43,22.29,181.57,22.24,180.8,22.17
			 M188.36,14.93c0,2.78-1.66,4.18-4.96,4.18c-1.46,0-2.43,0.07-2.9,0.2c-0.45,0.12-0.67,0.42-0.67,0.84c0,0.39,0.22,0.66,0.69,0.79
			c0.47,0.12,1.41,0.17,2.88,0.17c1.96,0,3.3,0.25,4.07,0.71c0.77,0.47,1.17,1.31,1.17,2.51c0,2.73-1.39,3.74-5.23,3.74
			c-3.94,0-5.26-1.11-5.26-3.47c0-1.25,0.49-2.17,1.46-2.76c-0.72-0.3-1.09-0.81-1.09-1.58c0-0.98,0.74-1.65,2.03-1.77
			c-1.44-0.52-2.16-1.7-2.16-3.57v-0.34c0-2.66,1.83-4.16,5.01-4.16c1.02,0,1.91,0.17,2.68,0.54l1.44-1.3
			c0.25-0.22,0.5-0.2,0.74,0.02l0.1,0.1c0.22,0.22,0.22,0.47,0,0.69l-1.24,1.18c0.82,0.64,1.24,1.62,1.24,2.93V14.93z"/>
	</g>
	<g>
		<path class="st0" d="M183.4,28.35c-3.93,0-5.53-1.08-5.53-3.75c0-1.17,0.41-2.08,1.21-2.72c-0.56-0.36-0.84-0.9-0.84-1.61
			c0-0.91,0.53-1.57,1.46-1.88c-1.05-0.67-1.59-1.83-1.59-3.46v-0.35c0-2.82,1.93-4.43,5.28-4.43c0.99,0,1.88,0.17,2.63,0.49
			l1.3-1.18c0.35-0.31,0.75-0.3,1.11,0.02l0.11,0.11c0.2,0.2,0.25,0.4,0.25,0.54c0,0.13-0.04,0.34-0.25,0.54l-1.03,0.98
			c0.73,0.69,1.11,1.68,1.11,2.94v0.35c0,2.03-0.91,4.46-5.23,4.46c-1.36,0-2.37,0.07-2.83,0.19c-0.32,0.09-0.46,0.27-0.46,0.57
			c0,0.18,0.06,0.41,0.49,0.52c0.42,0.11,1.32,0.16,2.81,0.16c2,0,3.37,0.25,4.21,0.75c0.86,0.52,1.3,1.45,1.3,2.75
			C188.91,27.22,187.36,28.35,183.4,28.35z M183.4,10.7c-3.05,0-4.73,1.38-4.73,3.88v0.35c0,1.75,0.65,2.83,1.97,3.31l1.15,0.41
			l-1.22,0.12c-1.13,0.11-1.79,0.66-1.79,1.5c0,0.64,0.29,1.06,0.92,1.32l0.5,0.21l-0.46,0.28c-0.9,0.55-1.33,1.37-1.33,2.52
			c0,1.97,0.83,3.2,4.98,3.2c3.66,0,4.96-0.91,4.96-3.47c0-1.09-0.35-1.86-1.03-2.28c-0.73-0.45-2.05-0.67-3.92-0.67
			c-1.56,0-2.47-0.06-2.95-0.18c-0.58-0.15-0.9-0.53-0.9-1.05c0-0.55,0.32-0.95,0.87-1.1c0.52-0.14,1.55-0.21,2.97-0.21
			c3.15,0,4.68-1.28,4.68-3.91v-0.35c0-1.21-0.38-2.12-1.13-2.71l-0.25-0.2l1.47-1.4c0.03-0.03,0.08-0.09,0.08-0.15
			c0-0.06-0.05-0.12-0.09-0.15l-0.1-0.1c-0.16-0.14-0.25-0.12-0.37-0.01l-1.57,1.43l-0.17-0.08C185.24,10.87,184.4,10.7,183.4,10.7z
			 M183.4,27.16c-2.73,0-4.22-0.42-4.22-2.66c0-1.22,0.5-2.09,1.49-2.58l0.07-0.04l0.08,0.01c0.85,0.08,1.71,0.12,2.58,0.12
			c1.54,0,2.57,0.14,3.17,0.42c0.68,0.32,1.03,0.99,1.03,1.97C187.59,26.71,186.05,27.16,183.4,27.16z M180.85,22.44
			c-0.75,0.4-1.12,1.08-1.12,2.06c0,1.49,0.51,2.11,3.67,2.11c2.79,0,3.64-0.52,3.64-2.21c0-0.77-0.23-1.25-0.71-1.47
			c-0.51-0.24-1.5-0.37-2.93-0.37C182.55,22.56,181.69,22.52,180.85,22.44z M183.4,18.21c-2.76,0-3.94-0.98-3.94-3.28v-0.35
			c0-2.16,1.33-3.25,3.94-3.25c2.6,0,3.92,1.09,3.92,3.25v0.35C187.32,17.23,186.15,18.21,183.4,18.21z M183.4,11.88
			c-2.32,0-3.4,0.86-3.4,2.7v0.35c0,1.68,0.57,2.73,3.4,2.73c2.81,0,3.37-1.04,3.37-2.73v-0.35
			C186.77,12.76,185.67,11.88,183.4,11.88z"/>
	</g>
	<g>
		<path class="st0" d="M191.24,11.27c0-0.47,0.13-0.59,0.64-0.59h0.13c0.51,0,0.64,0.12,0.64,0.59v10.89c0,0.47-0.13,0.59-0.64,0.59
			h-0.13c-0.51,0-0.64-0.12-0.64-0.59V11.27z M192.92,6.84c0,0.49-0.43,0.91-0.96,0.91c-0.56,0-1.01-0.42-1.01-0.91
			C190.87,5.66,193.06,5.66,192.92,6.84"/>
	</g>
	<g>
		<path class="st0" d="M192.01,23.03h-0.13c-0.66,0-0.92-0.24-0.92-0.87V11.27c0-0.62,0.26-0.86,0.92-0.86h0.13
			c0.66,0,0.92,0.24,0.92,0.86v10.89C192.93,22.79,192.67,23.03,192.01,23.03z M191.88,10.96c-0.37,0-0.37,0.01-0.37,0.32v10.89
			c0,0.3,0,0.32,0.37,0.32h0.13c0.37,0,0.37-0.01,0.37-0.32V11.27c0-0.3,0-0.32-0.37-0.32H191.88z M191.96,8.03
			c-0.71,0-1.29-0.53-1.29-1.19c-0.03-0.39,0.16-0.75,0.52-0.97c0.46-0.27,1.11-0.26,1.54,0.02c0.33,0.21,0.5,0.56,0.46,0.96
			C193.19,7.5,192.64,8.03,191.96,8.03z M191.95,6.23c-0.17,0-0.34,0.04-0.48,0.12c-0.18,0.11-0.27,0.27-0.25,0.47
			c0,0.36,0.34,0.66,0.74,0.66c0.37,0,0.69-0.29,0.69-0.64l0-0.03c0.02-0.2-0.05-0.35-0.21-0.45
			C192.31,6.27,192.13,6.23,191.95,6.23z"/>
	</g>
	<g>
		<path class="st0" d="M203.58,16.92h-3.05c-2.66,0-3.8,0.64-3.8,2.45c0,1.61,1.02,2.42,3.05,2.42c2.66,0,3.8-0.59,3.8-2.74V16.92z
			 M204.9,19.09c0,2.79-1.57,3.88-5.12,3.88c-2.48,0-4.37-1.11-4.37-3.61s1.61-3.54,5.07-3.54h3.1v-1.71c0-1.85-1.22-2.52-3.5-2.52
			c-1.17,0-2.16,0.12-2.98,0.35c-0.42,0.12-0.55,0.02-0.55-0.44v-0.17c0-0.42,0.12-0.54,0.55-0.64c0.77-0.17,1.74-0.27,2.9-0.27
			c3.25,0,4.89,1.24,4.89,3.71V19.09z"/>
	</g>
	<g>
		<path class="st0" d="M199.78,23.25c-2.91,0-4.64-1.45-4.64-3.88c0-2.6,1.7-3.81,5.34-3.81h2.83v-1.43c0-1.6-0.93-2.25-3.23-2.25
			c-1.11,0-2.09,0.11-2.91,0.34c-0.21,0.06-0.46,0.11-0.66-0.04c-0.2-0.15-0.23-0.42-0.23-0.67v-0.17c0-0.61,0.28-0.8,0.76-0.91
			c0.82-0.19,1.82-0.28,2.97-0.28c3.43,0,5.17,1.34,5.17,3.98v4.97C205.17,22.01,203.56,23.25,199.78,23.25z M200.48,16.1
			c-3.36,0-4.79,0.98-4.79,3.26c0,3.01,2.86,3.33,4.1,3.33c3.48,0,4.84-1.01,4.84-3.61v-4.97c0-2.31-1.51-3.43-4.62-3.43
			c-1.11,0-2.06,0.09-2.84,0.27c-0.32,0.08-0.33,0.11-0.33,0.38v0.17c0,0.14,0.01,0.2,0.02,0.23c0.01-0.01,0.07-0.02,0.18-0.05
			c0.87-0.24,1.9-0.36,3.06-0.36c1.62,0,3.78,0.29,3.78,2.79v1.98H200.48z M199.78,22.06c-2.75,0-3.33-1.47-3.33-2.7
			c0-2.39,1.96-2.72,4.07-2.72h3.33v2.4C203.86,21.56,202.3,22.06,199.78,22.06z M200.53,17.19c-2.94,0-3.53,0.83-3.53,2.17
			c0,1.45,0.91,2.15,2.78,2.15c2.67,0,3.53-0.6,3.53-2.47v-1.85H200.53z"/>
	</g>
	<g>
		<rect x="51.1" y="2.99" class="st0" width="1" height="22.26"/>
	</g>
</g>
</svg>
