<?xml version="1.0" encoding="utf-8"?>
<!-- Generator: Adobe Illustrator 23.1.0, SVG Export Plug-In . SVG Version: 6.00 Build 0)  -->
<svg version="1.1" id="Camada_1" xmlns="http://www.w3.org/2000/svg" xmlns:xlink="http://www.w3.org/1999/xlink" x="0px" y="0px"
	 viewBox="0 0 127.9 41.1" style="enable-background:new 0 0 127.9 41.1;" xml:space="preserve">
<style type="text/css">
	.st0{fill:#00AE4D;}
	.st1{fill:#B10069;}
	.st2{fill:#FDB913;}
	.st3{fill:#F26522;}
	.st4{fill:#0054A6;}
	.st5{fill:#0097DA;}
</style>
<g id="metanoia" transform="translate(741 -3.32)">
	<g id="Grupo_75" transform="translate(-741 3.32)">
		<path id="Caminho_15" class="st0" d="M56.2,21.6l3.4-5.5c0.4-0.8,1.1-1.3,1.9-1.4c0.8,0,1.2,0.3,1.1,1.2c0,0.2,0,0.3-0.1,0.5
			l-1.7,9.6h-2.2l1.5-8l0,0l-3.2,5.5c-0.2,0.6-0.8,1-1.4,1c-0.6,0-0.9-0.3-1-1L53.7,18l0,0l-2,8h-2.1l2.5-9.6
			c0.3-1.1,0.8-1.6,1.8-1.6c0.6,0,1.1,0.4,1.3,1.4L56.2,21.6z"/>
		<path id="Caminho_16" class="st0" d="M64.9,17.5c0.4-2.6,2.3-2.7,4.3-2.7c0.8,0,2.2,0,3,0.1l-0.3,1.8h-3c-1.3,0-1.6,0.3-1.8,1.5
			l-0.2,1.3h4.4l-0.3,1.8h-4.4l-0.2,1.5c0,0.2-0.1,0.4-0.1,0.7c0,0.7,0.3,0.9,1.4,0.9h3l-0.3,1.8c-0.8,0-2.3,0.1-3,0.1
			c-1.8,0-3.5-0.1-3.5-2c0-0.2,0-0.5,0.1-0.7L64.9,17.5z"/>
		<path id="Caminho_17" class="st0" d="M81.6,16.6h-2.7L77.4,26h-2.2l1.5-9.4h-2.7l0.3-1.8h7.7L81.6,16.6z"/>
		<path id="Caminho_18" class="st0" d="M79.8,26l4.8-9.8c0.5-1.1,1.2-1.6,2.1-1.6s1.4,0.5,1.5,1.6l1.7,9.8h-2.4l-0.4-2.8h-3.8L82,26
			H79.8L79.8,26z M86.8,21.5l-0.7-4.5l-2.1,4.5H86.8z"/>
		<path id="Caminho_19" class="st0" d="M98.9,23l1.3-8.2h2l-1.5,9.6c-0.2,1.2-0.8,1.7-1.6,1.7s-1.3-0.4-1.7-1.5L95,17.7L93.7,26h-2
			l1.5-9.6c0.2-1.2,0.8-1.7,1.6-1.7c0.8,0,1.3,0.4,1.7,1.5L98.9,23z"/>
		<path id="Caminho_20" class="st0" d="M103.2,22.7c0-0.8,0.1-1.5,0.2-2.3c0.6-4.1,1.9-5.7,5.3-5.7c2.7,0,3.7,1,3.7,3.4
			c0,0.8-0.1,1.5-0.2,2.3c-0.6,4.1-1.9,5.7-5.3,5.7C104.2,26.1,103.2,25.1,103.2,22.7z M105.5,22.5c0,1.1,0.4,1.7,1.7,1.7
			c2.1,0,2.4-1.6,2.8-3.9c0.1-0.7,0.2-1.4,0.2-2.1c0-1.1-0.4-1.8-1.7-1.8c-2.1,0-2.4,1.6-2.8,3.9C105.6,21.1,105.5,21.8,105.5,22.5
			L105.5,22.5z"/>
		<path id="Caminho_21" class="st0" d="M115.3,14.7h2.3L115.8,26h-2.2L115.3,14.7z"/>
		<path id="Caminho_22" class="st0" d="M117.8,26l4.8-9.8c0.5-1.1,1.2-1.6,2.1-1.6s1.4,0.5,1.5,1.6l1.7,9.8h-2.4l-0.4-2.8h-3.8
			l-1.3,2.8H117.8L117.8,26z M124.9,21.5l-0.7-4.5l-2.1,4.5H124.9L124.9,21.5z"/>
		<path id="Caminho_23" class="st0" d="M54.2,33.4h-0.7l0.6-3.9c0.4-0.1,0.8-0.1,1.3-0.1c0.8,0,1.4,0.1,1.4,0.9c0,0.1,0,0.2,0,0.3
			c-0.2,1-0.8,1.3-1.7,1.3h-0.6L54.2,33.4z M55.1,31.3c0.6,0,0.9-0.2,1-0.7c0-0.1,0-0.1,0-0.2c0-0.4-0.2-0.5-0.8-0.5
			c-0.2,0-0.4,0-0.6,0l-0.2,1.4C54.7,31.3,54.9,31.3,55.1,31.3L55.1,31.3z"/>
		<path id="Caminho_24" class="st0" d="M57.7,33.4H57l0.6-3.9c0.4-0.1,0.8-0.1,1.3-0.1c0.8,0,1.4,0.1,1.4,0.9c0,0.1,0,0.2,0,0.3
			c0,0.6-0.4,1.1-1,1.2l0.7,1.6h-0.8l-0.6-1.6h-0.6L57.7,33.4z M58.6,31.3c0.6,0,0.9-0.1,1-0.7c0-0.1,0-0.1,0-0.2
			c0-0.4-0.2-0.5-0.8-0.5c-0.2,0-0.4,0-0.6,0L58,31.2C58.2,31.3,58.4,31.3,58.6,31.3L58.6,31.3z"/>
		<path id="Caminho_25" class="st0" d="M60.9,31.4c0.2-1.5,0.7-2,1.9-2c0.9,0,1.3,0.4,1.3,1.2c0,0.3,0,0.6-0.1,0.8
			c-0.2,1.5-0.7,2-1.9,2c-0.9,0-1.3-0.4-1.3-1.2C60.8,31.9,60.8,31.6,60.9,31.4z M63.4,30.6c0.1-0.3-0.2-0.6-0.5-0.7
			c-0.1,0-0.1,0-0.2,0c-0.8,0-1,0.6-1.1,1.5c0,0.3-0.1,0.5-0.1,0.8c-0.1,0.3,0.2,0.6,0.5,0.7c0.1,0,0.1,0,0.2,0c0.8,0,1-0.6,1.1-1.5
			C63.3,31.1,63.4,30.8,63.4,30.6L63.4,30.6z"/>
		<path id="Caminho_26" class="st0" d="M65.3,33.4h-0.7l0.6-3.9c0.4-0.1,0.8-0.1,1.3-0.1c0.8,0,1.4,0.1,1.4,0.9c0,0.1,0,0.2,0,0.3
			c-0.2,1-0.8,1.3-1.7,1.3h-0.6L65.3,33.4z M66.2,31.3c0.6,0,0.9-0.2,1-0.7c0-0.1,0-0.1,0-0.2c0-0.4-0.2-0.5-0.8-0.5
			c-0.2,0-0.4,0-0.6,0l-0.2,1.4C65.8,31.3,66,31.3,66.2,31.3L66.2,31.3z"/>
		<path id="Caminho_27" class="st0" d="M68.3,31.4c0.2-1.5,0.7-2,1.9-2c0.9,0,1.3,0.4,1.3,1.2c0,0.3,0,0.6-0.1,0.8
			c-0.2,1.5-0.7,2-1.9,2c-0.9,0-1.3-0.4-1.3-1.2C68.2,31.9,68.3,31.6,68.3,31.4z M70.8,30.6c0.1-0.3-0.2-0.6-0.5-0.7
			c-0.1,0-0.1,0-0.2,0c-0.8,0-1,0.6-1.1,1.5c0,0.3-0.1,0.5-0.1,0.8c-0.1,0.3,0.2,0.6,0.5,0.7c0.1,0,0.1,0,0.2,0c0.8,0,1-0.6,1.1-1.5
			C70.8,31.1,70.8,30.8,70.8,30.6L70.8,30.6z M71.3,28.3L70.4,29h-0.5l0.7-0.7H71.3z"/>
		<path id="Caminho_28" class="st0" d="M73.7,31c0.6,0.2,0.9,0.4,0.9,0.9c0,0.1,0,0.2,0,0.3c-0.1,0.9-0.7,1.2-1.6,1.2
			c-0.4,0-0.7,0-1.1-0.1l0.2-0.6c0.3,0.1,0.7,0.1,1,0.1c0.4,0,0.8-0.1,0.8-0.6c0,0,0-0.1,0-0.1c0-0.3-0.3-0.4-0.6-0.5
			c-0.6-0.2-0.9-0.4-0.9-0.9c0-0.1,0-0.2,0-0.3c0.1-0.8,0.7-1.1,1.6-1.1c0.4,0,0.7,0,1.1,0.1l-0.1,0.5c-0.3,0-0.5-0.1-0.8-0.1
			c-0.3,0-0.9,0-0.9,0.5c0,0,0,0.1,0,0.1C73,30.8,73.3,30.9,73.7,31z"/>
		<path id="Caminho_29" class="st0" d="M76.5,29.4l-0.6,4h-0.7l0.6-4H76.5z"/>
		<path id="Caminho_30" class="st0" d="M76.9,29.9l0.1-0.6h2.7l-0.1,0.6h-1L78,33.4h-0.7l0.5-3.5H76.9z"/>
		<path id="Caminho_31" class="st0" d="M79.7,31.4c0.2-1.5,0.7-2,1.9-2c0.9,0,1.3,0.4,1.3,1.2c0,0.3,0,0.6-0.1,0.8
			c-0.2,1.5-0.7,2-1.9,2c-0.9,0-1.3-0.4-1.3-1.2C79.6,31.9,79.6,31.6,79.7,31.4z M82.2,30.6c0.1-0.3-0.2-0.6-0.5-0.7
			c-0.1,0-0.1,0-0.2,0c-0.8,0-1,0.6-1.1,1.5c0,0.3-0.1,0.5-0.1,0.8c-0.1,0.3,0.2,0.6,0.5,0.7c0.1,0,0.1,0,0.2,0c0.8,0,1-0.6,1.1-1.5
			C82.2,31.1,82.2,30.8,82.2,30.6L82.2,30.6z"/>
		<path id="Caminho_32" class="st0" d="M87.6,32.5l0.5-3.1h0.6l-0.6,3.5c0,0.3-0.2,0.5-0.5,0.5c0,0,0,0,0,0c-0.3,0-0.5-0.2-0.5-0.5
			l-1-2.7l-0.5,3.2H85l0.6-3.5c0-0.3,0.2-0.5,0.5-0.5c0,0,0,0,0,0c0.3,0,0.5,0.2,0.5,0.5L87.6,32.5z"/>
		<path id="Caminho_33" class="st0" d="M89.3,31.4c0.2-1.5,0.7-2,1.9-2c0.9,0,1.3,0.4,1.3,1.2c0,0.3,0,0.6-0.1,0.8
			c-0.2,1.5-0.7,2-1.9,2c-0.9,0-1.3-0.4-1.3-1.2C89.2,31.9,89.2,31.6,89.3,31.4z M91.8,30.6c0.1-0.3-0.2-0.6-0.5-0.7
			c-0.1,0-0.1,0-0.2,0c-0.8,0-1,0.6-1.1,1.5c0,0.3-0.1,0.5-0.1,0.8c-0.1,0.3,0.2,0.6,0.5,0.7c0.1,0,0.1,0,0.2,0c0.8,0,1-0.6,1.1-1.5
			C91.8,31.1,91.8,30.8,91.8,30.6L91.8,30.6z"/>
		<path id="Caminho_34" class="st0" d="M94.6,31c0.6,0.2,0.9,0.4,0.9,0.9c0,0.1,0,0.2,0,0.3c-0.1,0.9-0.7,1.2-1.6,1.2
			c-0.4,0-0.7,0-1.1-0.1l0.2-0.6c0.3,0.1,0.7,0.1,1,0.1c0.4,0,0.8-0.1,0.8-0.6c0,0,0-0.1,0-0.1c0-0.3-0.3-0.4-0.6-0.5
			c-0.6-0.2-0.9-0.4-0.9-0.9c0-0.1,0-0.2,0-0.3c0.1-0.8,0.7-1.1,1.6-1.1c0.4,0,0.7,0,1.1,0.1l-0.2,0.5c-0.3,0-0.5-0.1-0.8-0.1
			c-0.3,0-0.9,0-0.9,0.5c0,0,0,0.1,0,0.1C93.9,30.8,94.2,30.9,94.6,31z"/>
		<path id="Caminho_35" class="st0" d="M100.3,32.5l0.5-3.1h0.6l-0.6,3.5c0,0.3-0.2,0.5-0.5,0.5c0,0,0,0,0,0c-0.3,0-0.5-0.2-0.5-0.5
			l-1-2.7l-0.5,3.2h-0.6l0.6-3.5c0-0.3,0.2-0.5,0.5-0.5c0,0,0,0,0,0c0.3,0,0.5,0.2,0.5,0.5L100.3,32.5z"/>
		<path id="Caminho_36" class="st0" d="M104.3,32.8l-0.1,0.5c-0.3,0-0.8,0-1,0c-0.6,0-1.2,0-1.2-0.7c0-0.1,0-0.2,0-0.2l0.3-2.1
			c0.1-0.9,0.8-0.9,1.5-0.9c0.3,0,0.7,0,1,0l-0.1,0.5h-1c-0.5,0-0.7,0.1-0.7,0.6l-0.1,0.5h1.6l-0.1,0.5h-1.6l-0.1,0.6
			c0,0.1,0,0.2,0,0.3c0,0.3,0.1,0.3,0.6,0.3L104.3,32.8L104.3,32.8z"/>
		<path id="Caminho_37" class="st0" d="M108.2,30c-0.3,0-0.7-0.1-1-0.1c-1.1,0-1.2,0.6-1.3,1.5c0,0.2-0.1,0.5-0.1,0.7
			c0,0.5,0.2,0.8,0.9,0.8c0.5,0,0.5-0.1,0.5-0.4l0.1-0.8h-0.7l0.1-0.5h1.4l-0.2,1.5c-0.1,0.7-0.7,0.7-1.4,0.7c-1,0-1.4-0.4-1.4-1.2
			c0-0.3,0-0.5,0.1-0.8c0.2-1.4,0.6-2,1.9-2c0.4,0,0.8,0,1.2,0.1L108.2,30z"/>
		<path id="Caminho_38" class="st0" d="M108.9,31.4c0.2-1.5,0.7-2,1.9-2c0.9,0,1.3,0.4,1.3,1.2c0,0.3,0,0.6-0.1,0.8
			c-0.2,1.5-0.7,2-1.9,2c-0.9,0-1.3-0.4-1.3-1.2C108.9,31.9,108.9,31.6,108.9,31.4z M111.4,30.6c0.1-0.3-0.2-0.6-0.5-0.7
			c-0.1,0-0.1,0-0.2,0c-0.8,0-1,0.6-1.1,1.5c0,0.3-0.1,0.5-0.1,0.8c-0.1,0.3,0.2,0.6,0.5,0.7c0.1,0,0.1,0,0.2,0c0.8,0,1-0.6,1.1-1.5
			C111.4,31.1,111.4,30.8,111.4,30.6L111.4,30.6z M111.9,28.3L111,29h-0.5l0.7-0.7H111.9L111.9,28.3z"/>
		<path id="Caminho_39" class="st0" d="M114.8,29.9c-1.1,0-1.2,0.6-1.3,1.5c0,0.2-0.1,0.5-0.1,0.7c0,0.5,0.2,0.8,0.9,0.8
			c0.3,0,0.5,0,0.8-0.1v0.5c-0.3,0.1-0.7,0.1-1,0.1c-1,0-1.4-0.4-1.4-1.2c0-0.3,0-0.6,0.1-0.8c0.2-1.4,0.6-2,1.9-2
			c0.3,0,0.7,0,1,0.1l-0.1,0.5C115.4,29.9,115.1,29.9,114.8,29.9z"/>
		<path id="Caminho_40" class="st0" d="M117.2,29.4l-0.6,4h-0.7l0.6-4H117.2L117.2,29.4z"/>
		<path id="Caminho_41" class="st0" d="M117.8,31.4c0.2-1.5,0.7-2,1.9-2c0.9,0,1.3,0.4,1.3,1.2c0,0.3,0,0.6-0.1,0.8
			c-0.2,1.5-0.7,2-1.9,2c-0.9,0-1.3-0.4-1.3-1.2C117.7,31.9,117.7,31.6,117.8,31.4z M120.3,30.6c0.1-0.3-0.2-0.6-0.5-0.7
			c-0.1,0-0.1,0-0.2,0c-0.8,0-1,0.6-1.1,1.5c0,0.3-0.1,0.5-0.1,0.8c-0.1,0.3,0.2,0.6,0.5,0.7c0.1,0,0.1,0,0.2,0c0.8,0,1-0.6,1.1-1.5
			C120.2,31.1,120.3,30.8,120.3,30.6L120.3,30.6z"/>
		<path id="Caminho_42" class="st0" d="M123.1,31c0.6,0.2,0.9,0.4,0.9,0.9c0,0.1,0,0.2,0,0.3c-0.1,0.9-0.7,1.2-1.6,1.2
			c-0.4,0-0.7,0-1.1-0.1l0.2-0.6c0.3,0.1,0.7,0.1,1,0.1c0.4,0,0.8-0.1,0.8-0.6c0,0,0-0.1,0-0.1c0-0.3-0.3-0.4-0.6-0.5
			c-0.6-0.2-0.9-0.4-0.9-0.9c0-0.1,0-0.2,0-0.3c0.1-0.8,0.7-1.1,1.6-1.1c0.4,0,0.7,0,1.1,0.1l-0.2,0.5c-0.3,0-0.5-0.1-0.8-0.1
			c-0.3,0-0.9,0-0.9,0.5c0,0,0,0.1,0,0.1C122.4,30.8,122.7,30.9,123.1,31z"/>
		<path id="Caminho_43" class="st1" d="M32.4,34.5c-1.4,0.1-2.8-0.7-3.3-2.1c-0.6,0.4-0.8,1.3-0.3,1.9c0.2,0.2,0.4,0.4,0.6,0.5
			c0.7,0.3,1.4,0.4,2.1,0.3c1.1-0.1,2.1-0.5,2.9-1.2C33.8,34.2,33.1,34.4,32.4,34.5z"/>
		<path id="Caminho_44" class="st2" d="M23,12.5c-0.6,2.4-2.6,4.1-5.1,3.1c0.8,3.1,3.6,3.2,4.7,1.9c2-2.4,1.4-6.6,0.8-8.2
			C23.4,10.4,23.3,11.5,23,12.5z"/>
		<path id="Caminho_45" class="st3" d="M35.8,23.6c-2.3,1.9-5.4,2.8-7.9,0.3c-0.5,2.3,1.7,3.8,3.5,3.6c1.4-0.2,2.7-0.8,3.7-1.7
			c1.7-1.4,2.9-3.4,3.3-5.6C37.8,21.5,36.9,22.7,35.8,23.6z"/>
		<path id="Caminho_46" class="st1" d="M27.3,8.2c0.3,1.5-0.5,3-1.8,3.7c0.8,0.6,1.9,0.4,2.5-0.4c0.1-0.2,0.2-0.3,0.3-0.5
			c0.2-0.7,0.2-1.4,0-2.1c-0.3-1.1-1-2-1.9-2.6C26.7,6.8,27.1,7.5,27.3,8.2z"/>
		<path id="Caminho_47" class="st0" d="M17.1,38.9c-1.9-1.1-3-2.6-3-3.7c-1.8-0.2-1.5,0.8-0.7,1.7c0.7,0.7,1.5,1.3,2.4,1.7
			c1.3,0.7,2.7,1.3,4.2,1.5C18.9,39.8,18,39.4,17.1,38.9L17.1,38.9z"/>
		<path id="Caminho_48" class="st3" d="M11.1,8c1.5,0.3,2.5,1.7,2.2,3.2c0,0.1,0,0.1,0,0.2c0.9-0.3,1.5-1.3,1.1-2.3
			c-0.1-0.3-0.2-0.5-0.4-0.7c-0.5-0.5-1.2-0.8-1.9-0.9c-1.1-0.2-2.2,0-3.2,0.6C9.7,7.9,10.4,7.9,11.1,8L11.1,8z"/>
		<path id="Caminho_49" class="st2" d="M4,28.4c0.4-1.3,1.8-2.1,3.1-1.7c0,0,0.1,0,0.1,0c-0.2-0.9-1-1.4-1.9-1.3
			c-0.2,0-0.5,0.1-0.6,0.3c-0.5,0.4-0.8,1-1,1.6c-0.3,1-0.2,2,0.2,2.9C3.8,29.7,3.8,29,4,28.4L4,28.4z"/>
		<path id="Caminho_50" class="st4" d="M21.6,23.6c1,0.8,1.1,2.2,0.1,3.6c1,0.1,1.9-0.7,2-1.7c0-0.1,0-0.3,0-0.4
			c-0.2-0.6-0.5-1.1-1-1.5c-0.8-0.6-1.7-0.9-2.7-0.8C20.5,22.9,21.1,23.2,21.6,23.6L21.6,23.6z"/>
		<path id="Caminho_51" class="st5" d="M8.7,20.4c-1.6,0.9-2.2,3-1.3,4.6c0,0.1,0.1,0.1,0.1,0.2c-2.2-0.3-2.5-2.1-2-3.1
			c0.4-0.8,1.1-1.4,1.9-1.8c1.2-0.7,2.6-0.9,3.9-0.6C10.4,19.7,9.5,19.9,8.7,20.4z"/>
		<path id="Caminho_52" class="st5" d="M32.4,21.3L29.3,21l0,0c-1.8-0.3-3.2-1.7-3.5-3.5l-0.4-3.1L25,17.5c-0.3,1.8-1.7,3.2-3.5,3.5
			l0,0l-3.1,0.4l3.1,0.4l0,0c1.8,0.3,3.2,1.7,3.5,3.5l0.4,3.1l0.4-3.1c0.3-1.8,1.7-3.2,3.5-3.5l0,0L32.4,21.3z"/>
		<path id="Caminho_53" class="st1" d="M6,18.7l5.6-8.4l5.6,8.4L6,18.7z"/>
		<path id="Caminho_54" class="st3" d="M20.3,28.3l-2.3-5C17,21,14.2,20,11.9,21.1c-1.6,0.8-2.7,2.4-2.7,4.2v1.8
			c-0.1,3.9,2.9,7.1,6.8,7.2c0.1,0,0.1,0,0.2,0h3.2l-0.9-6H20.3z M13.9,25.4c-1.9,0-3.4-1.2-3.4-1.7s1.5-1.7,3.4-1.7
			s3.4,1.2,3.4,1.7S15.8,25.4,13.9,25.4L13.9,25.4z"/>
		<circle id="Elipse_2" class="st3" cx="13.9" cy="23.7" r="1.8"/>
		<path id="Caminho_55" class="st5" d="M17.8,1.6C22.5,2.1,27,4.3,29,8.4c2.2-1.1,1.3-4.7-1.8-6.5c-1.8-1.1-3.8-1.7-5.8-1.8
			C17.8-0.3,14.2,0.5,11,2.3C13.2,1.6,15.5,1.3,17.8,1.6z"/>
		<path id="Caminho_56" class="st3" d="M33.4,6.5c2.6,4,3.8,8.9,1.8,13.1c2.2,0.9,4.5-2,3.9-5.5c-0.3-2-1.1-4-2.3-5.7
			c-2-3-4.9-5.4-8.3-6.6C30.5,3,32.2,4.6,33.4,6.5z"/>
		<path id="Caminho_57" class="st4" d="M39.5,22c-1.5,4.6-4.6,8.5-9.1,9.6c0.6,2.3,4.4,2.2,6.7-0.4c1.4-1.5,2.4-3.4,3-5.3
			c1.1-3.5,1.1-7.2,0-10.6C40.4,17.5,40.2,19.8,39.5,22L39.5,22z"/>
		<path id="Caminho_58" class="st0" d="M31.4,36.3c-4.5,1.7-9.5,1.8-13.2-0.9c-1.4,2,1.1,4.8,4.6,4.9c2.1,0.1,4.1-0.2,6-1.1
			c3.4-1.3,6.3-3.7,8.2-6.8C35.4,34.2,33.5,35.4,31.4,36.3z"/>
		<path id="Caminho_59" class="st1" d="M14.4,38.8c-4.1-2.5-7.2-6.5-7.2-11.1C4.8,27.8,4,31.5,6,34.4c1.2,1.7,2.7,3.2,4.5,4.2
			c3.1,1.9,6.7,2.8,10.3,2.5C18.5,40.8,16.3,40,14.4,38.8z"/>
		<path id="Caminho_60" class="st2" d="M2.4,27.4C1.8,22.6,3,17.7,6.5,14.8C5,13,1.6,14.7,0.6,18c-0.6,2-0.8,4.1-0.5,6.1
			c0.4,3.6,2,7,4.5,9.6C3.5,31.8,2.7,29.6,2.4,27.4L2.4,27.4z"/>
		<path id="Caminho_61" class="st0" d="M3.7,11C7,7.5,11.5,5.3,16,6.2c0.4-2.4-3-3.9-6.2-2.6c-1.9,0.8-3.6,2-5,3.5
			c-2.5,2.6-4.1,6-4.6,9.6C0.9,14.6,2.1,12.6,3.7,11z"/>
		<path id="Caminho_62" class="st4" d="M24.6,5l-7-0.5l1.5,1.4c-3.2,1.7-4.7,5.5-3.4,8.9c-0.3-3,1.8-5.6,4.7-6.1v2.2L24.6,5z"/>
		<path id="Caminho_63" class="st0" d="M34.4,14.8c0,3.2-1.7,4.8-4.1,4.6c-2.2-0.2-3.3-2.6-2.4-4.8c1.1-2.5,4.3-2.8,3.9-7.4
			C33.5,9.3,34.5,12,34.4,14.8z"/>
		<path id="Caminho_64" class="st2" d="M27.9,30.9h-7.4l1.7-1.5h4.1L27.9,30.9z M20.5,31.3l3.7,4.2l3.7-4.2H20.5L20.5,31.3z"/>
	</g>
</g>
</svg>
