<?xml version="1.0" encoding="utf-8"?>
<!-- Generator: Adobe Illustrator 23.1.0, SVG Export Plug-In . SVG Version: 6.00 Build 0)  -->
<svg version="1.1" id="Camada_1" xmlns="http://www.w3.org/2000/svg" xmlns:xlink="http://www.w3.org/1999/xlink" x="0px" y="0px"
	 viewBox="0 0 565.37 713.66" style="enable-background:new 0 0 565.37 713.66;" xml:space="preserve">
<style type="text/css">
	.st0{fill:none;}
	.st1{fill:#F7F7F8;}
</style>
<g>
	<path class="st0" d="M293.03,231.05l2.82,0.27C295.14,231.12,294.16,231.1,293.03,231.05z"/>
	<path class="st0" d="M198.15,648.41c-3.11-0.77-6.7-0.75-10.26-0.38c-4.6,0.48-7.96,1-11.59,1.6c-0.52,0.1-0.39,1.35,0.07,1.53
		l0.83,0c2.02,0.01,2.19,0.82,2.62,4.94l1.6,15.36c0.41,3.98,0.19,4.35-1.73,4.86l-1.32,0.36c-0.33,0.27-0.22,1.31,0.16,1.53
		c2.46-0.35,4.67-0.62,6.75-0.84c1.56-0.16,3.76-0.12,5.8-0.33c4.47-0.46,7.97-1.4,10.76-3.18c4.73-2.99,7.02-7.97,6.41-13.78
		C207.7,654.65,204.04,649.86,198.15,648.41z M192.57,674.87c-1.56,0.16-2.86-0.1-3.73-0.89c-0.88-0.83-1.13-2.38-1.37-4.77
		l-1.65-15.84c-0.14-1.34-0.18-2.17,0.04-2.54c0.22-0.38,1.03-0.68,2.2-0.8c7.85-0.82,12.46,3.39,13.27,11.2
		C201.94,667.13,200.08,674.08,192.57,674.87z"/>
	<path class="st0" d="M276.76,230.1l-0.11,0.02c0.14,0.77,0.33,1.24,0.61,1.54C277.12,231.12,276.95,230.6,276.76,230.1z"/>
	<path class="st0" d="M238.97,661.57c-2.01-0.85-2.88-1.63-2.94-2.64c-0.06-1.17,0.81-1.96,2.08-2.03c1.44-0.08,2.57,0.78,3.58,3.26
		c0.28,0.29,1.37,0.23,1.52-0.26c-0.09-1.65-0.4-3.39-0.89-4.32c-0.5-0.32-2.49-0.78-4.71-0.66c-3.75,0.2-6.83,2.2-6.62,5.99
		c0.14,2.61,2.1,4.08,4.78,5.24c1.52,0.66,2.96,1.5,3.05,3.11c0.08,1.48-0.84,2.32-2.14,2.39c-2.22,0.12-4.01-2.36-4.68-4.12
		c-0.28-0.38-1.24-0.28-1.48,0.17c0.02,1.97,0.44,4.04,0.96,4.89c1.23,0.85,2.99,1.19,5.47,1.06c4.09-0.22,7.3-2.36,7.13-6.24
		C243.94,664.58,242.01,662.85,238.97,661.57z"/>
	<path class="st0" d="M228.01,668.19c-1.03,2.08-2.67,2.46-3.89,2.55c-4.05,0.29-6.36-2.74-6.59-6.01
		c-0.05-0.69,0.03-0.79,1.03-0.86l8.35-0.59c1.35-0.1,1.52-0.72,1.46-1.55c-0.24-3.35-2.88-6.09-7.41-5.77
		c-5.44,0.38-9.09,4.93-8.71,10.41c0.34,4.74,3.8,8.65,9.68,8.24c2.61-0.19,5.74-1.68,7.26-5.5
		C229.16,668.37,228.48,668.07,228.01,668.19z M220.81,657.98c1.48-0.11,2.37,0.79,2.48,2.23c0.03,0.44-0.03,0.88-0.24,1.02
		c-0.46,0.34-1.15,0.48-1.75,0.52l-1.61,0.12c-1.39,0.1-2.01,0.1-2.05-0.51C217.54,659.96,218.98,658.11,220.81,657.98z"/>
	<path class="st0" d="M369.86,655.36c1.2-1.71,1.67-1.96,4.18-1.68l9.19,1.03c0.65,0.07,1.24,0.27,1.18,0.84
		c-0.08,0.74-0.67,1.68-1.81,3.26l-13.63,18.52c-0.02,0.97,1.18,1.63,1.93,1.58l14.97-20.7c2.18-3,3.83-5.19,5.09-6.67
		c0.07-0.25-0.02-0.62-0.31-0.74c-0.57,0.02-3.57-0.27-6.3-0.58l-8.32-0.93c-2.73-0.31-3.77-0.47-5.19-0.72
		c-0.58,1.6-1.45,4.27-2.42,6.31C368.54,655.39,369.47,655.71,369.86,655.36z"/>
	<path class="st0" d="M322.32,675.29c3.67,0.07,9.6-2.19,13.39-5.35c3.89-3.19,6.44-7.65,6.73-12.92c0.33-6.05-3.1-11.39-9.76-11.75
		c-5.4-0.29-9.88,3.44-10.18,9.02c-0.24,4.4,2.89,7.93,6.99,8.15c1.79,0.1,3.6-0.37,4.39-1.12c0.06-0.35,0-0.78-0.21-0.93
		c-0.39-0.02-0.65-0.04-1.21-0.15c-2.93-0.68-4.17-4.51-3.97-8.08c0.14-2.61,1.45-5.03,3.5-4.92c3.66,0.2,4.28,6.56,4.1,9.88
		c-0.43,8.01-5.23,15.09-13.83,16.73C321.82,674.12,321.81,675.04,322.32,675.29z"/>
	<path class="st0" d="M345.03,676.89c3.66,0.23,8.25-0.2,12.03-1.84c3.78-1.64,6.68-4.32,7.08-8.84c0.31-3.61-1.65-6.23-3.97-7.66
		c-2.41-1.48-6.4-2.44-8.68-2.91c-0.86-0.16-1.41-0.39-1.06-1.36l0.35-0.97c0.24-0.72,0.49-1.14,1.11-1.17l9.92-0.23
		c1.18-0.95,2.25-2.65,2.78-4.27c0.03-0.3-0.08-0.53-0.43-0.56l-11.64,0.38c-1.41,0.05-1.67,0.03-2.07,1.13l-3.48,9.77
		c-0.35,0.98-0.21,1.38,1.17,1.59c4.32,0.73,10.78,1.95,10.23,8.16c-0.21,2.35-1.86,4.22-4.55,5.52c-2.15,1.04-5.72,1.34-8.86,1.19
		C344.34,675.17,344.4,676.53,345.03,676.89z"/>
	<path class="st0" d="M266.66,669.88c-0.83,0.02-1.03-0.97-1.15-5.07L265,647.46c-0.08-2.75-0.09-4.58-0.05-6.37
		c-0.18-0.21-0.45-0.29-0.75-0.28c-2.11,1.02-4.74,2.14-6.6,2.64c-0.3,0.27-0.32,1.06,0.04,1.31l0.75,0.42
		c0.89,0.5,0.9,0.98,0.95,2.72l0.16,5.58c0.01,0.35-0.11,0.7-0.41,0.84c-0.48-0.12-1.53-0.17-2.49-0.15
		c-5.76,0.17-10.26,4.23-10.08,10.37c0.14,4.71,3.61,8.49,8.58,8.35c1.61-0.05,3.16-1.01,4.66-2.01c0.17-0.14,0.35-0.01,0.4,0.34
		l-0.09,1.36c0.1,0.35,0.45,0.6,0.76,0.59c0.13,0,3.49-1.41,7.8-1.8c0.42-0.41,0.39-1.49-0.1-1.87
		C267.79,669.76,267.44,669.86,266.66,669.88z M259.44,669.31c-0.56,0.36-1.16,0.56-1.77,0.57c-3.57,0.1-5-3.83-5.08-6.7
		c-0.13-4.58,1.98-6.95,4.2-7.02c1-0.03,1.98,0.64,2.53,1.54c0.19,0.34,0.33,0.77,0.35,1.47l0.25,8.46
		C259.94,668.42,259.91,668.99,259.44,669.31z"/>
	<path class="st0" d="M293.4,339.89c0.01,1.32,0.42,1.4,1.43,1.81c0.79,0.32,1.59,0.5,2.45,0.6c4.16,0.46,6.99,0.23,10.72-1.52
		c0.6-0.28,1.98-0.7,2.29-1.02c0.32-0.34,0.16-0.28,0.31-0.65l0.08-0.2c0.2-0.49,0.37-0.01,0.19-1.02
		c-1.15-0.37-2.16,0.17-3.36,0.02c-2.34-1.92-1.02-3.38-1.73-6.11c-1.38-0.12-6.02,0.33-7.57,0.56c-2.2,0.33-5.16,0.21-7.39-0.13
		c-2.72-0.42-5.04-0.13-7.73-0.42c-0.9-0.09-2.97-0.57-3.45-0.56c-0.89,0.01-2.07,0.81-2.03,1.69c0.22,0.13-0.27,1.42,1.89,2.14
		c1.91,0.63,6.65,0.89,7.27,1l8.03,0.29c0.59,0.16,1.43,0.36,1.77,0.83C295.85,339.08,294.61,338.77,293.4,339.89z"/>
	<path class="st0" d="M403.82,221.39c-2.24,0.89-3.36,7.03-3.82,9.37c-0.38,1.92-0.92,3.5-1.34,5.23c-0.41,1.7-0.53,4-0.99,5.58
		c-0.79,2.71-0.7,4.86-1.76,8.06c-0.27,0.8-0.24,0.32-0.32,1.18l-0.02,0.39c-0.01,0.03-0.02,0.08-0.03,0.12
		c-0.12,0.39-0.19,0.22-0.25,0.59c-0.27,1.59,1.45-0.06,0.32,4.02l-0.05,0.53c0.5-0.3,1.1-1.93,1.39-2.65
		c0.29-0.7,0.18-0.33,0.49-0.87c0.67-1.18,2.93-6.57,3.26-7.97c0.46-1.92,0.43-2.68,1.19-4.42c0.34-0.76,0.5-0.98,0.79-1.94
		c1.09-3.67,4.94-11.02,4.89-14.69C405.77,222.46,405.26,220.82,403.82,221.39z"/>
	<path class="st0" d="M233.45,227.68c-0.05-0.23-0.09-0.49-0.09-0.76c0.89-0.06,1.79,0,2.68,0.15c0.55-0.01,1.05,0,1.43-0.17
		c-0.53-0.56-5.14-1-5.41-0.92c0.08,0.83,0.22,1.4,0.71,1.94C233.02,227.84,233.24,227.76,233.45,227.68z"/>
	<path class="st0" d="M394.01,250.7c-1.18-1.06-0.77-0.25-1.83-0.78c-0.04-1.39,0.18-1.39,0.32-2.13c0.01-0.07,0.03-0.2,0.04-0.27
		c0.01-0.26,0-0.25-0.06-0.4c-0.83,0.25-2.03,3.48-2.31,4.57c-0.33,1.3-0.1-0.36-1,1.7c-0.36,0.83-1.59,3.87-0.95,4.65
		c0.77-0.58,0.19-0.23,0.49-0.69c0.64-0.96,0.11,0.2,0.95-1.36c0.43-0.8-0.05-0.11,0.67-0.69c1.75-1.42,0.63-3.53,3.08-3.35
		C394.34,252.03,395.86,252.36,394.01,250.7z"/>
	<path class="st0" d="M384.34,303.9c-0.1,1.18-0.25,1.41-0.44,2.41c2.06-0.36,1.77-3.63,1.21-4.34
		C384.31,302.26,384.43,302.87,384.34,303.9z"/>
	<path class="st0" d="M386.35,273.39c-0.55,0.91-0.21,6.42,1.69,5.23c0.37-0.23,2.53-3.79,2.37-5.38
		C389.34,272.73,386.92,272.45,386.35,273.39z"/>
	<path class="st0" d="M325.01,233.76c-0.18,1.17,0.27,1.35,0.76,1.16v-0.02c0-0.35,0.3-0.65,0.74-0.78
		C326.09,233.68,325.92,233.44,325.01,233.76z"/>
	<path class="st0" d="M329.96,231.07c0.71,0.01,3.11,0.13,5.57,0.29c5.94,0.31,11.88,0.75,17.82,1.29c5.57,0.61,8.21,2.11,9.57,4.14
		c-0.25-0.92-0.61-1.81-1.07-2.5c-0.4-0.61-1.14-1.2-1.79-1.5l-10.76-2.04c-4.78-0.53-16.5-1.47-22.1-1.65
		c-1.19-0.01-2.35-0.01-3.46-0.01c-3.06,0.09-6.48,0.35-9.33,0.21c-3.53,0.14-6.6,0.31-9.33,0.44c-3.04,0.52-4.43,2.08-5.01,4.5
		c1.13-2.29,3.22-3.06,6.04-3.33c1.64-0.16,10.9-0.44,12.08-0.21c0.29,0.06,0.59,0.11,0.88,0.16c3.31,0.02,6.63,0.09,9.94,0.21
		C329.34,231.07,329.65,231.07,329.96,231.07z"/>
	<path class="st0" d="M308.75,295.13c0.11,0.67,0.15,1.26,0.13,1.83c0.6-2.2,0.4-4.66-0.67-6.84
		C309.19,294.07,308.33,292.65,308.75,295.13z"/>
	<path class="st0" d="M400.41,155.66c0.04-2.06-0.71-8.39,0.54-9.53c0.64-0.58,1.07-0.23,0.92-1.53c-0.13-1.16-0.45-1.18-0.27-2.55
		c0.48-3.73,0.04-1.59,1.74-3.84c-0.23-0.5-0.59-1.12-0.96-1.74c-0.38-0.63-0.68-0.83-1.15-1.53c-0.33-0.49-1.5-2.93-1.76-3.58
		c-0.24-0.61-0.39-1.43-0.61-2.08c-0.25-0.72-0.43-1.06-0.71-1.94c-0.8-2.49,0.33-2.26,0.76-4.11c-1.23-2.59-1.65-2.59-1.79-5.88
		c-0.04-0.88,0-2.78-0.29-3.49c-0.18-0.44-1.15-1.97-1.48-2.53c-1.62-0.31-3.11-0.21-3.79-1.42c-0.49-0.87-1.04-2.98-1.39-3.94
		c-0.42-1.14-0.24-0.83-1.33-1.35c-0.65-0.31-1.21-0.63-1.69-1c-1-0.76-2.49-1.36-3.33-2.05c-1.59-1.3-0.58-2.19,0.22-3.49
		c0.58-0.94,0.28-0.95-0.05-1.99c-1.02-3.21-1.06-2.63-2.98-5.04c-0.85-1.06-1.38-2.06-2.27-3.08c-1.75-2.01-5.5-4.65-6.2-7.2
		c-0.28-0.99,0.37-1.24-0.25-2.01c-0.8-1-6.8-5.02-7.97-5.47c-0.88-0.35-0.99-0.45-1.98-0.69c-1.92-0.47-0.72-0.75-3.99-1.41
		c-1.01-0.2-2.46-1.19-3.21-2.03c-0.02-0.02-0.06-0.08-0.1-0.11c0.09-0.23,0.12-0.35,0.14-0.41c-0.54,0.08-0.5-0.02-0.56,0.22
		l-1.6-1.21l-15.16-8.18c-1.35-0.6-2.58-1.12-3.19-1.33l-5.68-1.23c-1.46-0.1-3.39-0.46-5.52-0.93l-18.37-2.99l-30.03,0.67
		c-1.74,0.14-3.45,0.31-5.12,0.51c-0.82,0.1-1.67,0.17-2.53,0.25l-4.72,1.29l-7.46,5.12l-5.64-1.12c-1.54-0.12-3.34,0.03-5.44,0.9
		c-1.65,0.69-6.83,2.03-10.38,2.88l-8.59,2.53c-1.85,0.74-3.68,1.55-5.22,2.18c0,0-2.75,0.86-3.65,1.35
		c-1.97,1.06-3.68,2.16-5.78,2.87c-1.41,0.47-0.18,0.34-1.28,1.02c-0.54,0.33-1,0.45-1.44,0.69c-1.89,1.01-3.47,2.33-5.02,3.61
		c-0.4,0.33-0.8,0.55-1.24,0.87c-0.6,0.43-0.55,0.62-1.04,1.06L198,81.59c-0.63,0.52-0.52,0.5-1.02,1.08
		c-0.48,0.56-0.67,0.44-1.17,0.95l-8.27,8.96c-0.35,0.48-0.57,0.69-0.85,1.25c-0.47,0.93-0.33,0.58-0.85,1.25
		c-0.35,0.46-0.78,1.09-1.32,1.55c0.07-0.03,0.15-0.07,0.21-0.11l-0.33,0.39l-0.1-0.13l-0.16,0.1l-0.52,0.93l0,0.01
		c-17.57,31.2-28.31,66.65-26.63,103.42c0.19,0.07,0.42,0.15,0.73,0.22c3.16,0.72,3.07-0.68,4.47,3.31c0.33,0.94,0.42,1.67,0.8,2.5
		c0.34,0.74,0.5,1.52,0.73,2.34c1.02,3.65,0.82,4.78,1.18,6.39c0.26,1.16,0.1,2.56,0.1,3.79l-0.5,5.56
		c-0.05,1.09-0.21,1.75-0.41,2.78c-0.23,1.19,0.1,0.78,0.03,1.41c0,0.04-0.02,0.09-0.03,0.12c-0.19,0.95,0.13,1.1-0.02,2.22
		c-0.18,1.34-0.32,3.12-0.21,4.54c0.3,0.17,0.43,0.19,0.74,0.34c-0.39,0.36-0.35,0.46-0.59,1.14l-0.52,3.7
		c-0.28,4.62,2.81,14.68,2.82,15.57c-0.98-0.61-2.24-5.95-2.49-7.2c-0.14-0.71-0.48-1.72-1.19-1.91c0.14,1.29,0.16,2.62,0.11,4.33
		c-0.08,2.51,0.65,5.93,1.12,8.21c0.28,1.36,0.77,2.28,1.01,3.66c0.45,2.58,1.15,5.79,1.45,8.56l0.92,1.97
		c0.27,0.53,0.37,0.93,0.88,1.09c0.59-1.23-0.29-6.78-0.46-8.52c-0.13-1.34-0.49-2.54-0.84-3.72c-0.94-3.15-0.44-5.66,1.77-2.19
		c0.43,0.67,0.71,1.76,1.46,2.1c0.5-0.42,0.66-1.19,0.6-1.81c-0.05-0.55-0.39-1.37-0.6-1.77l-1.55-3.11
		c-2.22-4.56-2.7-10.7-2.7-15.85c0-1.7,0.45-5.28,0.08-6.64c-0.18-0.64-0.18-1.08,0.5-1.24c0.84,1.36,0.44,6.03,1.35,7.73
		c1.33-0.77,0.17-2.68,0.97-3.71c0.94,0.95,0.39,2.35,0.77,3.84l0.77,3.63c0.48-0.1,0.22,0.46,0.52-0.56
		c0.3-1.03-0.02-1.91,0.48-2.97c0.54,0.14,0.89,0.41,1.08,0.99c0.11,0.32,0.1,0.6,0.2,0.94l0.58,3.47c0.05,0.21,0.07,0.29,0.13,0.48
		l0.12,0.3c0.61-0.64,0.81-2.36,0.92-3.21c0.19-1.49,0.46-1.61,0.73-3.31c0.77-4.93,0.76-9.89,1.21-14.9
		c0.11-1.17,0.36-2.38,0.42-3.58c0.06-1.22-0.15-2.7,0.11-3.76c0.74,0.8,0.39,4.35,0.21,5.27c-0.4,2.11-1.18,16.16-1.52,19.96
		c-0.48,5.32-1.99,18.07-3.57,23.1c-0.51,1.62-0.57,2.82-0.84,4.61c-0.13,0.89,0.06,1.28-0.09,2.18c-0.14,0.8-0.46,1.29-0.6,1.9
		c-0.18,0.84-0.33,1.57-0.43,2.22c-0.84,17.23,1.14,32.96,6.71,46.13c0.1,0.21,0.21,0.43,0.32,0.65c0.64,1.39,1.24,2.03,1.92,3.29
		c0.56,1.02,1.26,2.48,1.98,3.43l2.48,2.76c1.8,1.86,3.28,3.79,5.12,5.51c1.02,0.95,1.71,1.45,3.03,2.39
		c4.07,2.88,8.12-1.18,8.66-2.91c0.17-0.54,0.12-0.59,0.16-1.22c0.19-3.02,2.59,0.24,3.56,1.25c0.62,0.63,2.72,2.11,3.94,2.44
		c1.78,0.48,3.76,0.11,5.05-0.99c0.73-0.63,1.05-0.59,1.85-1.44c0.93-0.98,2.15-2.37,2.7-3.69c0.88-2.12,1.73-5.97,0.83-8.21
		c-1.43-3.54-2.6-11.86-5.2-7.58c-0.35,0.58-0.58,1.25-1.15,1.7c-3.28-0.56-1.39-3.14-1.49-5.94c-0.07-1.94-2.93-4.5-4.04-6.84
		c-1.87-3.99,0.11-3.28-3.94-4.6c-0.96-0.32-1.59,0.15-2.22,0.73c-1.34,1.23-3.86-0.75-4.3-1.24c0.26-0.85,0.22-2.26,0.44-3.34
		c0.22-1.09,1.02-1.44,1.38-2.5c-2.21-1.57-2.85-0.75-4.71,0.48c-0.45,0.29-1.65,1.16-1.99,1.49c-0.4,0.4-0.35,0.61-0.78,0.97
		c-0.95,0.79-1.1,0.12-1.14,0.07c-0.77-0.88,0.31-5.39,0.94-6.09c2.37-2.65,4.86-5.2,7.91-6.99c0.25-0.15,0.37-0.2,0.61-0.37
		c0.1-0.07,0.54-0.4,0.54-0.4c0.89-0.42,3.27,0.59,4.11,0.92c0.1,2.15-1.32,2.98-1.65,4.56c2.13,0.32,3.08-1.46,5.11-2.77l1.17-0.96
		c0.59-0.59,0.49-0.31,1.27-0.66c0.71-0.32,1.93-1.1,2.82-1.27c2.79-0.55,4.21,2.19,5.22,2.87c1.07,0.71,2.15-0.2,3.06-0.56
		c0.99-0.39,2.12-0.67,3.12-0.96c1.09-0.31,2.3-0.41,3.3-0.75c3.41-1.17,1.49-1.17,3.02-3.18c0.31-0.41,0.48-0.63,0.7-1.23
		c1.12-3.08,6.53-5.88,9.27-6.98c1.28-0.51,1.38-1.19,1.05-2.76c-1.6-1.45-4.95-0.85-7.29-0.71c-2.71,0.17-4.71,0.93-6.69-1.12
		c-1.02-1.06-0.67-1.17-2.36-1.9c-1.82-0.79-4.18-1.64-4.92-3.61c-0.52-1.38-1.38-1.33-1.27-2.86c0.92-0.03,2.14,0.88,3.09,1.24
		c5.04,1.93,12.87,2.92,18.18,3.44c1.43,0.14,2.57,0.3,4.03,0.24c1.29-0.06,2.31,0.14,3.67,0.16c5.81,0.11,9.51-1.47,13.66-3.7
		c2.93-1.57,4.55-4.09,6.45-6.51c0.52-0.67,0.91-2.1,1.99-2.38c-0.37,1.54-1.23,2.62-1.61,4.16c0.97-0.19,1.08-0.82,1.64-1.7
		c1.22-1.9,2.65-3.99,3.42-6.24c-0.3-0.34,0.06,0.04-0.32-0.25c-0.47-0.36-1.14-1.54-1.4-1.65c-1.31,0-1.1,0.76-2.02,0.61
		c-1.59-0.26-0.61-0.65-2.24,0.18c-0.36-0.46-0.64-1.04-0.44-1.66c0.21-0.67,0.51-0.63,0.97-1.09c-0.09-3.43,1-2.17,2.18-3.89
		c0.02-0.03,0.05-0.09,0.07-0.12c1.01-1.47,2.75,0.25,2.95,0.91c-0.1,1.24-0.57,2.25-0.51,3.1c0.07,0.99,0.3,1.97,1.17,2.17
		c1.33-0.93,2.82-11.09,2.79-12.04c-0.1-2.88,0.47-3.75-0.6-6.46c-1.61-4.09-5.51-4.26-9.08-5.47c-3.18-1.07-8.78-1.58-12.34-2.14
		c-5.7-0.89-14.56-1.49-20.26-1.27c-4.55,0.18-8.83-1.07-13.35-1.06c-2.68,0-7.61-0.47-9.82,1.17c-2.89,2.14-4.04,6.64-4.14,10.19
		c-0.05,1.82-1,0.7-1.75,0.45l-0.03-1.36c-1.18-0.46-2.59-0.69-4.07-0.94c-0.9-0.15-1.38-0.12-2.24-0.21
		c-0.85-0.08-1.23-0.34-2.19-0.39c0.34-0.67,0.4-0.78,0.39-0.89c-0.61-0.2-1.2-0.41-1.77-0.61l-0.11,0.48
		c-0.46-0.08-9.18-4.65-9.67-5.04c0.22-0.12-0.26-0.3,0.26-0.18c-0.25-0.18-0.48-0.35-0.71-0.53c-1.81-0.34-2.04-1.19-2.4-1.46
		c-0.85-0.63-1.95-0.65-2.39-1.72c-0.26-0.63-0.09-0.85-0.15-1.07l-0.95-1.27c-0.02-0.03-0.06-0.07-0.08-0.11
		c-0.03-0.03-0.07-0.07-0.09-0.11c-0.51-0.66-0.31-0.78-0.39-1.03c-0.15-0.5-0.43-0.51-0.64-1.2c0.7,0.14,0.73,0.26,1.1,0.83
		c0.41,0.64,0.71,1.12,0.98,1.53c-0.45-0.81-0.79-1.62-1.06-2.43c3.85,5.7,9.07,9,14.82,11.34c0.36,0.12,0.66,0.21,0.94,0.37
		c1.82,0.7,3.69,1.32,5.58,1.89c0.13,0.01,0.27,0.04,0.43,0.07c0.6,0.12,1.27,0.4,1.81,0.39c1.24-0.02,0.45-0.45,1.68-0.32
		l0.05,0.99l0.98,0.06c0.84-1.49,1-5.35,2.04-6.69c2.47-3.17,5.26-3.78,9.65-3.63c0.55-0.02,1.1-0.03,1.64-0.04h0l0.01,0
		c0.47-0.04,0.93-0.08,1.36-0.08c0.44,0,0.93,0.05,1.43,0.1c1.51,0.03,3.16,0.08,4.9,0.15c4.15,0.01,8.37-0.11,12.5,0.01
		c-0.29-0.63-1.37-1.62-2.18-2.23c-2.83-2.14-3.52-1.58-6.1-2.41c-1.08-0.34-2.47-0.4-3.7-0.57c-2.67-0.36-1.37-1.55-6.66-1.83
		c-2.58-0.13-5.18-0.4-7.76-0.67c0.53-2.01,1.71-1.69,3.59-1.38c1.87,0.3,3.29,0.09,5.14,0.12c2.06,0.03,3.09-0.33,4.35,0.84
		c0.66,0.62,0.58,1,1.53,1.2c0.9,0.19,1.33-0.05,1.75-0.72c-0.56-0.78-1.59-1.43-2.49-1.84c-1.1-0.51-2.53-0.35-2.35-1.76
		c1.63-0.97,7.09,1.49,9.44,1.81c1.03,0.14,1.76,0.32,2.68,0.42c0.77,0.08,2.02-0.08,2.67,0.29c1.13,0.62,2.84,1.14,4.2,1.56
		c1.49,0.47,2.71,1.32,4.05,1.95c5.21,2.45,4.03-0.42,6.94,0.42c0.96,0.27,1.34,0.81,1.95,0.98c0.92,0.25,1.35-0.05,2.48,0.41
		c0.33,0.14,0.79,0.33,1.08,0.47l0.9,0.57l0.51,3.32c3,1.4,1.94,0.7,4.88,1.42c2.92,0.72,7.11,2.59,9.93,0.71
		c1.96-1.3,2.18-2.84,3.15-2.91c0.17,0.82-0.39,2.22-0.67,3.06c-0.64,1.91,0.28,1.88-1.19,2.67c0.01,0.4,0.01,0.66-0.02,0.85
		c0.54,0.45,1.15,1.1,1.66,1.76l0.37,0.04l8.43,0.79c2.17,0.33,3.62,0.26,5.8,0.45c2.17,0.18,3.56,0.46,5.44-0.34
		c-0.4-1-1.4-2.17-1.93-3.18c-1.5-2.85-3.93-7.63-3.62-10.82l0.88-0.06c3.01,3.32,3.18,9.93,10.3,11.23
		c1.75,0.32,3.77-0.63,6.8-1.03l6.88-1.25c0.91-0.2,1.21-0.6,2-0.72c0.92-0.15,1.34,0.27,2.48,0.12c0.53-0.95-0.54-0.76,0.57-1.14
		c0.49-0.17,0.94,0.1,1.48,0.1c3.13-0.03,6.29-0.58,9.54-0.85c3.33-0.29,5.63-0.99,9.49-0.98c1.45,0,2.07,0.26,2.35,1.38
		c-1.79,0.88-5.2,1-7.31,1.62c-1.37,0.4-2.21,0.4-3.34,1.1c-1.2,0.74-1.83,0.68-2.1,2.27c0.32,0.22,0.68,0.39,1.07,0.51
		c9.19,0.33,18.35,1.08,27.26,2.68c4.32,1.22,6.56,4.87,7.53,10.69c0.14,0.04,0.28,0.06,0.42,0.07c0.62-0.14,0.44,0.2,1.37-0.43
		c0.97-0.66,0.48-0.38,1.57-0.57c1.01-0.18,0.65-0.45,1.57-0.81c0.15,0.08,0.3,0.19,0.43,0.3c0.75-0.37,1.52-0.78,2.3-1.19
		l-1.18,3.21c0.31,1.33,0.07,2.72-0.7,3.01c-0.03,0.01-1.84,0.14-2.2,0.16c-0.38-0.36-0.62-0.63-0.8-0.82
		c-1.38,0.58-2.68,1.04-3.66,0.96c-0.3,0.28-0.27,0.62-0.52,1.46l-1.26-0.21c-0.58-2.12,0.17-3.62-0.58-5.8l-0.71-0.25
		c0.27,1.3,0.42,2.7,0.7,4.14c-0.31-1.75-0.73-3.21-1.25-4.43c-0.18-0.16-0.28-0.36-0.32-0.7c-2.31-4.63-6.34-5.42-11.76-5.95
		c-3.22-0.25-6.49-0.49-9.82-0.7c0.13,0.71,0.53,0.65,1.71,1.09c2.38,0.88,4.67,4.27,4.69,6.57c-1.54-0.14-0.95-0.46-2.11-1.04
		c-1.11-0.55-1.27-0.07-2.43-0.09c-0.52-1.35-0.56-1.2-0.71-3.01c-0.81-0.3-1.42-0.77-1.81-0.01c-0.23,0.43-0.07,0.08-0.15,0.46
		c-0.1,0.44-0.01,0.53-0.16,0.97c-0.18,0.51-1.21,2.6-1.67,2.97c-3.46,2.84-5.91,4.85-11.36,2.12c-1.78-0.89-2.37-2.01-3.2-3.57
		c-0.21-0.4-0.62-1.16-0.74-1.59c-0.28-0.98-0.31-3.01-0.35-4.08c-0.65-0.06-0.54,0.08-0.93,0.41c-0.3,0.26-0.53,0.42-0.84,0.72
		c-1.21,1.18-1.8,2.72-1.45,4.56c0.22,1.18,0.62,0.63,0.88,2.14c-1.48-0.01-2.39-0.69-3.81-0.85c-0.27,1.71,0.39,3.1,1.4,3.95
		c0.85,0.71,2.6,1.04,2.43,2.44c-0.17,1.39-1.9,0.39-2.87,0.13c-1.78-0.48-0.74-0.87-2.1-1.78c-0.67-0.45-3.52-1.86-4.83-2.91
		c-6.1-4.91-5.54-2.08-8.02-3.59c-0.83-0.51-1.03-1.62-1.15-2.82c0.54-0.77,1.24-0.89,0.76-1.94l-0.01,0.02
		c-0.83,0.98-1.37,2.2-1.74,3.55c0.04-1.21,0.17-2.37,0.58-3.38c-0.4,0.31-0.76,0.71-0.93,0.9c-0.96,1.1-0.49,1.28-1.08,2.37
		l-0.02-0.02c-0.03,0.77-0.02,1.59,0.01,2.46c-0.25-0.04-0.5-0.08-0.76-0.11c0.24,1.78,0.76,3.47,1.45,4.74
		c1.36,2.49,0.47,1.9,3.03,3.32c-0.25,2.54,0.41,4.04-0.51,4.8c-0.65,0.54-1.92,0.37-2.4,0.08c-0.63-0.39-0.72-1.25-1.15-1.87
		c-1.36,0.1,0.02-0.26-1.3,1.24c0.63,0.48,0.87,1.31,1.28,2c0.49,0.83,0.48,0.78,1.24,1.06l0.74,0.32
		c-0.46,0.72-0.99,0.79-2.04,0.94c0.85,0.86,0.78,0.64,1.01,2.12c0.19,1.21,1,2.57,1.2,3.62c0.11,0.6-0.4,0.76,0.76,3.74
		c0.46,1.18,1.41,3.38,2.29,4.1c3.96,3.16,2.92,2.3,9.3,3.47l18.51,1l7.81,0.59c1.2-0.06,1.71-0.1,1.77,1.13l-0.58,0.41
		c-2.01,0.82-4.67,0.23-6.23,0.32c-2.61,0.14-5.07,0.24-7.56,0.06c-4.44-0.34-10.96-0.84-15.37-0.7l1.09,0.49
		c2.72,0.65,4.87,0.26,9.34,1.09l7.99,0.74c1.29,0.12,1.38-0.36,2.57,0.07c0.82,1.15-0.45,0.42,1.09,1.47
		c0.87,0.59,0.44,1.07-0.3,1.31c-1.86,0.6-2.36-0.02-4.26,0.05c-1.56,0.05-2.99,0.26-4.66,0.29c-1.76,0.03-2.81,0.19-3.96,1.06
		c-0.27,3.36,2.59,6.21,4.89,8.09c0.68,0.56,0.9,0.95,1.7,1.59c0.64,0.52,1.3,0.87,1.92,1.37c2.09,1.67,4.52,2.55,5.79,4.08
		c0.4,0.48,0.94,1.42,1.16,2.14c0.49,1.56,2.56,6.22,3.64,7.77l0.58,1.17c1.08,2.92,4.24,7.18,4.55,8.8
		c0.64,3.27-1.2,7.79-1.8,11.23c-0.39,2.25-0.56,3.57-0.17,5.81c0.16,0.94,0.21,1.9,0.42,2.82l2.7,7.23
		c0.84,1.97,0.47,3.18,2.71,3.89c1.91,0.6,4.09-0.24,5.59-0.96c1.54-0.74,2.93-1.5,4.25-2.33c0.9-0.57,3.48-2.8,5.29-4.48
		c14.54-20.3,20.63-48.6,17.5-82.44c0.53,2.66,0.99,5.27,1.38,7.82l-0.08-0.89c-0.09-1.04-0.22-4.66,0.08-5.55
		c0.19-0.55,0.33-1.29,0.46-1.85c1.04-4.77,3.14-8.56,4.37-13.23c0.46-1.77,0.87-3.63,1.16-5.55c0.33-3.71,0.1-7.85-0.27-12.29
		c-0.31-1.84-0.6-3.65-0.91-5.5c-0.39-2.36-0.02-1.43-0.53-2.71c-0.37-0.92,0.26-3.55-0.53-4.77c0.36-1.61,0.03-5.44,0.09-7.37
		c0.07-2.3,0.16-4.81,0.29-6.95c0.09-1.46,0.26-2.91,0.47-4.35h0.76c0.18-1.18,0.33-2.37,0.42-3.55c0.2-2.48,1.82-9.33,2.53-11.92
		c1.01-3.65,0.67-1.28,1.43-5.78c0.27-1.57,0.54-3.39,0.69-5.03c-0.41-2.86-1.93-6.97-2.85-8.61c-0.71-1.27-2.01-2.79-2.59-4.17
		c-0.65-1.54-1.21-3.07-1.85-4.63c-0.57-1.37-0.27-1.15-1.26-2.12c-0.61-0.6-0.76-1.26-1.48-1.92c-1.07-0.99-2.42-2.28-3.27-3.41
		c-1.4-1.86-3.42-3.5-5.07-5.22c-0.26-0.27-0.5-0.59-0.77-0.85c-0.37-0.35-0.58-0.4-0.92-0.72c-0.79-0.77-1.15-0.9-1.93-1.53
		c-1.91-1.54-3.81-3.12-5.91-4.48c-1.56-1.01-2.77-1.92-4.09-2.85c-1.37-0.97-2.83-1.45-4.47-2.35c-0.77-0.42-1.34-0.97-2.1-1.38
		c-0.71-0.38-1.68-0.8-2.35-1.16c-2.22-1.18-2.72-1.12-4.93-1.96c-1.65-0.63-3.25-1.3-5.16-1.93c-3.58-1.17-7.19-2.44-10.9-3.15
		c-1.08-0.21-3.04-0.5-5.15-0.75c-3.45,0.03-6.98,0.48-10.62,1.43c-9.79,4.2-19.58,7.94-29.29,7.86c-4.7,0.71-9.91,0.52-14.53,0.07
		c-3.98-0.38-13.61-3-17.26-4.04c-3.67-1.05-9.14-1.26-13.29-0.8c-4.2,0.46-7.59,1.83-11.04,3.19c-3.89,1.54-5.11,3.27-10.16,3.79
		c-2.28,0.24-4.59,0.12-6.83,0.46c-2.96,0.47-3.85,2.26-5.11,3.5c-0.37,0.36-0.41,0.32-0.83,0.8l-3.32,3.53
		c-1.6,1.74-3.63,3.15-5.28,4.86l-2.42,2.79c-1.28,1.72-1.24,0.66-3.59,4.82c-1.11,1.97-1.17,2.61-1.69,4.78
		c-0.13,0.54-0.08,0.95-0.19,1.49c-0.09,0.41-0.25,0.72-0.34,1.24c-0.18,1-0.39,1.83-0.55,2.78c-0.31,1.83-0.73,3.44-1.58,4.86
		c-1.77,2.95-4.23,4.46-5.5,7.89c-0.52,1.39-0.74,2.61-0.82,3.76c0.09,1.87,0.33,3.73,0.27,5.96c0.02,0.63,0.02,1.28-0.03,1.97
		c-0.02,0.3-0.03,0.57-0.04,0.83c0.04,1.52,0.22,2.37,0.18,3.89v0.02c0.03,0.96-0.05,2.19-0.43,4.32c-0.12,0.69-0.21,1.37-0.28,2.07
		l0,0.03v0.01l0,0.03l0,0.04l0,0.04c-0.16,2.01-0.18,4.06-0.24,6.06h-0.37c-0.39,3.26-1.08,7.32-1.7,9.15
		c-0.39,1.14-0.56,1.63-0.76,2.95c-0.17,1.1,0.39,2.47-0.61,2.86c-0.99-2.38,0.14-4.74,0.61-6.78c0.25-1.04,0.23-2.65,0.52-3.55
		c0.29-0.89,0.39-0.32,0.36-1.66c-0.02-0.98,0.07-1.97,0.15-2.97h-0.01c-0.08-0.4-0.18-0.81-0.33-1.21
		c-0.37-1.03-0.62-2.01-1.99-1.82c-1.6,0.21-1.69,1.05-2.6,1.35c-0.24-1.66,0.91-3.05,1.51-4.55c1.33-3.36,1.4-3.93,1.02-7.36
		c-0.11-1.04-0.01-1.87-1.02-2.03c-0.52-0.08-1.7,0.54-2.22,0.78c-1.1,0.53-0.67,1.08-1.61,1.3c-0.34-0.89,0.71-2.47,1.08-3.34
		c0.63-1.47,0.8-2.45-0.17-3.7l-1.54,0.19c0.28-0.84,1.54-2.12,2.3-3.49c0.78-1.41,0.22-2.92-0.05-4.61
		c-0.22-1.36-1.07-2.12-1.55-3.17c-0.96-2.11-2.79-1.53-3.69-2.2c1.04-1.12,5.47-2.89,5.83-3.57c0.39-1.05-0.22-2.62,0.24-3.7
		l1.16-2.84c1.09-4.11,0.91-2.99-2.84-3.89c0.35-0.99,0.33-0.75,1.43-1.11c3.73-1.22,2.56-1.71,4.27-2.83
		c1.14-0.75,1.37-1.24,1.96-2.44c2.05-4.15,0.42-3.5-2.08-4.62c-0.97-0.43-1.87-0.56-3.02-0.82c0.3-0.18,0.16-0.06,0.48-0.22
		l0.37-0.21c1.72-1.06,1.97-0.38,4.92-2.59c1.63-1.23,2.27-4.6,0.25-5.7l-1.85-1.04c-0.7-0.43-1.43-0.4-2.1-0.83
		c0.24-0.28-0.1-0.05,0.47-0.34l4.87-2.22c0.34-0.33,0.66-0.99,0.39-1.47c-0.9-1.18-3.53-0.81-4.5-1.46
		c0.84-0.56,6.2-1.45,7.81-4.11c-0.77-0.46-0.85-0.19-1.66-0.8c-1.09-0.82-3.64-1.74-4.25-2.67c2.24-1.27,7.39,0.38,10.25-1.33
		l0.86-0.8c-0.96-0.24-1.41-0.68-2.43-1.06c-0.47-0.18-0.74-0.31-1.16-0.56c-0.58-0.36-0.55-0.29-0.82-0.87
		c1.29-0.48,3.45-0.31,4.96-0.2c1.56,0.11,3.09-0.33,4.48-0.63c-0.37-0.7-1.24-1.23-1.88-1.89l-1.63-1.89
		c1.32-0.25,3.05,0.75,4.44,1.02c2.26,0.43,2.36,0.82,4.43,0.07c-0.11-2.24-2.34-2.6-3.18-4.01c3.99-0.1,6.93,3.03,9.78,0.21
		c0.05-0.78-0.15-2.18-0.5-2.78l-1.84-2.75c-0.34-0.62-0.39-0.4-0.5-0.96c-0.15-0.72,0.06-0.5-0.23-1.33
		c-0.25-0.73-0.31-0.18-0.23-1.24c0.69,0.21,0.97,0.64,1.7,1.08c2.4,1.47,3.99,3.39,5.47,1.4c1.35-1.81-2.76-5.42-4.07-6.47
		c1.04-0.03,3.19,1.45,4.93,2.09c2.02,0.74,2.95,1.48,4.66,2.26c1.06,0.48,1.31,0.67,2.26,1.2c1.53,0.86,3.03,1.74,4.8,2.12
		c1.59,0.35,1.8,0.14,2.65-0.69c-0.13-1.89-2.26-3.13-2.78-4.28c1.74,0.22,6.72,5.18,10.36,3.36c2.7-1.35-0.71-4.15-1.65-5.45
		c-0.61-0.84-1.45-1.17-2.02-2.02l-0.46-0.71c1.18,0.22,1.56,0.71,2.26,1.23c0.52,0.39,1.65,1.11,2.24,1.23
		c2.84,0.58,4.26,1.88,5.02,1.33c1.4-1.03-0.77-3.8-1.55-4.73c-0.43-0.51-0.83-0.56-1.06-1.35c0.98,0.19,4.34,2.3,5.48,2.89
		c2,1.03,4.29,1.54,5.8-0.41c-0.26-1.15-0.6-2.33-1.01-3.36c-0.45-1.12-1.27-1.73-1.48-2.9c0.83,0.11,0.6,0.17,1.07,0.67
		c0.51,0.54,0.28,0.25,0.88,0.66c2.38,1.63,1.79,2.95,5.36,4.23c3.15,1.13,2.94,1.52,4.41,3.66c0.02,0.03,0.06,0.08,0.08,0.12
		l0.15,0.23c0.85,1.21,1.49,0.4,2.4-0.26l-0.13-3.33c0.83,0.03,1.43,1.74,2.55,3.39c0.79,1.16,1.14,2.81,3.29,2.5
		c4.88-0.73,0.59-7.03,2.01-8.84c1.02,0.04,1.14,1.16,2.26,2.54c0.67,0.83,1.23,2.05,2.54,1.62c3.15-1.04,1.35-3.12,0.84-5.65
		c0.96,0.17,1.16,1.26,1.56,1.83c2.11,3.02,3.32,1.38,4.16,0.95c0.98-0.49,1.27-0.32,1.4-1.85c0.14-1.77-1.58-3.27-0.45-5.57
		c0.88-1.79,0.01-3.4,0.03-5.65c0.8,0.47,2.25,3.01,2.96,4c2.06,2.87,3.49,3.74,6.7,2.44c2.77-1.11-0.53-5.66-0.61-7.59
		c0.9,0.19,1.27,0.73,1.67,1.33c0.88,1.32,2.31,4.19,4.44,3.3c1.37-0.56,3-3.03,3.67-4.38c0.43-0.88,0.18-1.3,0.56-2.04
		c0.77,0.05,0.65,0.2,1.1,0.96c2.1,3.57,2,5.57,6.16,1.55c1.98-1.92,0.93-3.19,2.48-3.36c0.04,1.58-0.52,2.89-0.43,4
		c0.73,0.14,1.6-0.03,2.32-0.16c0.79-0.14,1.06-0.43,1.36-0.93c0.25-0.4,1.06-3.13,1.06-3.37c1.46,0,0.41,1.53,1.57,3.4
		c1.69,2.72,4.52,2.31,6.63,0.33c0.22-0.21,1.19-1.05,1.29-1.2c0.57-0.8,0.03-1.42,1.23-1.45c0.58,0.74,0.05,2.11,0.11,2.93
		c0.83,0.34,1.56,0.32,2.44,0.19c1.09-0.16,1.2-0.61,1.73-1.21c0.68-0.76,2.18-2.42,3.24-2.44c0.08,2.39-1.84,5.26-2.17,7.09
		c0.73-0.09,2.74-0.91,3.58-1.22c2.15-0.79,1.22-1.84,2.71-1.96c0.16,2.99-3.69,8.89-2.35,11.52c1.9-0.12,0.96-1.52,3.83-0.85
		c2.75,0.64,2.62-0.26,4.76-0.28c-0.01,1.61-0.99,1.18-1.32,2.23c-0.53,1.68,0.18,1.7,0.41,2.81c0.86-0.09,3.69-1.24,4.04-0.54
		c0.33,0.69-1.31,0.49,0.3,3.68c0.7,0.02,1.98-0.36,2.89-0.48c1.33-0.18,1.34-0.97,2.48-0.57c-0.13,0.66-0.14,0.41-0.46,0.8
		c-0.62,0.75-0.19-0.06-0.43,0.87c-0.12,0.48-0.55,1.67-0.51,2.04c0.31,2.59,9.31,1.56,11.75,1.85c1.07,0.13,1.83-0.08,2.89,0.06
		c-0.17,0.61-0.24,0.56-0.72,1.08c-1.71,1.89-7.41,3.8-7.61,5.59c0.44,2.3,4.54,2.18,7.14,2.18c1.7,0.01,7.77-0.5,8.76-0.3
		c-0.29,0.62-0.18,0.41-0.86,0.72c-0.51,0.23-0.73,0.31-0.99,0.7c1.26,0.33,2.65,1.07,3.86,1.3c1.63,0.31,3.24,0.06,4.29,1.08
		c-0.43,1.27-4.31,1.73-5.5,2.62c0.67,0.28,2.73-0.01,3.82,0.19c2.15,0.39,3.23-0.24,3.03,1.36c-0.76,0.52-0.54,0.28-1.56,0.55
		c-0.94,0.26-0.71,0.46-1.41,0.88c-1.16,0.69-3.39,1.76-1.54,2.84c2.31,1.37,6.95-0.09,8.7,0.93c0.1,1.03-0.38,0.79-0.96,1.35
		c-0.54,0.53-0.32,0.74-1.08,1.41c-0.61,0.54-1.83,1.99-2.02,2.93c2.43,0.71,4.11,0.77,6.28,2.58c0.83,0.7,1.58,1.09,2.55,1.87
		c0.51,0.4,1.96,1.98,2.13,2.52c-1.49,0.07-3.18-0.93-4.66-0.22c0.34,1.91,5.13,1.5,6.02,3.04c-0.47,0.36-1.01,0.42-1.58,0.56
		c0.05,1.22,0.05,1.35,1.07,1.81c0.94,0.42,1.64,0.32,1.6,1.43c-1.17,0.93-2.5-0.75-3.7-0.19c0.04,0.03,0.1,0.03,0.12,0.09
		c0.02,0.06,0.09,0.07,0.12,0.09l0.24,0.16c1.6,0.96,4.55,0.36,4.86,2.02c-1.12,0.43-2.28,0.08-3.03,0.61
		c-1.08,1.35,1.09,4.97,1.51,8.17c0.42,3.2,0.57,4.79,2.62,7.2C398.54,157.3,399.81,156.21,400.41,155.66z M213.47,259.65
		c0.98-0.12,1.09,0.79,1.88,1.49c0.42,0.38,1.49,0.88,1.71,1.53C215.65,262.78,213.95,260.83,213.47,259.65z M209.64,230.52
		l-0.15-0.02c0.06-0.9,0.19-1.68,0.38-2.37c-0.14-0.91,0.4-2.24,1.37-3.04c1.18-0.97,1.52-1.15,3.49-1.55
		c0.48-0.1,1.01-0.15,1.56-0.19c0.89-0.08,1.84-0.11,2.81-0.11c11.58-0.05,23.48,0.74,35.18,2.64c5.36,0.49,13.61,1.06,17.09,4.81
		c0.17,0.18,0.39,0.62,0.5,0.86l0.02,0.15c1.51,1.97,2.21,4.91,1.9,9.55c-1.5-6.02-2.63-8.51-5.87-10.45
		c0.44,0.99,1.17,2.41,1.09,4.42c-0.08,1.88-1.03,3.79-2.14,3.59c-1.67-0.8-0.48-2.55-1.81-3.92c-0.43-0.44-3.22-1.66-3.96-1.46
		c-0.13,0.09-0.01,0.94-0.45,1.56c-0.32,0.44-0.72,0.68-1.52,0.69c-1.5,0.03-2.29-0.8-3.47-1.09c-1.37-0.33-1.87-0.94-2.94-1.49
		c-2.59-1.33-1.54-1.01-2.61-1.69l0.6-0.45l-0.54-2.67l-1.73-0.24c-0.75,3.94-2.95,5.94-5.4,6.78c-1.05,0.44-2.22,0.69-3.44,0.69
		c-0.95,0-1.86-0.22-2.71-0.59c-1.12-0.32-1.99-0.78-2.41-1.25c-2.44-1.46-2.9-3.18-3.05-4.73c-0.14-0.44-0.22-0.85-0.22-1.2
		c0-0.22,0.03-0.37,0.09-0.46c-0.04-0.34-0.1-0.67-0.22-0.96c-1.1-1.31-5.78-0.41-6.16-0.26c1.06,2.19,3.3,4.66,5.34,5.97
		c1.01,0.47,2.16,1.42,1.96,2.05c-1.02,0.38-5.87-2.3-7.1-2.95c-3.09-1.62-5.25,2.08-6.92-0.21c0.56-1.85,4.77-3.28,5.33-3.83
		c-0.44-0.88-2.83-1.36-3.93-1.48c-1.61-0.19-2.79,0.51-3.63,1.64c-2.14,0.15-1.68-0.76-2.89,1.97c-0.28,0.63-2.79,2.42-2.83,2.43
		C209.57,231.86,208.62,231.67,209.64,230.52z M187.32,93.48L187.32,93.48c0.29-0.56,0.5-0.76,0.85-1.23l2.43-2.6L187.32,93.48z
		 M357.77,71.25c3.25,0.65,2.06,0.92,3.97,1.38c0.99,0.24,1.09,0.33,1.97,0.67c0.21,0.08,0.56,0.27,1.02,0.53L357.77,71.25z"/>
	<path class="st0" d="M526.25,513.84c-0.86,0-0.91,0.06-0.91,1.07v4.1c0,0.74,0.06,0.8,1.31,0.8c0.76,0,1.2-0.19,1.6-0.59
		c0.36-0.36,0.76-1.03,0.76-2.27C529.01,515.06,527.9,513.84,526.25,513.84z"/>
	<path class="st0" d="M163.5,227.08c0.62-7.15,1.48-7.96,0-16.05c-0.3-1.63-1.14-3.14-1.45-4.6c-1.02-4.78-1.95-4.06-4.53-4.37
		c-0.18-0.02-0.35-0.03-0.5-0.03l0.07,1.3c-0.37-0.02-0.86,0.12-1.94,0.6c0,0.31,0.04,0.64,0.25,1.23c0.8,2.2,1.22,3.84,1.92,5.05
		c0.35,0.6,0.67,1.04,0.68,1.49c0.02,0.93,1.58,4.7,1.78,9c0.05,1.1,0.21,2.31,0.26,3.54l0.09,0.61c0.03,0.74,0.03,1.49,0,2.23
		c-0.08,1.91-0.04,4.09,0.1,6.32c0.16,1.21,0.36,2.35,0.58,3.32c0.16,0.71,0.34,1.79,0.69,2.21c1.57,1.86,1.57-3.33,1.57-3.33
		C163.33,234.06,163.3,229.44,163.5,227.08z"/>
	<path class="st0" d="M302.14,671.94c1.57-0.04,4.19,0.01,7.07,0.09c2.7,0.08,5.32,0.18,6.89,0.32c0.44-0.12,0.52-1.26,0.13-1.53
		l-1.78-0.18c-2.13-0.23-2.38-0.68-2.28-4.17l0.48-16.6c0.06-2.18,0.17-4.18,0.28-5.18c-0.08-0.35-0.38-0.49-0.59-0.5
		c-0.31-0.01-1.99,0.77-3.92,1.28c-1.76,0.43-3.82,0.85-5.62,1.06c-0.36,0.25-0.34,1.3,0.04,1.53l2,0.32
		c1.91,0.32,2.07,0.98,1.98,3.85l-0.41,14.08c-0.1,3.49-0.38,3.92-2.52,4.03l-1.79,0.08C301.7,670.65,301.7,671.8,302.14,671.94z"/>
	<path class="st0" d="M129.42,395.89c2.4,2.52,4.87,4.98,7.4,7.38C134.29,400.87,131.82,398.41,129.42,395.89z"/>
	<path class="st0" d="M527.09,509.59c-2.98,0-5.68,1.21-7.64,3.16c-1.95,1.96-3.16,4.66-3.16,7.64c0,2.98,1.21,5.68,3.16,7.64
		c1.95,1.95,4.65,3.16,7.64,3.16c2.98,0,5.68-1.21,7.64-3.16c1.95-1.95,3.16-4.65,3.16-7.64c0-2.98-1.21-5.68-3.16-7.64
		C532.77,510.8,530.07,509.59,527.09,509.59z M534.63,526.77c-0.34,0.15-1.01,0.19-1.66,0.19c-1.94,0-3.16-0.7-4.08-2.21
		c-0.67-1.12-1.16-2.15-1.64-3.26c-0.25-0.57-0.59-0.74-1.12-0.74c-0.74,0-0.78,0.04-0.78,0.46v2.59c0,1.94,0.13,2.08,1.08,2.25
		l0.57,0.11c0.15,0.11,0.15,0.61,0,0.74c-1.12-0.04-2.08-0.06-3.1-0.06c-1.05,0-1.98,0.02-3.07,0.06c-0.17-0.13-0.17-0.64,0-0.74
		l0.57-0.11c0.95-0.17,1.07-0.32,1.07-2.25v-7.45c0-2.11-0.04-2.34-0.93-2.46l-0.57-0.08c-0.21-0.1-0.21-0.63,0.04-0.74
		c1.58-0.1,3.22-0.19,5.22-0.19c1.79,0,3.33,0.27,4.13,0.76c1.22,0.72,1.85,1.77,1.85,3.12c0,1.87-1.26,2.67-2.23,3.16
		c-0.21,0.11-0.21,0.23-0.11,0.46c1.39,2.82,2.25,4.4,3.26,5.27c0.55,0.44,1.09,0.57,1.41,0.59
		C534.74,526.33,534.74,526.64,534.63,526.77z"/>
	<path class="st0" d="M351.42,522.82c-1.73-6.88-3.96-15.53-5.14-18.91c-1.5,3.51-5.21,11.75-8.06,18.78l-4.72,11.47
		c-1.7,4.13-0.95,4.65,2.96,4.92l14.71,1.02c3.6,0.25,4.41-0.17,3.44-4.32L351.42,522.82z"/>
	<path class="st0" d="M166.28,287.34c-0.24,1.14-0.29,2.77,0.88,2.95c0.06-0.08,0.12-0.2,0.17-0.37c0.09-1.63,0.22-3.29,0.39-4.99
		C166.84,285.14,166.58,285.92,166.28,287.34z"/>
	<path class="st0" d="M325.24,381.58c1.41,0.01,1.36-0.02,2.31-0.73l2.48-1.98c0.51-0.44,1.1-0.78,1.53-1.51
		c-2.45,1.47-4.44,2.69-6.1,3.79C325.39,381.26,325.32,381.39,325.24,381.58z"/>
	<path class="st0" d="M99.69,503.18c-6.32,1.16-6.55,1.68-5.19,9.09l5.53,30.08c0.99,5.4,1.54,5.78,10.65,4.1
		c5.55-1.02,8.54-3,10.93-6.47c2.14-3.1,4.16-8.58,2.49-17.68C121.54,508.41,111.72,500.96,99.69,503.18z"/>
	<path class="st0" d="M336.63,343.67c-0.62,1.87-0.02,6.08-1.45,7.2c-2.22,0.5-2.96-1.66-2.64-3.4c0.12-0.67,0.28-0.22,0.37-1.22
		c0.07-0.82-0.15-0.65,0-1.16c1.44-4.73,1-7.27-0.95-12.23c-0.31-0.8-5.84-11.11-6.51-11.88c-0.7-0.8-4.97-1.92-6.9-5.29
		c-0.77-1.34-1.28-2.51-1.59-4.38c-0.41-2.47-0.15-9.03-0.27-12.07c-0.1-2.66-1.45-7.6-3.15-8.93l-3.45-2.74
		c-0.77-0.74-2.11-2.5-3.73-2.19c-0.04,0.53,0.13,0.85,0.41,1.28c0.18,0.15,0.36,0.31,0.54,0.47c3.69,3.62,4.61,12.17-0.28,14.46
		c-0.58,0.7-1.38,1.23-2.43,0.76c0.53-0.94,3.95-2.4,3.27-6.72c-0.49-3.14-0.65-5.56-2.24-7.86c-1.42-2.06-0.57-1.24-2.49-2.55
		c-0.42-0.29-1.08-0.65-1.53-0.99l-1.26-1.25c-0.94-0.88-1.12-2.56-1.26-3.8c-0.16-1.54-0.25-3.46-1.28-3.49
		c-0.54,1.1,0.84,7.08,0.68,10.4c-0.05,0.99,0.17,1.49,0.22,2.17c0.04,0.64-0.18,1.21-0.16,2.08c0.02,0.64,0.12,1.41,0.23,2.11
		c1.09,0.48,1.24,0.81,2.48,1.22c1.05,0.35,1.75,0.65,1.79,1.92c-1.66-0.14-1.84-0.81-4.06-0.37c-1.13,0.23-2.13,0.66-3.2,1.06
		c-1.18,0.45-1.85,1.04-2.81,1.44c-1.08,0.45-2.16,0.6-3.17,1.1c-3.38,1.66-2.21,2.09-6.55,0.64c-2.56-0.85-4.4,0.65-5.43,2.65
		c-0.33,0.06-0.62,0.06-0.89,0.02l1,1c1.21-0.6,1.24-4.26,4.31-3.47c0.57,0.15,1,0.45,1.45,0.74c0.59,0.03,1.19,0.3,2,0.72
		c0.09,0,0.17,0,0.26,0c2.16-0.02,2.25-0.84,3.79-1.59l5.04-1.83c0.79-0.43,1.64-0.81,2.53-1.16c2.61-1,6.82-2.01,7.93,1.54
		c0.71,2.27,0.2,2.85-1.97,3.51l-0.2,0.06c-1.46,1.38-4.73,0.98-6.51,1.59c-1.46,0.5-1.58,0.65-2.67,1.2
		c-0.86,0.69-1.58,1.58-2.45,2.77c-0.87,1.2-1.53,2.36-2.04,3.49c-0.75,1.66-1.05,4.65-3.32,4.04c-0.86,0.96-2.25,0.93-3.4,0.61
		l-0.18-1.56c-0.73,0-1.38,0.15-1.98,0.34c-1.23,0.4-0.7,0.31-0.72,0.9c-0.01,0.28,0.29,0.12-0.33,0.55
		c-0.08,0.06-0.22,0.13-0.37,0.19c-0.13,0.48-0.23,1.05-0.3,1.72c-0.21,2.01-1.15,2.9-2.54,2.82l-0.11,0.1
		c-1.82,1.64-3.83-0.8-4.43-1.17c-0.11-0.25-0.02-0.06-0.19-0.33l-0.66-1.08c-2.02-3.04-0.69-10.61-1.2-14.12
		c-0.57-3.89-6.72-5.38-8.24-6.23c-0.66-0.37-0.17,0.01-0.54-0.44l-0.42-0.65c-1.46-0.46-2.91-1.1-3.48-2.19
		c0.29,0.99,1.2,1.46,1.68,2.17c-0.73,0.35-2.12-0.45-2.83-0.84c-1.3-0.73-1.3-1.54-1.24-2.89c0.9-0.58,1.08-1.48,3.12-1.33
		c1.58-0.8,4.58-0.11,5.93,0.46c1.36,0.56,2.8,1.38,4.31,2.41c0.69-1.59,2.83-1.89,4.7-1.77c1.43,0.09,4.78-0.21,5.82,1.02
		c2.12,2.52,2.91,1.04,4.07,0.11c1.43-1.14,3.83-0.26,5.56-0.12c2.54,0.21,3.47-0.42,5.16-1.55c0.71-0.48,0.82-1.64,1.06-2.41
		c0.5-1.64-1.15-18.5-1.89-21.22c-0.58-2.12-1.22-3.42-0.79-5.87c0.16-0.94,0.6-1.8,0.7-2.77c0.36-3.52,0.6-9.12-0.53-12.42
		c-0.79-2.31-3.39-4.25-6.24-3.86l-4.99,1.82c-0.53,0.36-3.62,3.97-3.93,2.07c-0.06-0.35-0.04-0.11,0.01-0.48
		c0.03-0.19,0.2-0.75,0.23-1.03l-0.61-0.3c-0.55,1.03-1.18,2.2-0.93,3.6c-0.97,0.35-1,1.18-1.6,1.89c-0.46,0.55-0.11,0.13-0.46,0.71
		c-1.38,2.35-0.78,1.76-1.49,3.14c-1,1.93-2.46,4.03-3.64,5.45c-0.45,0.55-0.52,0.64-1,1.33c-0.33,0.47-0.7,0.76-1.14,1.19
		c-0.44,0.43-0.77,0.75-1.13,1.19l-2.33,2.12c-0.68,0.43-0.68,0.63-1.4,0.93c-0.98,0.41-2.97,0.41-3.17,1.34
		c-0.26,1.22,0.3-0.12,0.68,1.35c0.15,0.59,0.25,1.52,0.07,2.05c-0.84,2.54-4,3.49-5.82,5.79c-1.83,2.31-3.28,3.72-4.11,7.13
		c-1.28,5.25,0.67,5.72,0.5,7.63c-1.29,0.19-0.68-0.23-1.45-1.34c-0.6-0.86-0.64-0.88-0.84-1.92c-0.35-1.83,0.19-3.85-0.03-4.91
		c-0.79,0.02-0.72,0.1-1.22,0.57l-1.92,1.96c-2.75,4.02,2.83,5-4.74,11.9c-2.38,2.17-4.61,2.76-7.14,4.47
		c-0.66,0.45-1.72,0.98-2.39,1.48c-1.54,1.12-2.87,2.5-4.03,3.71c-2.58,2.68-3.55,7.44-4.16,11.15c-0.25,1.51,0.1,2.41,0.08,3.54
		c0,0.47-0.17,1.01-0.12,1.67c0.03,0.4,0.24,1.37,0.23,1.66l-0.12,0.58c-0.03,0.95,1.92,3.46,2.35,4.26
		c1.42,2.58,1.81,6.87,0.99,9.81c-0.44,1.57-1.82,3.53-2.6,4.97c-1.41,2.62-2.58,5.31-3.41,8.18c-0.74,2.53,1.7,9.44,4.5,10.48
		c-0.1,0.88-0.11,0.18-0.16,0.97c0.53,0.32,1.65,1.5,1.7,2.13c-0.46,1.96-1.94,1.59-3.21,0.67c-1.93-1.41-2.5-4.21-4.7-5.37
		c-0.98-0.51-0.68-0.4-1.38-1.13c-0.51-0.54-0.28-0.23-0.81-0.55l-2.03-1.84c-1.38-1.21-3.17-1.85-4.69-2.86
		c-3.17-2.09-6.44-3.71-9.64-5.57c8.82,6.84,17.82,13.11,30.82,24.37c3.22,2.64,6.46,4.99,9.73,7.07c-0.17-0.37-0.24-0.81-0.11-1.36
		c2.77-1.41,3.9,3.54,7.02,2.17c4.62-2.03,1.72-6.26,9.94-5.45c1.71,0.17,5.57,2.82,11.63,3.63c0.98,0.13,1.67-0.09,2.25-0.5
		c4.49-3.23,5.83-5.6,12.41-4.12c1.69,0.38,4.69,3.12,6.22,4.02c4.92,2.89,17.61,2.73,22.3,0.98c1.82-0.68,1.98-0.82,3.29-1.74
		c4.94-3.46,7.01-4.97,9.97-10.54c0.82-1.54,1.39-6.85,1.14-8.99c-0.63-5.35-2.23-5.66-4.73-8.19c-0.46-0.46-0.98-0.69-1.46-1.06
		c-0.75-0.57-0.44-0.62-1.47-1.04c-6.79-2.8-3.58,4.68-5.56,5.86c-0.89,0.54-6.21-1.14-7.56-1.47c-1.23-0.29-2.83-0.57-4.18-0.22
		c-3.02,0.78-2.92,1.72-3.6,3.37c-0.32,0.78-0.15,0.29-0.48,0.69c-1.36,1.64-1.56,1.29-3.99,0.67c-3.79-0.97-8.18-1.13-12.04-1.68
		c-1.52-0.21-2.9-0.11-4.4-0.28c-1.33-0.15-2.64-0.5-3.95-0.65c-1.41-0.17-3.01-0.07-4.53-0.2c-9.97-0.91-12.87,1.22-16.71,1.1
		l-1.12-1.98c0.45-0.77,0.57-1.4,1.42-1.64c0.71-0.2,1.79-0.29,2.52-0.39c2.61-0.36,2.8,0.34,4.65-1.16
		c2.86-2.34,4.68-3.46,4.54-7.26c-0.15-3.97-0.08-7.04-3.32-9.28c4.74-1.12,3.08-6,1.01-7.94l-0.13-0.12
		c-5.6-1.72-11.86-3.79-16.58-4.71c-1.71-0.16-3.13-0.17-3.92,0.06c-0.91,0.27-1.86,1.64-2.32,2.33c-0.37,0.55-0.47,1.01-0.86,1.54
		l-2.17-0.18c-0.22,0.65-0.35,1.36-0.36,2.13c-1.42-0.04-1.44-1.54-1.18-3.32c0.15-1.7-0.41-1.81-0.94-2
		c0.79-1.93,2.93-2.7,5.84-2.81c1.04-0.37,1.75-0.35,3.14-0.55c0.61,0.46,2.12,0.28,3.03,0.31c1.16,0.05,1.72,0.2,2.73,0.51
		c1.61,0.5,3.57,0.69,5.04,1.35c3.34,1.5,4.38,1.6,7.13,2.75c0.86,0.36,1.65,0.33,2.38,0.7c2.8,1.41,7.27,1.65,10.51,2.46l5.45,0.88
		c3.24,0.29,6.89,0.5,11.07,0.61c10.12,0.23,20.39,0.16,33.35-2.35c1.12,5.06,3.73,7.09,7.54,8.1c-2.68,0.4-4.43,0.93-5.14,2.49
		c-0.11-0.58-0.26-1.13-0.44-1.66c-0.38-0.1-0.83-0.24-1.6,0c0.06,0.97,0.59,1.11,0.57,1.91c-0.01,0.66-0.5,0.93-0.52,1.75
		c-0.09,2.33,2.03,1.98,4.19,5.22l3.51,5.97c3.43,6.72,1.65,14.62,3.51,15.31c0.72,0.27,1.47,0.07,1.88-0.41
		c1.3-1.53,1.51-2.6,2.42-4.55c0.53-1.13,0.99-1.94,1.47-3.16c1.38-3.56,0.9-4.57,0.71-8.33
		C339.3,348.48,338.22,343.67,336.63,343.67z"/>
	<path class="st0" d="M311.87,331.73c-0.32,0.31-0.15,0.57-0.12,0.73c0.39,1.89,1.62,0.4,3.37,2.13c0.61,0.6,1.11,0.76,1.88,1.42
		c0.53,0.46,1.17,1.09,1.87,1.12C318.92,332.76,312.95,330.67,311.87,331.73z"/>
	<path class="st0" d="M297.24,392.37c-3.87-0.02-7.43,0.38-11.23,0.38l-4.46,0.12c-1.04-0.03-1.82-0.15-2.9-0.13
		c-3.45,0.07-7.26,1.14-11.2,0.7c-1.12-0.12-2.47-0.39-3.56-0.19c2.53,0.65,5.06,1.17,7.59,1.58c5.09,0.12,12.33,0.28,14.91,0.03
		c2.63-0.25,12.98-1.21,18.03-2.59c0.85-0.33,1.69-0.69,2.54-1.06c0.12-0.11,0.2-0.21,0.24-0.32
		C305.58,390.57,300.03,392.39,297.24,392.37z"/>
	<path class="st0" d="M270.18,663.39c0.02,4.75,3.22,8.88,9.11,8.86c2.62-0.01,5.84-1.29,7.61-5.01c0-0.74-0.66-1.09-1.14-1
		c-1.17,2.01-2.83,2.28-4.05,2.29c-4.06,0.02-6.16-3.16-6.18-6.43c0-0.7,0.08-0.79,1.09-0.79l8.37-0.04
		c1.35-0.01,1.57-0.62,1.56-1.45c-0.01-3.36-2.47-6.27-7-6.25C274.11,653.6,270.16,657.89,270.18,663.39z M281.58,657.98
		c0,0.44-0.08,0.87-0.3,1c-0.48,0.31-1.17,0.4-1.79,0.4l-1.61,0.01c-1.4,0.01-2.01-0.04-2.01-0.65c-0.01-1.39,1.56-3.15,3.39-3.15
		C280.75,655.58,281.58,656.54,281.58,657.98z"/>
	<path class="st0" d="M320.32,385.41c-0.83,0.54-0.78,0.9-1.81,1.29c-0.7,0.26-1.43,0.66-2.19,1.11c-1.3,0.94-2.45,1.74-3.34,2.25
		c-0.87,0.49-1.74,0.96-2.61,1.41c0.05,0.81,0.52,2.26-0.02,4.64l-0.9,7.11c-0.59,2.19-2.11,6.11,0.95,4.6
		c0.86-0.42,0.59-0.21,1.01-0.91c0.97-1.62,2.68-7.18,4.46-10.42c0.1-0.17,0.1-0.2,0.2-0.38c0.71-1.25,0.89-1.45,1.37-3.08
		c0.35-1.19,3.53-6.53,4.46-7.37c0.58-0.53,3.98-2.81,4.39-3.65c-1.18,0-1.28,0.41-2.12,1.09
		C323.1,383.96,321.6,384.59,320.32,385.41z"/>
	<path class="st1" d="M361.73,72.64c-1.91-0.46-0.71-0.73-3.97-1.38l6.95,2.59c-0.45-0.27-0.81-0.45-1.02-0.53
		C362.82,72.97,362.72,72.87,361.73,72.64z"/>
	<path class="st1" d="M187.33,93.47L187.33,93.47l3.27-3.82l-2.43,2.6C187.83,92.72,187.61,92.92,187.33,93.47z"/>
	<path class="st1" d="M210.2,231.64c0.04-0.01,2.55-1.8,2.83-2.43c1.21-2.73,0.76-1.81,2.89-1.97c0.84-1.13,2.02-1.83,3.63-1.64
		c1.1,0.13,3.48,0.6,3.93,1.48c-0.56,0.55-4.78,1.98-5.33,3.83c1.67,2.28,3.83-1.42,6.92,0.21c1.23,0.65,6.09,3.32,7.1,2.95
		c0.2-0.63-0.95-1.58-1.96-2.05c-2.04-1.31-4.29-3.78-5.34-5.97c0.39-0.15,5.06-1.04,6.16,0.26c0.11,0.29,0.18,0.61,0.22,0.96
		c-0.06,0.09-0.09,0.24-0.09,0.46c0,0.35,0.08,0.76,0.22,1.2c0.15,1.55,0.61,3.27,3.05,4.73c0.43,0.47,1.3,0.94,2.41,1.25
		c0.85,0.37,1.77,0.59,2.71,0.59c1.23,0,2.39-0.25,3.44-0.69c2.45-0.84,4.64-2.83,5.4-6.78l1.73,0.24l0.54,2.67l-0.6,0.45
		c1.07,0.68,0.01,0.36,2.61,1.69c1.07,0.55,1.57,1.15,2.94,1.49c1.18,0.29,1.97,1.12,3.47,1.09c0.8-0.01,1.2-0.25,1.52-0.69
		c0.43-0.61,0.32-1.46,0.45-1.56c0.75-0.2,3.54,1.02,3.96,1.46c1.33,1.37,0.13,3.12,1.81,3.92c1.11,0.2,2.07-1.72,2.14-3.59
		c0.08-2.01-0.65-3.42-1.09-4.42c3.24,1.95,4.37,4.43,5.87,10.45c0.31-4.64-0.39-7.58-1.9-9.55l-0.02-0.15
		c-0.1-0.23-0.33-0.67-0.5-0.86c-3.47-3.76-11.73-4.32-17.09-4.81c-11.69-1.9-23.6-2.69-35.18-2.64c-0.98,0-1.92,0.03-2.81,0.11
		c-0.55,0.03-1.08,0.09-1.56,0.19c-1.97,0.4-2.31,0.58-3.49,1.55c-0.97,0.8-1.51,2.13-1.37,3.04c-0.19,0.69-0.31,1.47-0.38,2.37
		l0.15,0.02C208.62,231.67,209.57,231.86,210.2,231.64z M237.47,226.89c-0.39,0.17-0.89,0.16-1.43,0.17
		c-0.9-0.15-1.79-0.2-2.68-0.15c0.01,0.27,0.04,0.53,0.09,0.76c-0.21,0.08-0.43,0.16-0.67,0.23c-0.49-0.55-0.63-1.11-0.71-1.94
		C232.34,225.89,236.94,226.33,237.47,226.89z"/>
	<path class="st1" d="M215.35,261.14c-0.79-0.71-0.9-1.61-1.88-1.49c0.49,1.18,2.19,3.13,3.59,3.03
		C216.84,262.03,215.77,261.52,215.35,261.14z"/>
	<path class="st1" d="M483.7,420c-8.12,9.59-16.92,18.59-26.31,26.93c33.56,5.49,66.58,12.58,99.02,21.1l8.96-29.71
		C538.52,431.23,511.3,425.07,483.7,420z"/>
	<path class="st1" d="M81.68,420C54.07,425.07,26.85,431.23,0,438.32l8.96,29.71c32.44-8.52,65.46-15.61,99.02-21.1
		C98.59,438.58,89.8,429.59,81.68,420z"/>
	<path class="st1" d="M125.89,444.13c4.89-0.71,9.8-1.41,14.71-2.06c-9.57-7.08-18.59-14.86-26.99-23.26
		c-43.27-43.27-70.03-103.05-70.03-169.07c0-66.03,26.76-125.8,70.03-169.07c43.27-43.27,103.05-70.03,169.07-70.03
		c66.03,0,125.81,26.76,169.08,70.03c43.27,43.27,70.03,103.05,70.03,169.07c0,66.03-26.76,125.81-70.03,169.07
		c-8.4,8.4-17.42,16.18-27,23.26c4.92,0.65,9.82,1.34,14.72,2.06c6.91-5.58,13.52-11.52,19.8-17.79
		c45.2-45.19,73.15-107.63,73.15-176.59c0-68.96-27.95-131.4-73.15-176.59C414.09,27.96,351.65,0,282.69,0
		c-68.96,0-131.4,27.96-176.59,73.15c-45.2,45.19-73.15,107.63-73.15,176.59c0,68.96,27.95,131.4,73.15,176.59
		C112.37,432.61,118.98,438.55,125.89,444.13z"/>
	<path class="st1" d="M405.62,439.75c62.2-40.33,103.37-110.35,103.37-190.01c0-124.98-101.32-226.3-226.3-226.3
		c-124.98,0-226.3,101.32-226.3,226.3c0,79.66,41.16,149.68,103.37,190.01c8.1-0.93,16.23-1.76,24.39-2.5
		c-17.33-9.13-33.24-20.6-47.32-33.97c2.53-0.74,4.97-1.54,7.28-2.43c14.2-5.48,15.59-9.81,18.52-15.29
		c5.75-10.74,15.09-14.65,26.01-17.59l0.53,0.94l-0.36-0.35c4.43,8.98,8.25,17.84,13.28,24.3l0.18,0.23l0.18,0.23l0.02,0.03
		l0.15,0.2l0.22,0.28l0.12,0.16l0.17,0.21l0.07,0.08l0.1,0.12l0.16,0.21l0.09,0.1l0.23,0.29l0.1,0.13l0.05,0.06l0.15,0.19l0.12,0.15
		l0.03,0.04l0.15,0.18l0.13,0.16l0.01,0.01l0.14,0.17l0.14,0.17l0.01,0.01l0.13,0.15l0.14,0.16l0.03,0.03l0.11,0.13l0.13,0.15
		l0.04,0.05l0.21,0.25l0.06,0.07l0.07,0.08l0.13,0.14l0.07,0.08l0.05,0.06l0.12,0.13l0.09,0.1l0.03,0.04l0.11,0.13l0.1,0.11
		l0.02,0.02l0.11,0.13l0.11,0.12l0.11,0.12l0.11,0.12l0.01,0.01l0.09,0.1l0.1,0.11l0.03,0.03l0.17,0.17l0.01,0.01l0.04,0.04
		l0.06,0.06l0.1,0.1l0.05,0.05l0.05,0.05l0.1,0.09l0.06,0.06l0.03,0.03l0.09,0.09l0.08,0.07l0.36,0.34l0.02,0.02l0,0.01l0.08,0.07
		l0.09,0.08l0.02,0.01l0.07,0.06l0.09,0.07l0.03,0.02l0.06,0.05l0.08,0.07l0.04,0.03l0.05,0.03l0.08,0.07l0.05,0.04l0.03,0.03
		l0.08,0.06l0.06,0.05l0.02,0.02l0.08,0.06l0.07,0.05l0.01,0.01l0.08,0.06l0.08,0.06h0l0.53,0.78c7.16,4.6,15.43,7.74,25.12,9.18
		c-1.57-1.85-3.81-5.17-4.76-7.12c-1.38-2.81-1.15-6.83-2.57-9.84c-0.5-1.06-1.31-1.37-2.46-1.79c-1.15-0.41-2.27-0.46-3.31-0.77
		c-1.33-0.4-1.74-1.16-3.29-0.98c-1.27,0.78-1.16,2.69-4.02,0.95c-1.3-0.8-1.98-2.12-3.1-3.07c-1.33-1.13-4.58-0.27-5.74-5.16
		c-0.12-0.52-0.23-0.63-0.36-1.09c-0.47-1.63-0.8-3.27-1.46-4.8c-0.27-0.62,0-1.19-1.44-1.63c-1.2-0.37-2.94-1.61-3.37-2.84
		c-0.35-0.99-1.34-3.6-1.9-4.29c-0.6-0.74-0.84-0.83-1.73-1.36c-2.21-1.32-5.33-3.41-6.52-5.84c-0.39-0.79-0.4-1.42-0.84-2.27
		c-0.58-1.11-1.94-3.16-2-4.16c-0.08-1.51,0-1.42-0.8-2.33c-3.49-3.96-5.47-11.16-6.47-16.49c3.03,3.82,6.69,7.27,11.01,10.38
		c11.46,9.56,21.64,15.92,38.23,30.26c5.72,4.68,11.52,8.47,17.38,11.46c0.67,0.61,1.33,1.23,2.22,1.68c0.87,0.44,3.78,1.68,4.17,2
		c-0.19,0.62-3.38,5.29-4.65,9.85c-1.45,5.16,0.24,8.4,0.14,13.56c-0.01,0.23-0.02,0.45-0.03,0.67c3.2,3.26,5.27,8.56,5.22,17.12
		c6.85-0.19,13.72-0.26,20.6-0.32c1.61-13.32,10.21-17.42,19.07-17.7c9.07-0.28,17.12-1.48,24.34-3.46
		c9.21-3.78,15.35-8.96,17.81-15.83c0.75-2.32,1.39-2.93,1.83-4.57c0.37-1.35,1.46-3.23,2.06-4.37c0.69-1.31,1.42-3.05,2.26-4.11
		c0.3-0.38,0.43-0.37,0.67-0.87c1-2.01,1.69-2.02,2.9-3.48c1.13-1.35,2.03-1.56,3.3-3.3l0.86-0.86c5.89,1.48,11.46,3.22,13.54,6.16
		c4.65,3.18,8.09,8.71,11.41,15.03v0l0,0.01c0.45,0.85,0.89,1.71,1.33,2.58c0.92,1.48,1.95,2.85,2.66,4.37
		c4.03,8.65,7.3,12.99,20.48,14.01c4.28,0.3,9.14,0.22,15.07,0.27c0,0,0,0,0,0l0.02,0c-9.91,7.75-20.53,14.63-31.75,20.54
		C389.39,438,397.52,438.82,405.62,439.75z M129.42,395.89c2.4,2.52,4.87,4.98,7.4,7.38C134.29,400.87,131.82,398.41,129.42,395.89z
		 M161.51,238.94c-0.36-0.42-0.54-1.5-0.69-2.21c-0.22-0.97-0.42-2.11-0.58-3.32c-0.14-2.23-0.18-4.41-0.1-6.32
		c0.03-0.74,0.03-1.49,0-2.23l-0.09-0.61c-0.05-1.23-0.21-2.44-0.26-3.54c-0.2-4.3-1.76-8.07-1.78-9c-0.01-0.44-0.33-0.89-0.68-1.49
		c-0.7-1.21-1.12-2.85-1.92-5.05c-0.21-0.59-0.26-0.92-0.25-1.23c1.08-0.49,1.57-0.63,1.94-0.6l-0.07-1.3c0.15,0,0.32,0.01,0.5,0.03
		c2.58,0.31,3.51-0.41,4.53,4.37c0.31,1.46,1.15,2.97,1.45,4.6c1.47,8.1,0.61,8.9,0,16.05c-0.2,2.36-0.17,6.99-0.42,8.53
		C163.08,235.61,163.08,240.8,161.51,238.94z M167.33,289.93c-0.05,0.16-0.11,0.29-0.17,0.37c-1.17-0.19-1.12-1.81-0.88-2.95
		c0.3-1.42,0.56-2.2,1.44-2.4C167.55,286.63,167.42,288.3,167.33,289.93z M306.96,391.2c-0.84,0.37-1.69,0.73-2.54,1.06
		c-5.05,1.38-15.39,2.33-18.03,2.59c-2.58,0.25-9.82,0.1-14.91-0.03c-2.54-0.41-5.07-0.93-7.59-1.58c1.09-0.2,2.45,0.07,3.56,0.19
		c3.94,0.44,7.75-0.63,11.2-0.7c1.08-0.02,1.87,0.1,2.9,0.13l4.46-0.12c3.8,0,7.35-0.4,11.23-0.38c2.79,0.01,8.34-1.81,9.96-1.49
		C307.16,390.99,307.08,391.1,306.96,391.2z M321.91,385.64c-0.93,0.83-4.12,6.18-4.46,7.37c-0.48,1.63-0.65,1.83-1.37,3.08
		c-0.11,0.19-0.11,0.21-0.2,0.38c-1.78,3.24-3.49,8.8-4.46,10.42c-0.42,0.7-0.15,0.49-1.01,0.91c-3.06,1.51-1.54-2.41-0.95-4.6
		l0.9-7.11c0.55-2.38,0.07-3.83,0.02-4.64c0.87-0.45,1.74-0.92,2.61-1.41c0.89-0.5,2.04-1.3,3.34-2.25
		c0.76-0.44,1.49-0.84,2.19-1.11c1.03-0.39,0.98-0.75,1.81-1.29c1.28-0.82,2.78-1.45,3.86-2.33c0.84-0.69,0.94-1.1,2.12-1.09
		C325.89,382.83,322.49,385.12,321.91,385.64z M330.04,378.87l-2.48,1.98c-0.95,0.71-0.9,0.74-2.31,0.73
		c0.08-0.18,0.15-0.32,0.21-0.43c1.66-1.1,3.65-2.32,6.1-3.79C331.13,378.09,330.54,378.43,330.04,378.87z M338.66,358.28
		c-0.47,1.22-0.94,2.03-1.47,3.16c-0.91,1.95-1.11,3.03-2.42,4.55c-0.41,0.48-1.16,0.68-1.88,0.41c-1.86-0.68-0.08-8.58-3.51-15.31
		l-3.51-5.97c-2.16-3.24-4.28-2.89-4.19-5.22c0.03-0.82,0.51-1.1,0.52-1.75c0.02-0.8-0.51-0.94-0.57-1.91c0.76-0.24,1.21-0.11,1.6,0
		c0.19,0.53,0.34,1.08,0.44,1.66c0.71-1.56,2.47-2.1,5.14-2.49c-3.8-1.01-6.42-3.04-7.54-8.1c-12.97,2.51-23.24,2.57-33.35,2.35
		c-4.17-0.11-7.83-0.32-11.07-0.61l-5.45-0.88c-3.24-0.81-7.71-1.04-10.51-2.46c-0.73-0.37-1.52-0.34-2.38-0.7
		c-2.75-1.15-3.79-1.25-7.13-2.75c-1.47-0.66-3.43-0.85-5.04-1.35c-1.01-0.32-1.57-0.47-2.73-0.51c-0.91-0.04-2.41,0.15-3.03-0.31
		c-1.4,0.2-2.1,0.18-3.14,0.55c-2.91,0.11-5.05,0.88-5.84,2.81c0.52,0.2,1.08,0.31,0.94,2c-0.26,1.78-0.24,3.28,1.18,3.32
		c0.01-0.77,0.14-1.49,0.36-2.13l2.17,0.18c0.39-0.53,0.49-0.99,0.86-1.54c0.46-0.69,1.42-2.07,2.32-2.33
		c0.79-0.23,2.21-0.22,3.92-0.06c4.72,0.92,10.99,2.99,16.58,4.71l0.13,0.12c2.08,1.94,3.73,6.82-1.01,7.94
		c3.24,2.24,3.17,5.32,3.32,9.28c0.14,3.8-1.68,4.92-4.54,7.26c-1.85,1.51-2.04,0.8-4.65,1.16c-0.73,0.1-1.81,0.19-2.52,0.39
		c-0.85,0.24-0.97,0.87-1.42,1.64l1.12,1.98c3.83,0.12,6.74-2.01,16.71-1.1c1.52,0.14,3.12,0.04,4.53,0.2
		c1.31,0.15,2.62,0.5,3.95,0.65c1.5,0.17,2.88,0.07,4.4,0.28c3.86,0.54,8.25,0.7,12.04,1.68c2.43,0.62,2.63,0.98,3.99-0.67
		c0.33-0.4,0.16,0.09,0.48-0.69c0.68-1.64,0.58-2.58,3.6-3.37c1.35-0.35,2.95-0.07,4.18,0.22c1.35,0.32,6.67,2,7.56,1.47
		c1.98-1.19-1.22-8.66,5.56-5.86c1.03,0.42,0.72,0.48,1.47,1.04c0.48,0.37,1,0.59,1.46,1.06c2.49,2.53,4.1,2.84,4.73,8.19
		c0.25,2.14-0.32,7.45-1.14,8.99c-2.97,5.56-5.03,7.07-9.97,10.54c-1.32,0.92-1.47,1.06-3.29,1.74c-4.68,1.75-17.38,1.91-22.3-0.98
		c-1.54-0.9-4.53-3.64-6.22-4.02c-6.58-1.48-7.92,0.89-12.41,4.12c-0.58,0.42-1.26,0.64-2.25,0.5c-6.06-0.81-9.93-3.46-11.63-3.63
		c-8.22-0.8-5.32,3.42-9.94,5.45c-3.12,1.37-4.26-3.58-7.02-2.17c-0.13,0.55-0.06,1,0.11,1.36c-3.26-2.08-6.51-4.43-9.73-7.07
		c-13-11.25-22-17.52-30.82-24.37c3.2,1.86,6.48,3.48,9.64,5.57c1.53,1.01,3.31,1.65,4.69,2.86l2.03,1.84
		c0.53,0.32,0.3,0.01,0.81,0.55c0.7,0.73,0.4,0.62,1.38,1.13c2.2,1.16,2.77,3.96,4.7,5.37c1.27,0.92,2.75,1.29,3.21-0.67
		c-0.05-0.63-1.17-1.81-1.7-2.13c0.04-0.8,0.06-0.09,0.16-0.97c-2.8-1.05-5.24-7.95-4.5-10.48c0.84-2.87,2-5.56,3.41-8.18
		c0.78-1.44,2.16-3.4,2.6-4.97c0.82-2.94,0.43-7.22-0.99-9.81c-0.44-0.8-2.38-3.31-2.35-4.26l0.12-0.58
		c0.01-0.29-0.2-1.26-0.23-1.66c-0.05-0.66,0.12-1.21,0.12-1.67c0.02-1.14-0.33-2.03-0.08-3.54c0.61-3.71,1.58-8.47,4.16-11.15
		c1.16-1.21,2.49-2.59,4.03-3.71c0.67-0.49,1.73-1.03,2.39-1.48c2.53-1.71,4.76-2.3,7.14-4.47c7.57-6.9,1.99-7.88,4.74-11.9
		l1.92-1.96c0.5-0.48,0.43-0.56,1.22-0.57c0.22,1.06-0.33,3.08,0.03,4.91c0.2,1.04,0.24,1.06,0.84,1.92
		c0.77,1.1,0.16,1.53,1.45,1.34c0.17-1.91-1.78-2.38-0.5-7.63c0.83-3.41,2.28-4.82,4.11-7.13c1.82-2.31,4.99-3.25,5.82-5.79
		c0.18-0.53,0.08-1.46-0.07-2.05c-0.38-1.46-0.94-0.12-0.68-1.35c0.2-0.94,2.19-0.93,3.17-1.34c0.71-0.3,0.72-0.5,1.4-0.93
		l2.33-2.12c0.36-0.44,0.69-0.76,1.13-1.19c0.44-0.43,0.81-0.72,1.14-1.19c0.48-0.69,0.55-0.78,1-1.33
		c1.18-1.42,2.65-3.52,3.64-5.45c0.71-1.38,0.11-0.79,1.49-3.14c0.35-0.58,0-0.16,0.46-0.71c0.6-0.72,0.63-1.55,1.6-1.89
		c-0.26-1.4,0.37-2.57,0.93-3.6l0.61,0.3c-0.03,0.28-0.2,0.84-0.23,1.03c-0.05,0.37-0.07,0.13-0.01,0.48
		c0.31,1.91,3.4-1.71,3.93-2.07l4.99-1.82c2.84-0.39,5.45,1.56,6.24,3.86c1.13,3.29,0.89,8.9,0.53,12.42
		c-0.1,0.97-0.54,1.83-0.7,2.77c-0.43,2.45,0.21,3.75,0.79,5.87c0.74,2.72,2.39,19.58,1.89,21.22c-0.23,0.77-0.34,1.93-1.06,2.41
		c-1.69,1.13-2.61,1.76-5.16,1.55c-1.73-0.14-4.13-1.02-5.56,0.12c-1.16,0.93-1.94,2.4-4.07-0.11c-1.04-1.22-4.39-0.92-5.82-1.02
		c-1.87-0.12-4.01,0.17-4.7,1.77c-1.51-1.02-2.95-1.84-4.31-2.41c-1.35-0.56-4.35-1.25-5.93-0.46c-2.04-0.15-2.22,0.75-3.12,1.33
		c-0.07,1.35-0.06,2.16,1.24,2.89c0.71,0.39,2.1,1.19,2.83,0.84c-0.48-0.71-1.39-1.18-1.68-2.17c0.57,1.1,2.02,1.74,3.48,2.19
		l0.42,0.65c0.37,0.46-0.12,0.07,0.54,0.44c1.52,0.85,7.68,2.34,8.24,6.23c0.51,3.51-0.82,11.08,1.2,14.12l0.66,1.08
		c0.16,0.27,0.08,0.09,0.19,0.33c0.6,0.37,2.61,2.81,4.43,1.17l0.11-0.1c1.39,0.08,2.33-0.81,2.54-2.82
		c0.07-0.67,0.17-1.24,0.3-1.72c0.15-0.06,0.29-0.13,0.37-0.19c0.62-0.42,0.32-0.27,0.33-0.55c0.02-0.58-0.51-0.49,0.72-0.9
		c0.61-0.2,1.26-0.34,1.98-0.34l0.18,1.56c1.16,0.32,2.54,0.35,3.4-0.61c2.27,0.61,2.57-2.37,3.32-4.04
		c0.51-1.13,1.17-2.29,2.04-3.49c0.87-1.2,1.59-2.09,2.45-2.77c1.08-0.56,1.21-0.71,2.67-1.2c1.78-0.6,5.05-0.2,6.51-1.59l0.2-0.06
		c2.17-0.66,2.68-1.23,1.97-3.51c-1.11-3.55-5.32-2.54-7.93-1.54c-0.89,0.35-1.74,0.73-2.53,1.16l-5.04,1.83
		c-1.54,0.75-1.63,1.57-3.79,1.59c-0.09,0-0.18,0-0.26,0c-0.8-0.42-1.41-0.69-2-0.72c-0.45-0.29-0.88-0.59-1.45-0.74
		c-3.07-0.79-3.09,2.87-4.31,3.47l-1-1c0.27,0.04,0.56,0.04,0.89-0.02c1.03-2,2.87-3.51,5.43-2.65c4.33,1.45,3.17,1.02,6.55-0.64
		c1.01-0.5,2.09-0.65,3.17-1.1c0.96-0.4,1.63-0.98,2.81-1.44c1.07-0.4,2.07-0.83,3.2-1.06c2.22-0.44,2.39,0.23,4.06,0.37
		c-0.04-1.26-0.74-1.57-1.79-1.92c-1.25-0.41-1.4-0.74-2.48-1.22c-0.11-0.7-0.21-1.47-0.23-2.11c-0.03-0.87,0.2-1.44,0.16-2.08
		c-0.04-0.68-0.27-1.18-0.22-2.17c0.16-3.32-1.22-9.3-0.68-10.4c1.03,0.03,1.12,1.95,1.28,3.49c0.13,1.23,0.32,2.91,1.26,3.8
		l1.26,1.25c0.45,0.34,1.11,0.7,1.53,0.99c1.91,1.31,1.06,0.49,2.49,2.55c1.59,2.3,1.75,4.72,2.24,7.86
		c0.69,4.32-2.74,5.78-3.27,6.72c1.05,0.46,1.85-0.07,2.43-0.76c4.89-2.3,3.97-10.85,0.28-14.46c-0.19-0.15-0.37-0.31-0.54-0.47
		c-0.27-0.43-0.45-0.75-0.41-1.28c1.62-0.3,2.96,1.45,3.73,2.19l3.45,2.74c1.7,1.33,3.05,6.27,3.15,8.93
		c0.12,3.04-0.14,9.6,0.27,12.07c0.31,1.87,0.82,3.04,1.59,4.38c1.93,3.37,6.21,4.49,6.9,5.29c0.67,0.77,6.2,11.09,6.51,11.88
		c1.95,4.96,2.39,7.49,0.95,12.23c-0.15,0.51,0.07,0.35,0,1.16c-0.09,1-0.24,0.55-0.37,1.22c-0.32,1.74,0.42,3.9,2.64,3.4
		c1.44-1.12,0.83-5.33,1.45-7.2c1.59-0.01,2.67,4.8,2.74,6.27C339.56,353.71,340.05,354.72,338.66,358.28z M318.87,337.12
		c-0.69-0.03-1.34-0.66-1.87-1.12c-0.77-0.65-1.27-0.82-1.88-1.42c-1.75-1.73-2.98-0.23-3.37-2.13c-0.03-0.17-0.21-0.42,0.12-0.73
		C312.95,330.67,318.92,332.76,318.87,337.12z M294.78,336.35l-8.03-0.29c-0.63-0.11-5.36-0.37-7.27-1c-2.15-0.71-1.67-2-1.89-2.14
		c-0.04-0.88,1.14-1.68,2.03-1.69c0.49-0.01,2.56,0.47,3.45,0.56c2.69,0.29,5.01,0,7.73,0.42c2.23,0.35,5.19,0.46,7.39,0.13
		c1.54-0.22,6.19-0.67,7.57-0.56c0.71,2.73-0.61,4.19,1.73,6.11c1.2,0.15,2.22-0.39,3.36-0.02c0.18,1.01,0.02,0.53-0.19,1.02
		l-0.08,0.2c-0.14,0.38,0.02,0.31-0.31,0.65c-0.31,0.33-1.69,0.74-2.29,1.02c-3.73,1.74-6.56,1.98-10.72,1.52
		c-0.86-0.1-1.65-0.27-2.45-0.6c-1.01-0.41-1.42-0.49-1.43-1.81c1.21-1.12,2.46-0.81,3.15-2.71
		C296.21,336.71,295.36,336.51,294.78,336.35z M308.21,290.11c1.07,2.18,1.27,4.64,0.67,6.84c0.02-0.56-0.02-1.16-0.13-1.83
		C308.33,292.65,309.19,294.07,308.21,290.11z M383.91,306.31c0.18-1,0.34-1.23,0.44-2.41c0.09-1.03-0.03-1.64,0.77-1.93
		C385.68,302.68,385.96,305.95,383.91,306.31z M388.04,278.62c-1.9,1.19-2.25-4.31-1.69-5.23c0.57-0.94,2.99-0.66,4.06-0.15
		C390.57,274.84,388.41,278.39,388.04,278.62z M393.4,251.96c-2.46-0.19-1.34,1.93-3.08,3.35c-0.72,0.58-0.24-0.12-0.67,0.69
		c-0.84,1.56-0.31,0.4-0.95,1.36c-0.3,0.46,0.28,0.11-0.49,0.69c-0.64-0.78,0.59-3.82,0.95-4.65c0.89-2.07,0.66-0.4,1-1.7
		c0.28-1.09,1.48-4.32,2.31-4.57c0.06,0.15,0.07,0.14,0.06,0.4c0,0.07-0.02,0.2-0.04,0.27c-0.14,0.74-0.36,0.74-0.32,2.13
		c1.05,0.54,0.65-0.27,1.83,0.78C395.86,252.36,394.34,252.03,393.4,251.96z M393.56,141.95c0.75-0.54,1.9-0.18,3.03-0.61
		c-0.31-1.66-3.26-1.06-4.86-2.02l-0.24-0.16c-0.03-0.02-0.1-0.03-0.12-0.09c-0.02-0.06-0.08-0.06-0.12-0.09
		c1.2-0.56,2.52,1.12,3.7,0.19c0.04-1.11-0.66-1.01-1.6-1.43c-1.02-0.46-1.02-0.59-1.07-1.81c0.57-0.14,1.11-0.2,1.58-0.56
		c-0.89-1.53-5.68-1.13-6.02-3.04c1.49-0.71,3.18,0.29,4.66,0.22c-0.17-0.54-1.62-2.12-2.13-2.52c-0.97-0.78-1.71-1.17-2.55-1.87
		c-2.16-1.81-3.85-1.87-6.28-2.58c0.19-0.93,1.42-2.39,2.02-2.93c0.76-0.67,0.54-0.88,1.08-1.41c0.58-0.57,1.06-0.32,0.96-1.35
		c-1.75-1.02-6.39,0.43-8.7-0.93c-1.85-1.09,0.38-2.15,1.54-2.84c0.69-0.42,0.46-0.62,1.41-0.88c1.01-0.27,0.8-0.03,1.56-0.55
		c0.19-1.6-0.89-0.97-3.03-1.36c-1.09-0.2-3.16,0.09-3.82-0.19c1.19-0.88,5.06-1.35,5.5-2.62c-1.05-1.02-2.67-0.77-4.29-1.08
		c-1.21-0.23-2.6-0.98-3.86-1.3c0.26-0.39,0.48-0.47,0.99-0.7c0.68-0.31,0.57-0.1,0.86-0.72c-0.98-0.19-7.05,0.31-8.76,0.3
		c-2.6,0-6.7,0.12-7.14-2.18c0.21-1.8,5.9-3.71,7.61-5.59c0.48-0.53,0.56-0.47,0.72-1.08c-1.05-0.14-1.82,0.07-2.89-0.06
		c-2.44-0.29-11.44,0.74-11.75-1.85c-0.04-0.37,0.38-1.56,0.51-2.04c0.24-0.93-0.19-0.12,0.43-0.87c0.32-0.39,0.34-0.15,0.46-0.8
		c-1.14-0.4-1.15,0.39-2.48,0.57c-0.91,0.13-2.19,0.5-2.89,0.48c-1.61-3.18,0.03-2.99-0.3-3.68c-0.35-0.7-3.18,0.46-4.04,0.54
		c-0.23-1.11-0.94-1.13-0.41-2.81c0.33-1.05,1.3-0.62,1.32-2.23c-2.14,0.02-2.01,0.92-4.76,0.28c-2.87-0.67-1.93,0.73-3.83,0.85
		c-1.33-2.63,2.51-8.52,2.35-11.52c-1.49,0.12-0.55,1.16-2.71,1.96c-0.84,0.31-2.85,1.14-3.58,1.22c0.33-1.83,2.25-4.7,2.17-7.09
		c-1.06,0.02-2.56,1.68-3.24,2.44c-0.53,0.6-0.64,1.05-1.73,1.21c-0.88,0.12-1.61,0.14-2.44-0.19c-0.06-0.82,0.48-2.19-0.11-2.93
		c-1.2,0.03-0.66,0.65-1.23,1.45c-0.1,0.15-1.07,0.99-1.29,1.2c-2.11,1.98-4.95,2.39-6.63-0.33c-1.16-1.87-0.11-3.4-1.57-3.4
		c0,0.25-0.82,2.98-1.06,3.37c-0.3,0.5-0.58,0.79-1.36,0.93c-0.72,0.13-1.59,0.3-2.32,0.16c-0.09-1.11,0.47-2.43,0.43-4
		c-1.54,0.17-0.5,1.45-2.48,3.36c-4.16,4.03-4.06,2.02-6.16-1.55c-0.45-0.76-0.33-0.9-1.1-0.96c-0.38,0.74-0.13,1.17-0.56,2.04
		c-0.67,1.35-2.3,3.82-3.67,4.38c-2.13,0.88-3.56-1.98-4.44-3.3c-0.4-0.6-0.77-1.14-1.67-1.33c0.08,1.93,3.38,6.48,0.61,7.59
		c-3.22,1.3-4.64,0.42-6.7-2.44c-0.71-0.99-2.16-3.53-2.96-4c-0.02,2.25,0.85,3.86-0.03,5.65c-1.13,2.29,0.59,3.8,0.45,5.57
		c-0.13,1.53-0.42,1.36-1.4,1.85c-0.85,0.43-2.05,2.07-4.16-0.95c-0.4-0.57-0.61-1.66-1.56-1.83c0.51,2.53,2.31,4.61-0.84,5.65
		c-1.31,0.43-1.88-0.79-2.54-1.62c-1.12-1.38-1.25-2.5-2.26-2.54c-1.42,1.81,2.87,8.11-2.01,8.84c-2.15,0.32-2.5-1.33-3.29-2.5
		c-1.12-1.65-1.72-3.36-2.55-3.39l0.13,3.33c-0.91,0.65-1.55,1.46-2.4,0.26l-0.15-0.23c-0.02-0.04-0.06-0.08-0.08-0.12
		c-1.47-2.14-1.26-2.53-4.41-3.66c-3.56-1.28-2.98-2.6-5.36-4.23c-0.6-0.41-0.37-0.12-0.88-0.66c-0.47-0.5-0.25-0.56-1.07-0.67
		c0.21,1.18,1.04,1.78,1.48,2.9c0.41,1.03,0.75,2.21,1.01,3.36c-1.5,1.95-3.8,1.44-5.8,0.41c-1.15-0.59-4.5-2.7-5.48-2.89
		c0.23,0.79,0.64,0.84,1.06,1.35c0.78,0.94,2.95,3.7,1.55,4.73c-0.76,0.56-2.18-0.75-5.02-1.33c-0.59-0.12-1.73-0.84-2.24-1.23
		c-0.7-0.52-1.08-1.02-2.26-1.23l0.46,0.71c0.57,0.85,1.41,1.17,2.02,2.02c0.94,1.3,4.35,4.11,1.65,5.45
		c-3.64,1.81-8.61-3.14-10.36-3.36c0.52,1.15,2.65,2.39,2.78,4.28c-0.85,0.83-1.05,1.04-2.65,0.69c-1.77-0.39-3.27-1.26-4.8-2.12
		c-0.95-0.54-1.2-0.72-2.26-1.2c-1.71-0.79-2.64-1.52-4.66-2.26c-1.74-0.64-3.89-2.12-4.93-2.09c1.31,1.05,5.42,4.66,4.07,6.47
		c-1.49,1.99-3.07,0.06-5.47-1.4c-0.73-0.44-1.01-0.88-1.7-1.08c-0.08,1.05-0.02,0.51,0.23,1.24c0.29,0.83,0.08,0.61,0.23,1.33
		c0.11,0.56,0.16,0.35,0.5,0.96l1.84,2.75c0.34,0.6,0.54,2,0.5,2.78c-2.85,2.82-5.79-0.31-9.78-0.21c0.84,1.42,3.07,1.78,3.18,4.01
		c-2.07,0.75-2.17,0.36-4.43-0.07c-1.4-0.26-3.13-1.26-4.44-1.02l1.63,1.89c0.63,0.65,1.51,1.19,1.88,1.89
		c-1.4,0.3-2.93,0.74-4.48,0.63c-1.51-0.11-3.67-0.29-4.96,0.2c0.27,0.58,0.24,0.51,0.82,0.87c0.41,0.25,0.69,0.39,1.16,0.56
		c1.02,0.39,1.47,0.82,2.43,1.06l-0.86,0.8c-2.86,1.7-8,0.06-10.25,1.33c0.6,0.93,3.16,1.85,4.25,2.67c0.81,0.61,0.89,0.34,1.66,0.8
		c-1.62,2.66-6.98,3.55-7.81,4.11c0.97,0.66,3.6,0.29,4.5,1.46c0.27,0.47-0.04,1.13-0.39,1.47l-4.87,2.22
		c-0.58,0.29-0.23,0.07-0.47,0.34c0.67,0.43,1.4,0.4,2.1,0.83l1.85,1.04c2.02,1.1,1.38,4.47-0.25,5.7
		c-2.95,2.22-3.21,1.53-4.92,2.59l-0.37,0.21c-0.31,0.16-0.18,0.05-0.48,0.22c1.16,0.26,2.05,0.39,3.02,0.82
		c2.5,1.12,4.13,0.47,2.08,4.62c-0.59,1.19-0.81,1.69-1.96,2.44c-1.71,1.12-0.53,1.6-4.27,2.83c-1.11,0.36-1.09,0.12-1.43,1.11
		c3.75,0.9,3.93-0.22,2.84,3.89l-1.16,2.84c-0.46,1.08,0.15,2.65-0.24,3.7c-0.35,0.68-4.79,2.46-5.83,3.57
		c0.9,0.67,2.73,0.09,3.69,2.2c0.48,1.05,1.33,1.81,1.55,3.17c0.27,1.69,0.83,3.2,0.05,4.61c-0.76,1.37-2.02,2.64-2.3,3.49
		l1.54-0.19c0.97,1.25,0.8,2.23,0.17,3.7c-0.37,0.87-1.42,2.45-1.08,3.34c0.95-0.22,0.52-0.77,1.61-1.3
		c0.52-0.24,1.7-0.86,2.22-0.78c1.01,0.16,0.91,0.99,1.02,2.03c0.38,3.43,0.31,3.99-1.02,7.36c-0.59,1.5-1.75,2.89-1.51,4.55
		c0.91-0.31,1-1.14,2.6-1.35c1.37-0.19,1.62,0.79,1.99,1.82c0.14,0.4,0.25,0.81,0.33,1.21h0.01c-0.09,0.99-0.17,1.98-0.15,2.97
		c0.03,1.35-0.07,0.77-0.36,1.66c-0.29,0.9-0.27,2.51-0.52,3.55c-0.47,2.04-1.61,4.4-0.61,6.78c1-0.39,0.45-1.76,0.61-2.86
		c0.2-1.32,0.38-1.81,0.76-2.95c0.62-1.84,1.31-5.89,1.7-9.15h0.37c0.06-2,0.08-4.05,0.24-6.06l0-0.04l0-0.04l0-0.03v-0.01l0-0.03
		c0.07-0.7,0.15-1.39,0.28-2.07c0.38-2.14,0.46-3.36,0.43-4.32v-0.02c0.04-1.52-0.14-2.37-0.18-3.89c0.01-0.26,0.02-0.53,0.04-0.83
		c0.04-0.69,0.05-1.35,0.03-1.97c0.07-2.23-0.18-4.08-0.27-5.96c0.07-1.15,0.3-2.37,0.82-3.76c1.27-3.43,3.73-4.93,5.5-7.89
		c0.85-1.42,1.27-3.03,1.58-4.86c0.16-0.96,0.37-1.78,0.55-2.78c0.09-0.51,0.26-0.83,0.34-1.24c0.11-0.54,0.05-0.95,0.19-1.49
		c0.52-2.17,0.58-2.82,1.69-4.78c2.35-4.16,2.32-3.09,3.59-4.82l2.42-2.79c1.65-1.72,3.68-3.13,5.28-4.86l3.32-3.53
		c0.42-0.48,0.46-0.44,0.83-0.8c1.26-1.24,2.16-3.04,5.11-3.5c2.24-0.35,4.55-0.23,6.83-0.46c5.05-0.52,6.27-2.25,10.16-3.79
		c3.45-1.36,6.83-2.73,11.04-3.19c4.15-0.46,9.63-0.26,13.29,0.8c3.65,1.04,13.28,3.66,17.26,4.04c4.63,0.45,9.83,0.64,14.53-0.07
		c9.71,0.08,19.49-3.66,29.29-7.86c3.64-0.95,7.17-1.4,10.62-1.43c2.12,0.25,4.07,0.55,5.15,0.75c3.71,0.72,7.32,1.99,10.9,3.15
		c1.91,0.62,3.5,1.3,5.16,1.93c2.21,0.84,2.71,0.78,4.93,1.96c0.68,0.36,1.64,0.78,2.35,1.16c0.77,0.41,1.33,0.95,2.1,1.38
		c1.64,0.91,3.1,1.38,4.47,2.35c1.33,0.93,2.53,1.84,4.09,2.85c2.1,1.37,4,2.94,5.91,4.48c0.78,0.63,1.14,0.76,1.93,1.53
		c0.34,0.33,0.55,0.37,0.92,0.72c0.27,0.25,0.51,0.58,0.77,0.85c1.65,1.72,3.67,3.36,5.07,5.22c0.85,1.13,2.2,2.42,3.27,3.41
		c0.72,0.66,0.87,1.32,1.48,1.92c0.99,0.97,0.69,0.75,1.26,2.12c0.64,1.56,1.2,3.09,1.85,4.63c0.58,1.38,1.88,2.9,2.59,4.17
		c0.92,1.64,2.44,5.75,2.85,8.61c-0.16,1.64-0.43,3.47-0.69,5.03c-0.76,4.51-0.42,2.14-1.43,5.78c-0.71,2.59-2.33,9.44-2.53,11.92
		c-0.1,1.19-0.25,2.37-0.42,3.55h-0.76c-0.21,1.44-0.38,2.88-0.47,4.35c-0.13,2.14-0.21,4.65-0.29,6.95
		c-0.06,1.94,0.27,5.77-0.09,7.37c0.79,1.22,0.16,3.85,0.53,4.77c0.52,1.28,0.14,0.35,0.53,2.71c0.3,1.85,0.6,3.65,0.91,5.5
		c0.37,4.44,0.6,8.59,0.27,12.29c-0.29,1.92-0.7,3.78-1.16,5.55c-1.23,4.67-3.33,8.46-4.37,13.23c-0.12,0.56-0.27,1.3-0.46,1.85
		c-0.3,0.89-0.17,4.51-0.08,5.55l0.08,0.89c-0.39-2.55-0.85-5.16-1.38-7.82c3.13,33.84-2.96,62.14-17.5,82.44
		c-1.81,1.68-4.39,3.91-5.29,4.48c-1.33,0.83-2.71,1.59-4.25,2.33c-1.49,0.72-3.68,1.56-5.59,0.96c-2.24-0.71-1.86-1.92-2.71-3.89
		l-2.7-7.23c-0.2-0.92-0.25-1.89-0.42-2.82c-0.39-2.25-0.22-3.57,0.17-5.81c0.6-3.43,2.44-7.96,1.8-11.23
		c-0.31-1.61-3.47-5.87-4.55-8.8l-0.58-1.17c-1.08-1.55-3.15-6.21-3.64-7.77c-0.22-0.71-0.76-1.66-1.16-2.14
		c-1.27-1.53-3.7-2.41-5.79-4.08c-0.62-0.5-1.28-0.85-1.92-1.37c-0.8-0.64-1.02-1.04-1.7-1.59c-2.29-1.88-5.16-4.73-4.89-8.09
		c1.15-0.87,2.2-1.03,3.96-1.06c1.67-0.03,3.1-0.24,4.66-0.29c1.89-0.06,2.39,0.56,4.26-0.05c0.74-0.23,1.18-0.71,0.3-1.31
		c-1.54-1.06-0.27-0.32-1.09-1.47c-1.2-0.43-1.28,0.05-2.57-0.07l-7.99-0.74c-4.47-0.83-6.62-0.44-9.34-1.09l-1.09-0.49
		c4.41-0.14,10.93,0.36,15.37,0.7c2.49,0.19,4.95,0.08,7.56-0.06c1.56-0.08,4.23,0.5,6.23-0.32l0.58-0.41
		c-0.06-1.23-0.57-1.19-1.77-1.13l-7.81-0.59l-18.51-1c-6.38-1.17-5.34-0.31-9.3-3.47c-0.89-0.71-1.83-2.91-2.29-4.1
		c-1.16-2.98-0.65-3.14-0.76-3.74c-0.2-1.04-1.01-2.4-1.2-3.62c-0.23-1.49-0.16-1.27-1.01-2.12c1.05-0.15,1.58-0.22,2.04-0.94
		l-0.74-0.32c-0.76-0.28-0.75-0.23-1.24-1.06c-0.41-0.69-0.65-1.52-1.28-2c1.31-1.5-0.06-1.14,1.3-1.24
		c0.43,0.62,0.52,1.48,1.15,1.87c0.48,0.3,1.75,0.46,2.4-0.08c0.92-0.76,0.27-2.26,0.51-4.8c-2.56-1.42-1.66-0.83-3.03-3.32
		c-0.7-1.27-1.22-2.96-1.45-4.74c0.26,0.03,0.51,0.06,0.76,0.11c-0.03-0.87-0.03-1.69-0.01-2.46l0.02,0.02
		c0.59-1.09,0.12-1.28,1.08-2.37c0.17-0.19,0.53-0.59,0.93-0.9c-0.42,1-0.54,2.17-0.58,3.38c0.37-1.36,0.91-2.57,1.74-3.55
		l0.01-0.02c0.47,1.05-0.22,1.17-0.76,1.94c0.12,1.21,0.31,2.31,1.15,2.82c2.48,1.51,1.92-1.32,8.02,3.59
		c1.31,1.05,4.16,2.46,4.83,2.91c1.35,0.9,0.32,1.29,2.1,1.78c0.98,0.26,2.7,1.26,2.87-0.13c0.17-1.41-1.58-1.74-2.43-2.44
		c-1.01-0.85-1.67-2.23-1.4-3.95c1.42,0.15,2.33,0.83,3.81,0.85c-0.25-1.51-0.65-0.96-0.88-2.14c-0.35-1.84,0.24-3.39,1.45-4.56
		c0.31-0.3,0.54-0.46,0.84-0.72c0.39-0.34,0.28-0.47,0.93-0.41c0.04,1.08,0.07,3.11,0.35,4.08c0.12,0.43,0.53,1.2,0.74,1.59
		c0.83,1.56,1.42,2.68,3.2,3.57c5.45,2.73,7.9,0.72,11.36-2.12c0.46-0.37,1.48-2.46,1.67-2.97c0.15-0.44,0.06-0.53,0.16-0.97
		c0.09-0.38-0.07-0.03,0.15-0.46c0.4-0.76,1.01-0.29,1.81,0.01c0.16,1.81,0.2,1.65,0.71,3.01c1.16,0.02,1.33-0.46,2.43,0.09
		c1.16,0.58,0.57,0.9,2.11,1.04c-0.02-2.31-2.31-5.7-4.69-6.57c-1.17-0.43-1.58-0.37-1.71-1.09c3.32,0.21,6.6,0.45,9.82,0.7
		c5.42,0.53,9.45,1.32,11.76,5.95c0.05,0.34,0.14,0.54,0.32,0.7c0.52,1.22,0.94,2.68,1.25,4.43c-0.28-1.44-0.43-2.84-0.7-4.14
		l0.71,0.25c0.75,2.19,0,3.68,0.58,5.8l1.26,0.21c0.25-0.84,0.22-1.18,0.52-1.46c0.98,0.08,2.28-0.38,3.66-0.96
		c0.18,0.19,0.42,0.46,0.8,0.82c0.36-0.02,2.17-0.15,2.2-0.16c0.77-0.29,1.01-1.68,0.7-3.01l1.18-3.21
		c-0.77,0.41-1.55,0.82-2.3,1.19c-0.14-0.12-0.28-0.22-0.43-0.3c-0.93,0.36-0.56,0.64-1.57,0.81c-1.09,0.19-0.61-0.09-1.57,0.57
		c-0.93,0.63-0.75,0.28-1.37,0.43c-0.15-0.01-0.29-0.04-0.42-0.07c-0.97-5.82-3.22-9.47-7.53-10.69c-8.92-1.6-18.07-2.35-27.26-2.68
		c-0.39-0.12-0.75-0.29-1.07-0.51c0.27-1.6,0.9-1.54,2.1-2.27c1.13-0.7,1.97-0.7,3.34-1.1c2.12-0.61,5.52-0.73,7.31-1.62
		c-0.28-1.12-0.9-1.37-2.35-1.38c-3.86,0-6.16,0.69-9.49,0.98c-3.24,0.28-6.41,0.82-9.54,0.85c-0.54,0.01-0.99-0.27-1.48-0.1
		c-1.11,0.38-0.03,0.19-0.57,1.14c-1.14,0.15-1.56-0.27-2.48-0.12c-0.8,0.12-1.1,0.52-2,0.72l-6.88,1.25
		c-3.04,0.4-5.05,1.35-6.8,1.03c-7.13-1.31-7.3-7.91-10.3-11.23l-0.88,0.06c-0.31,3.18,2.12,7.96,3.62,10.82
		c0.53,1.01,1.54,2.18,1.93,3.18c-1.88,0.8-3.27,0.52-5.44,0.34c-2.18-0.18-3.63-0.12-5.8-0.45l-8.43-0.79l-0.37-0.04
		c-0.51-0.66-1.12-1.3-1.66-1.76c0.02-0.19,0.03-0.45,0.02-0.85c1.47-0.78,0.55-0.76,1.19-2.67c0.29-0.84,0.85-2.25,0.67-3.06
		c-0.98,0.08-1.19,1.61-3.15,2.91c-2.82,1.87-7.01,0-9.93-0.71c-2.93-0.72-1.88-0.02-4.88-1.42l-0.51-3.32l-0.9-0.57
		c-0.29-0.13-0.75-0.33-1.08-0.47c-1.12-0.46-1.55-0.15-2.48-0.41c-0.6-0.17-0.99-0.7-1.95-0.98c-2.91-0.84-1.72,2.04-6.94-0.42
		c-1.34-0.63-2.56-1.48-4.05-1.95c-1.36-0.43-3.07-0.94-4.2-1.56c-0.65-0.36-1.9-0.2-2.67-0.29c-0.93-0.1-1.65-0.28-2.68-0.42
		c-2.34-0.32-7.81-2.78-9.44-1.81c-0.18,1.41,1.25,1.25,2.35,1.76c0.9,0.41,1.93,1.06,2.49,1.84c-0.41,0.67-0.84,0.91-1.75,0.72
		c-0.95-0.2-0.87-0.58-1.53-1.2c-1.26-1.17-2.29-0.81-4.35-0.84c-1.85-0.03-3.27,0.19-5.14-0.12c-1.88-0.31-3.06-0.63-3.59,1.38
		c2.57,0.27,5.18,0.54,7.76,0.67c5.28,0.28,3.99,1.47,6.66,1.83c1.22,0.17,2.62,0.22,3.7,0.57c2.58,0.83,3.27,0.27,6.1,2.41
		c0.8,0.6,1.89,1.6,2.18,2.23c-4.12-0.12-8.34,0-12.5-0.01c-1.75-0.07-3.39-0.13-4.9-0.15c-0.5-0.05-1-0.1-1.43-0.1
		c-0.43,0-0.89,0.04-1.36,0.08l-0.01,0h0c-0.54,0-1.09,0.01-1.64,0.04c-4.39-0.15-7.18,0.46-9.65,3.63c-1.04,1.34-1.2,5.2-2.04,6.69
		l-0.98-0.06l-0.05-0.99c-1.23-0.13-0.44,0.3-1.68,0.32c-0.54,0.01-1.21-0.27-1.81-0.39c-0.16-0.03-0.3-0.05-0.43-0.07
		c-1.89-0.57-3.76-1.19-5.58-1.89c-0.28-0.16-0.58-0.26-0.94-0.37c-5.75-2.34-10.97-5.63-14.82-11.34c0.27,0.81,0.62,1.62,1.06,2.43
		c-0.27-0.41-0.56-0.89-0.98-1.53c-0.36-0.56-0.39-0.69-1.1-0.83c0.21,0.69,0.49,0.71,0.64,1.2c0.08,0.25-0.12,0.37,0.39,1.03
		c0.02,0.04,0.06,0.08,0.09,0.11c0.02,0.04,0.06,0.08,0.08,0.11l0.95,1.27c0.06,0.22-0.11,0.44,0.15,1.07
		c0.44,1.06,1.54,1.08,2.39,1.72c0.36,0.27,0.58,1.12,2.4,1.46c0.23,0.18,0.47,0.35,0.71,0.53c-0.52-0.12-0.04,0.06-0.26,0.18
		c0.49,0.39,9.21,4.96,9.67,5.04l0.11-0.48c0.57,0.21,1.16,0.41,1.77,0.61c0.02,0.11-0.05,0.22-0.39,0.89
		c0.96,0.05,1.34,0.31,2.19,0.39c0.87,0.09,1.34,0.05,2.24,0.21c1.48,0.24,2.89,0.48,4.07,0.94l0.03,1.36
		c0.75,0.25,1.7,1.36,1.75-0.45c0.1-3.55,1.26-8.05,4.14-10.19c2.21-1.64,7.13-1.17,9.82-1.17c4.53-0.01,8.8,1.25,13.35,1.06
		c5.71-0.22,14.56,0.38,20.26,1.27c3.56,0.56,9.17,1.07,12.34,2.14c3.56,1.21,7.47,1.38,9.08,5.47c1.07,2.71,0.5,3.58,0.6,6.46
		c0.03,0.95-1.46,11.11-2.79,12.04c-0.88-0.2-1.11-1.18-1.17-2.17c-0.06-0.85,0.41-1.86,0.51-3.1c-0.19-0.66-1.93-2.38-2.95-0.91
		c-0.02,0.03-0.05,0.09-0.07,0.12c-1.18,1.72-2.27,0.46-2.18,3.89c-0.46,0.46-0.77,0.42-0.97,1.09c-0.2,0.61,0.08,1.19,0.44,1.66
		c1.63-0.83,0.64-0.44,2.24-0.18c0.92,0.15,0.72-0.61,2.02-0.61c0.27,0.11,0.93,1.29,1.4,1.65c0.39,0.29,0.03-0.09,0.32,0.25
		c-0.77,2.26-2.2,4.35-3.42,6.24c-0.56,0.88-0.67,1.51-1.64,1.7c0.38-1.54,1.25-2.62,1.61-4.16c-1.08,0.28-1.47,1.71-1.99,2.38
		c-1.9,2.42-3.52,4.94-6.45,6.51c-4.15,2.23-7.85,3.81-13.66,3.7c-1.36-0.03-2.37-0.22-3.67-0.16c-1.46,0.06-2.61-0.1-4.03-0.24
		c-5.3-0.52-13.13-1.52-18.18-3.44c-0.95-0.36-2.17-1.27-3.09-1.24c-0.11,1.53,0.75,1.47,1.27,2.86c0.74,1.97,3.1,2.82,4.92,3.61
		c1.68,0.73,1.33,0.84,2.36,1.9c1.98,2.06,3.98,1.3,6.69,1.12c2.34-0.15,5.69-0.74,7.29,0.71c0.33,1.57,0.23,2.25-1.05,2.76
		c-2.75,1.1-8.16,3.9-9.27,6.98c-0.22,0.6-0.38,0.83-0.7,1.23c-1.53,2,0.39,2.01-3.02,3.18c-1,0.35-2.21,0.44-3.3,0.75
		c-1,0.29-2.13,0.56-3.12,0.96c-0.91,0.36-1.99,1.27-3.06,0.56c-1.01-0.68-2.43-3.41-5.22-2.87c-0.89,0.18-2.11,0.95-2.82,1.27
		c-0.78,0.36-0.68,0.07-1.27,0.66l-1.17,0.96c-2.04,1.31-2.98,3.09-5.11,2.77c0.33-1.58,1.75-2.42,1.65-4.56
		c-0.84-0.33-3.22-1.34-4.11-0.92c0,0-0.44,0.33-0.54,0.4c-0.23,0.16-0.36,0.22-0.61,0.37c-3.05,1.79-5.54,4.35-7.91,6.99
		c-0.62,0.7-1.71,5.21-0.94,6.09c0.04,0.05,0.19,0.72,1.14-0.07c0.44-0.36,0.38-0.57,0.78-0.97c0.34-0.34,1.54-1.2,1.99-1.49
		c1.86-1.23,2.5-2.05,4.71-0.48c-0.37,1.06-1.16,1.42-1.38,2.5c-0.22,1.08-0.17,2.49-0.44,3.34c0.44,0.48,2.96,2.47,4.3,1.24
		c0.64-0.58,1.26-1.05,2.22-0.73c4.05,1.32,2.06,0.61,3.94,4.6c1.1,2.34,3.96,4.91,4.04,6.84c0.1,2.8-1.79,5.38,1.49,5.94
		c0.57-0.45,0.79-1.12,1.15-1.7c2.6-4.28,3.77,4.04,5.2,7.58c0.9,2.24,0.06,6.09-0.83,8.21c-0.55,1.32-1.78,2.71-2.7,3.69
		c-0.8,0.85-1.12,0.81-1.85,1.44c-1.29,1.1-3.27,1.47-5.05,0.99c-1.22-0.33-3.32-1.81-3.94-2.44c-0.97-1.01-3.37-4.27-3.56-1.25
		c-0.04,0.63,0.01,0.69-0.16,1.22c-0.54,1.73-4.58,5.79-8.66,2.91c-1.32-0.93-2.01-1.43-3.03-2.39c-1.85-1.73-3.32-3.65-5.12-5.51
		l-2.48-2.76c-0.72-0.95-1.42-2.41-1.98-3.43c-0.68-1.26-1.29-1.9-1.92-3.29c-0.1-0.23-0.21-0.44-0.32-0.65
		c-5.57-13.17-7.55-28.9-6.71-46.13c0.1-0.65,0.25-1.37,0.43-2.22c0.14-0.62,0.46-1.1,0.6-1.9c0.15-0.9-0.04-1.29,0.09-2.18
		c0.27-1.79,0.33-2.99,0.84-4.61c1.58-5.03,3.09-17.78,3.57-23.1c0.34-3.8,1.12-17.85,1.52-19.96c0.17-0.92,0.53-4.47-0.21-5.27
		c-0.26,1.06-0.06,2.53-0.11,3.76c-0.06,1.21-0.31,2.41-0.42,3.58c-0.45,5-0.44,9.96-1.21,14.9c-0.27,1.7-0.53,1.82-0.73,3.31
		c-0.11,0.85-0.31,2.57-0.92,3.21l-0.12-0.3c-0.06-0.19-0.08-0.27-0.13-0.48l-0.58-3.47c-0.09-0.34-0.09-0.62-0.2-0.94
		c-0.19-0.58-0.55-0.85-1.08-0.99c-0.49,1.07-0.18,1.94-0.48,2.97c-0.29,1.02-0.04,0.46-0.52,0.56l-0.77-3.63
		c-0.39-1.49,0.16-2.89-0.77-3.84c-0.8,1.03,0.36,2.94-0.97,3.71c-0.92-1.7-0.52-6.37-1.35-7.73c-0.68,0.16-0.67,0.6-0.5,1.24
		c0.38,1.37-0.08,4.94-0.08,6.64c0.01,5.15,0.48,11.29,2.7,15.85l1.55,3.11c0.21,0.4,0.55,1.21,0.6,1.77
		c0.05,0.62-0.1,1.39-0.6,1.81c-0.75-0.35-1.03-1.43-1.46-2.1c-2.21-3.47-2.71-0.95-1.77,2.19c0.35,1.18,0.71,2.39,0.84,3.72
		c0.17,1.75,1.05,7.3,0.46,8.52c-0.51-0.16-0.61-0.56-0.88-1.09l-0.92-1.97c-0.31-2.77-1-5.99-1.45-8.56
		c-0.24-1.38-0.73-2.3-1.01-3.66c-0.48-2.28-1.2-5.7-1.12-8.21c0.06-1.7,0.03-3.04-0.11-4.33c0.71,0.2,1.06,1.21,1.19,1.91
		c0.24,1.25,1.51,6.59,2.49,7.2c-0.01-0.9-3.1-10.96-2.82-15.57l0.52-3.7c0.23-0.68,0.19-0.78,0.59-1.14
		c-0.3-0.15-0.44-0.17-0.74-0.34c-0.11-1.42,0.03-3.2,0.21-4.54c0.15-1.12-0.17-1.26,0.02-2.22c0.01-0.03,0.03-0.08,0.03-0.12
		c0.07-0.63-0.25-0.22-0.03-1.41c0.2-1.04,0.36-1.7,0.41-2.78l0.5-5.56c0-1.23,0.16-2.63-0.1-3.79c-0.36-1.61-0.16-2.74-1.18-6.39
		c-0.23-0.82-0.4-1.6-0.73-2.34c-0.37-0.83-0.47-1.56-0.8-2.5c-1.4-3.99-1.31-2.59-4.47-3.31c-0.31-0.07-0.54-0.15-0.73-0.22
		c-1.69-36.78,9.06-72.23,26.63-103.42l0-0.01l0.52-0.93l0.16-0.1l0.1,0.13l0.33-0.39c-0.07,0.04-0.14,0.08-0.21,0.11
		c0.54-0.46,0.97-1.09,1.32-1.55c0.52-0.67,0.38-0.32,0.85-1.25c0.29-0.56,0.5-0.77,0.85-1.25l8.27-8.96
		c0.51-0.5,0.69-0.39,1.17-0.95c0.5-0.58,0.39-0.56,1.02-1.08l2.49-1.93c0.48-0.44,0.44-0.63,1.04-1.06
		c0.44-0.32,0.84-0.54,1.24-0.87c1.55-1.28,3.14-2.6,5.02-3.61c0.44-0.24,0.9-0.36,1.44-0.69c1.1-0.68,0.02-0.23,1.28-1.02
		c5.12-3.21,29.05-11.49,33.62-11.81c2.28-0.16,2.55-1.3,5.44-0.9l5.64,1.12l7.46-5.12l4.72-1.29c0.86-0.08,1.71-0.15,2.53-0.25
		c1.66-0.2,3.38-0.37,5.12-0.51l30.03-0.67l18.37,2.99c2.13,0.47,4.06,0.84,5.52,0.93l5.68,1.23c0.62,0.21,1.85,0.73,3.19,1.33
		l15.16,8.18l1.6,1.21c0.07-0.24,0.02-0.14,0.56-0.22c-0.02,0.06-0.04,0.18-0.14,0.41c0.04,0.03,0.08,0.09,0.1,0.11
		c0.75,0.84,2.2,1.83,3.21,2.03c3.27,0.66,2.07,0.94,3.99,1.41c0.99,0.24,1.1,0.34,1.98,0.69c1.18,0.46,7.17,4.47,7.97,5.47
		c0.62,0.78-0.02,1.02,0.25,2.01c0.71,2.55,4.45,5.19,6.2,7.2c0.89,1.02,1.42,2.02,2.27,3.08c1.92,2.41,1.97,1.83,2.98,5.04
		c0.33,1.04,0.62,1.06,0.05,1.99c-0.8,1.3-1.81,2.19-0.22,3.49c0.84,0.69,2.33,1.29,3.33,2.05c0.48,0.36,1.04,0.68,1.69,1
		c1.08,0.52,0.91,0.21,1.33,1.35c0.35,0.96,0.9,3.08,1.39,3.94c0.68,1.21,2.17,1.11,3.79,1.42c0.33,0.57,1.3,2.09,1.48,2.53
		c0.29,0.71,0.25,2.61,0.29,3.49c0.14,3.29,0.56,3.29,1.79,5.88c-0.43,1.85-1.56,1.63-0.76,4.11c0.28,0.89,0.46,1.23,0.71,1.94
		c0.22,0.65,0.37,1.47,0.61,2.08c0.26,0.65,1.43,3.09,1.76,3.58c0.47,0.7,0.77,0.9,1.15,1.53c0.36,0.61,0.72,1.24,0.96,1.74
		c-1.7,2.24-1.26,0.11-1.74,3.84c-0.18,1.37,0.14,1.39,0.27,2.55c0.15,1.3-0.28,0.95-0.92,1.53c-1.25,1.14-0.5,7.47-0.54,9.53
		c-0.6,0.55-1.87,1.64-2.71,1.65c-2.06-2.41-2.2-4-2.62-7.2C394.65,146.93,392.49,143.31,393.56,141.95z M319.09,230.87
		c-0.3-0.05-0.59-0.1-0.88-0.16c-1.18-0.23-10.45,0.05-12.08,0.21c-2.83,0.27-4.91,1.04-6.04,3.33c0.58-2.42,1.96-3.98,5.01-4.5
		c2.73-0.14,5.79-0.31,9.33-0.44c2.85,0.14,6.27-0.12,9.33-0.21c1.11,0,2.27,0,3.46,0.01c5.6,0.19,17.31,1.12,22.1,1.65l10.76,2.04
		c0.65,0.3,1.39,0.88,1.79,1.5c0.45,0.69,0.81,1.58,1.07,2.5c-1.37-2.02-4-3.52-9.57-4.14c-5.94-0.54-11.88-0.98-17.82-1.29
		c-2.46-0.15-4.86-0.28-5.57-0.29c-0.31,0-0.62,0-0.92,0C325.72,230.96,322.41,230.89,319.09,230.87z M326.52,234.12
		c-0.44,0.13-0.74,0.43-0.74,0.78v0.02c-0.49,0.19-0.94,0-0.76-1.16C325.92,233.44,326.09,233.68,326.52,234.12z M402.69,238.63
		c-0.29,0.96-0.45,1.18-0.79,1.94c-0.76,1.73-0.73,2.5-1.19,4.42c-0.33,1.4-2.59,6.79-3.26,7.97c-0.3,0.54-0.2,0.18-0.49,0.87
		c-0.29,0.71-0.9,2.35-1.39,2.65l0.05-0.53c1.13-4.08-0.59-2.44-0.32-4.02c0.07-0.38,0.14-0.2,0.25-0.59
		c0.01-0.03,0.02-0.09,0.03-0.12l0.02-0.39c0.08-0.86,0.05-0.38,0.32-1.18c1.06-3.21,0.96-5.35,1.76-8.06
		c0.46-1.58,0.58-3.88,0.99-5.58c0.42-1.73,0.96-3.31,1.34-5.23c0.47-2.35,1.59-8.49,3.82-9.37c1.43-0.57,1.95,1.07,3.76,2.55
		C407.63,227.61,403.79,234.96,402.69,238.63z"/>
	<path class="st1" d="M533.14,525.63c-1.01-0.86-1.87-2.44-3.26-5.27c-0.11-0.23-0.11-0.35,0.11-0.46c0.97-0.48,2.23-1.29,2.23-3.16
		c0-1.35-0.63-2.4-1.85-3.12c-0.8-0.48-2.34-0.76-4.13-0.76c-2,0-3.64,0.09-5.22,0.19c-0.25,0.1-0.25,0.63-0.04,0.74l0.57,0.08
		c0.88,0.13,0.93,0.36,0.93,2.46v7.45c0,1.94-0.13,2.08-1.07,2.25l-0.57,0.11c-0.17,0.11-0.17,0.61,0,0.74
		c1.09-0.04,2.02-0.06,3.07-0.06c1.01,0,1.98,0.02,3.1,0.06c0.15-0.13,0.15-0.64,0-0.74l-0.57-0.11c-0.95-0.17-1.08-0.32-1.08-2.25
		v-2.59c0-0.42,0.04-0.46,0.78-0.46c0.53,0,0.86,0.17,1.12,0.74c0.48,1.11,0.97,2.15,1.64,3.26c0.93,1.52,2.15,2.21,4.08,2.21
		c0.65,0,1.33-0.04,1.66-0.19c0.11-0.13,0.11-0.44-0.08-0.55C534.23,526.2,533.69,526.07,533.14,525.63z M528.25,519.23
		c-0.4,0.4-0.84,0.59-1.6,0.59c-1.24,0-1.31-0.06-1.31-0.8v-4.1c0-1.01,0.04-1.07,0.91-1.07c1.64,0,2.76,1.22,2.76,3.12
		C529.01,518.2,528.61,518.87,528.25,519.23z"/>
	<path class="st1" d="M527.09,507.48c-3.57,0-6.8,1.45-9.13,3.79c-2.34,2.34-3.78,5.57-3.78,9.13c0,3.57,1.44,6.79,3.78,9.13
		c2.34,2.34,5.57,3.78,9.13,3.78c3.57,0,6.8-1.45,9.13-3.78c2.34-2.34,3.78-5.56,3.78-9.13c0-3.57-1.44-6.8-3.78-9.13
		C533.88,508.93,530.65,507.48,527.09,507.48z M534.72,528.03c-1.96,1.95-4.65,3.16-7.64,3.16c-2.98,0-5.68-1.21-7.64-3.16
		c-1.95-1.95-3.16-4.65-3.16-7.64c0-2.98,1.21-5.68,3.16-7.64c1.95-1.95,4.65-3.16,7.64-3.16c2.98,0,5.68,1.21,7.64,3.16
		c1.95,1.96,3.16,4.66,3.16,7.64C537.89,523.38,536.68,526.08,534.72,528.03z"/>
	<path class="st1" d="M359.82,578.7l-5.06,0.44c-1.81,1.13-1.72,4.46-0.07,5.52c7.22,0.19,13.33,0.5,21.16,1.05
		c8.14,0.56,16.58,1.25,24.07,2.08c1.48-0.84,1.42-4.64,0.54-5.49l-5.88-1.35c-5.73-1.34-6.89-5.04-9.52-14.63l-17.04-62.79
		c-3.15-11.38-4.62-17.3-5.56-21.93c-0.46-2.39-1.35-3.24-3.38-3.38c-0.31-0.02-6.63,7.25-14.26,8.45
		c0.16,4.57-2.88,9.86-7.16,19.47l-16.88,37.2c-5,10.95-8.49,18.25-11.59,24.3c-3.08,5.92-6.3,6.95-10.09,7.17l-4.26,0.18
		c-1.18,1.17-1.57,4.48,0.09,5.54c7.2,0.49,10.83,0.33,16.15,0.7c6.56,0.61,12.2,0.95,17.66,1.64c1.62-0.68,1.56-4.32,0.69-5.48
		l-4.64-1.11c-4.33-1.09-6.3-2.16-6.23-3.1c0.09-1.25,0.33-2.49,1.49-5.56l7.35-17.71c1.14-2.88,1.62-3.01,5.38-2.75l18.62,1.29
		c5.48,0.38,6.71,0.78,7.32,3.31l3.29,13.75c1.48,5.89,2.32,9.72,2.24,10.82C364.17,577.27,363.47,578.32,359.82,578.7z
		 M351.17,540.1l-14.71-1.02c-3.91-0.27-4.66-0.79-2.96-4.92l4.72-11.47c2.85-7.03,6.56-15.27,8.06-18.78
		c1.18,3.38,3.41,12.03,5.14,18.91l3.19,12.96C355.59,539.93,354.77,540.35,351.17,540.1z"/>
	<path class="st1" d="M433.31,571.04c-2.74,14.28-3.9,15.33-11.01,14.92l-6-0.35c-1.42,0.74-1.79,4.34-0.58,5.53
		c9.61,1.53,17.34,2.85,24.43,4.21l20.64,3.96c12.63,2.43,27.39,5.42,35.5,7.29c2.95-3.75,9.11-15.82,11.42-23.68
		c-0.73-2.06-4.15-3.35-5.68-2.05c-12.52,16.12-16.92,15.76-30.94,13.07c-11.25-2.16-13.78-3.92-15.28-6.93
		c-1.53-2.85-1.2-7.9,0.19-15.14l10.35-53.92c2.75-14.33,3.91-15.38,11.05-15.13l4.12,0.15c1.41-0.69,2.09-4.23,1.04-5.39
		c-7.76-1.17-15.49-2.49-22.89-3.91c-7.4-1.42-15.07-3.05-23.02-4.89c-2.03,0.57-2.71,4.11-1.34,5.33l4.35,1.47
		c6.75,2.26,7.41,3.82,4.66,18.15L433.31,571.04z"/>
	<path class="st1" d="M135.16,542.59c6.44-4.85,14.62-12.42,12.1-26.15c-1.81-9.87-7.86-16.74-17.77-20.33
		c-6.52-2.47-18.15-2.41-31.26,0c-14.66,2.7-26.58,5.53-38,8.42c-1.71,1.11-1,4.97,0.68,5.46l4.28-0.15
		c6.65-0.26,7.27,1.37,10.11,16.8l10.03,54.59c2.6,14.17,1.88,15.42-4.84,17.93l-4.02,1.54c-1.09,1-0.4,4.72,1,5.43
		c7.97-1.79,14.73-3.13,22.45-4.55c7.41-1.36,14.52-2.56,22.75-3.76c0.91-1.12,0.22-4.85-1-5.42l-4.31,0
		c-7.17,0.04-8.29-0.87-10.9-15.04l-3.49-18.98c-0.56-3.06-0.31-3.43,5.09-4.42c3.86-0.71,6.55,0.07,9.16,3.87
		c5.05,7.53,9.99,14.43,16.42,21.68c8.84,9.91,18.72,13.36,32.92,10.75c4.78-0.88,9.66-2.1,11.93-3.63c0.6-1.07,0.17-3.38-1.35-3.9
		c-2.34,0.27-6.52,0.08-11.13-2.42c-8.57-4.97-17.02-15.37-31-34.17C133.93,544.57,133.76,543.65,135.16,542.59z M121.6,539.98
		c-2.39,3.47-5.38,5.45-10.93,6.47c-9.11,1.68-9.65,1.3-10.65-4.1l-5.53-30.08c-1.36-7.41-1.14-7.92,5.19-9.09
		c12.04-2.21,21.86,5.23,24.41,19.12C125.77,531.4,123.74,536.87,121.6,539.98z"/>
	<path class="st1" d="M230.16,487.88l12.53-0.66c7.65-0.4,12.45,1.23,15.61,4.05c2.15,2.09,4.59,6.67,6.6,12.06
		c1.64,1.33,5.23,0.83,5.76-0.93c-1.34-10.45-3.03-21.67-3.32-24.17c-2.02,0.42-10.94,1.05-20.99,1.58l-33.16,1.75
		c-7.52,0.42-15.2,0.67-22.58,0.74c-1.52,1.02-1.48,4.66-0.02,5.52l3.96,0.58c7.12,1.04,8.11,1.93,8.86,16.16l3.07,58.38
		c0.76,14.39-0.13,15.38-7.12,16.84l-7.31,1.49c-1.21,0.9-1.01,4.66,0.29,5.54c11.73-0.94,19.4-1.49,26.92-1.89l20.34-1.07
		c12.82-0.68,27.89-1.31,36.21-1.44c1.97-4.35,5.06-17.23,5.26-25.41c-0.73-1.85-4.68-2.27-5.83-0.48
		c-7.69,18.15-12.99,18.9-26.64,19.62c-11.41,0.6-14.45-0.5-16.63-3.21c-1.99-2.57-2.89-7.55-3.26-14.75l-0.98-18.64
		c-0.25-4.7-0.1-4.86,4.11-5.09l10.81-0.57c8.12-0.43,10.07,0.72,12.03,8.16l0.99,3.87c1.17,1.35,5.1,0.99,5.81-0.46
		c-0.58-5-0.98-10.63-1.29-16.58c-0.31-5.95-0.51-11.6-0.46-16.63c-0.86-1.37-4.8-1.16-5.83,0.15l-0.58,3.96
		c-1.17,7.6-2.99,8.8-11.11,9.23l-10.81,0.57c-4.2,0.22-4.38-0.08-4.61-4.47l-1.45-27.41C225.03,488.46,225.02,488.15,230.16,487.88
		z"/>
	<path class="st1" d="M219.69,661.87l1.61-0.12c0.61-0.04,1.3-0.18,1.75-0.52c0.21-0.15,0.27-0.59,0.24-1.02
		c-0.1-1.44-1-2.33-2.48-2.23c-1.83,0.13-3.27,1.98-3.17,3.37C217.68,661.97,218.3,661.97,219.69,661.87z"/>
	<path class="st1" d="M188.05,650.03c-1.17,0.12-1.97,0.42-2.2,0.8c-0.22,0.37-0.18,1.2-0.04,2.54l1.65,15.84
		c0.25,2.39,0.5,3.94,1.37,4.77c0.87,0.79,2.17,1.05,3.73,0.89c7.51-0.78,9.37-7.73,8.75-13.63
		C200.51,653.42,195.91,649.21,188.05,650.03z"/>
	<path class="st1" d="M275.87,658.74c0,0.61,0.61,0.65,2.01,0.65l1.61-0.01c0.61,0,1.31-0.09,1.79-0.4c0.22-0.13,0.3-0.57,0.3-1
		c0-1.44-0.84-2.39-2.32-2.39C277.43,655.6,275.87,657.35,275.87,658.74z"/>
	<path class="st1" d="M259.67,659.18c-0.02-0.7-0.16-1.13-0.35-1.47c-0.55-0.9-1.53-1.57-2.53-1.54c-2.22,0.06-4.34,2.44-4.2,7.02
		c0.08,2.88,1.51,6.81,5.08,6.7c0.61-0.02,1.22-0.21,1.77-0.57c0.47-0.32,0.5-0.89,0.48-1.67L259.67,659.18z"/>
	<path class="st1" d="M65.05,654l18,59.66c63.9-16.03,130.77-24.59,199.64-24.59c68.87,0,135.74,8.56,199.64,24.59L500.32,654
		c-69.61-17.71-142.52-27.15-217.63-27.15C207.57,626.85,134.66,636.29,65.05,654z M201.85,673.85c-2.8,1.78-6.3,2.72-10.76,3.18
		c-2.04,0.21-4.24,0.18-5.8,0.33c-2.08,0.21-4.29,0.49-6.75,0.84c-0.37-0.22-0.48-1.26-0.16-1.53l1.32-0.36
		c1.92-0.51,2.14-0.88,1.73-4.86l-1.6-15.36c-0.43-4.12-0.6-4.94-2.62-4.94l-0.83,0c-0.46-0.17-0.59-1.43-0.07-1.53
		c3.62-0.6,6.99-1.12,11.59-1.6c3.56-0.37,7.15-0.39,10.26,0.38c5.9,1.45,9.55,6.24,10.12,11.66
		C208.87,665.89,206.58,670.86,201.85,673.85z M221.94,674.61c-5.87,0.42-9.34-3.49-9.68-8.24c-0.39-5.48,3.27-10.03,8.71-10.41
		c4.53-0.32,7.17,2.42,7.41,5.77c0.06,0.83-0.12,1.45-1.46,1.55l-8.35,0.59c-1,0.07-1.08,0.16-1.03,0.86
		c0.23,3.27,2.54,6.29,6.59,6.01c1.22-0.09,2.85-0.46,3.89-2.55c0.47-0.12,1.15,0.18,1.2,0.92
		C227.69,672.93,224.56,674.42,221.94,674.61z M236.96,673.65c-2.48,0.13-4.25-0.21-5.47-1.06c-0.53-0.85-0.94-2.92-0.96-4.89
		c0.24-0.45,1.19-0.55,1.48-0.17c0.66,1.76,2.46,4.24,4.68,4.12c1.31-0.07,2.22-0.91,2.14-2.39c-0.09-1.61-1.53-2.45-3.05-3.11
		c-2.68-1.17-4.64-2.63-4.78-5.24c-0.21-3.79,2.87-5.79,6.62-5.99c2.22-0.12,4.21,0.34,4.71,0.66c0.49,0.94,0.8,2.67,0.89,4.32
		c-0.15,0.49-1.24,0.55-1.52,0.26c-1.01-2.48-2.15-3.33-3.58-3.26c-1.26,0.07-2.14,0.86-2.08,2.03c0.06,1,0.93,1.79,2.94,2.64
		c3.04,1.28,4.97,3.01,5.12,5.84C244.25,671.29,241.05,673.43,236.96,673.65z M268.62,671.35c-4.31,0.39-7.67,1.8-7.8,1.8
		c-0.31,0.01-0.66-0.24-0.76-0.59l0.09-1.36c-0.06-0.35-0.23-0.47-0.4-0.34c-1.5,1-3.04,1.97-4.66,2.01
		c-4.97,0.15-8.44-3.64-8.58-8.35c-0.18-6.14,4.33-10.21,10.08-10.37c0.96-0.03,2.01,0.03,2.49,0.15c0.3-0.14,0.42-0.49,0.41-0.84
		l-0.16-5.58c-0.05-1.74-0.07-2.22-0.95-2.72l-0.75-0.42c-0.36-0.25-0.34-1.04-0.04-1.31c1.86-0.49,4.49-1.62,6.6-2.64
		c0.3-0.01,0.57,0.07,0.75,0.28c-0.04,1.79-0.03,3.62,0.05,6.37l0.51,17.35c0.12,4.1,0.32,5.1,1.15,5.07
		c0.78-0.02,1.13-0.12,1.86-0.4C269.01,669.86,269.04,670.95,268.62,671.35z M370.84,648.58c1.42,0.25,2.46,0.41,5.19,0.72
		l8.32,0.93c2.73,0.31,5.73,0.6,6.3,0.58c0.29,0.12,0.39,0.48,0.31,0.74c-1.26,1.48-2.91,3.67-5.09,6.67l-14.97,20.7
		c-0.75,0.05-1.95-0.61-1.93-1.58l13.63-18.52c1.14-1.58,1.73-2.53,1.81-3.26c0.06-0.56-0.53-0.76-1.18-0.84l-9.19-1.03
		c-2.51-0.28-2.98-0.03-4.18,1.68c-0.39,0.35-1.32,0.03-1.44-0.47C369.4,652.86,370.27,650.19,370.84,648.58z M344.94,674.83
		c3.14,0.14,6.71-0.16,8.86-1.19c2.69-1.3,4.35-3.17,4.55-5.52c0.54-6.21-5.92-7.43-10.23-8.16c-1.38-0.21-1.52-0.61-1.17-1.59
		l3.48-9.77c0.4-1.1,0.66-1.08,2.07-1.13l11.64-0.38c0.35,0.03,0.46,0.26,0.43,0.56c-0.54,1.62-1.6,3.32-2.78,4.27l-9.92,0.23
		c-0.62,0.03-0.87,0.45-1.11,1.17l-0.35,0.97c-0.35,0.98,0.2,1.2,1.06,1.36c2.28,0.46,6.27,1.43,8.68,2.91
		c2.33,1.43,4.29,4.05,3.97,7.66c-0.4,4.52-3.3,7.2-7.08,8.84c-3.78,1.64-8.37,2.07-12.03,1.84
		C344.4,676.53,344.34,675.17,344.94,674.83z M322.23,673.84c8.61-1.63,13.4-8.71,13.83-16.73c0.18-3.31-0.44-9.67-4.1-9.88
		c-2.05-0.11-3.36,2.31-3.5,4.92c-0.19,3.57,1.04,7.39,3.97,8.08c0.56,0.11,0.82,0.13,1.21,0.15c0.21,0.14,0.27,0.58,0.21,0.93
		c-0.78,0.75-2.6,1.22-4.39,1.12c-4.09-0.22-7.22-3.76-6.99-8.15c0.3-5.58,4.79-9.31,10.18-9.02c6.67,0.36,10.09,5.7,9.76,11.75
		c-0.29,5.27-2.84,9.72-6.73,12.92c-3.79,3.16-9.73,5.42-13.39,5.35C321.81,675.04,321.82,674.12,322.23,673.84z M302.1,670.4
		l1.79-0.08c2.14-0.11,2.42-0.54,2.52-4.03l0.41-14.08c0.08-2.87-0.07-3.53-1.98-3.85l-2-0.32c-0.39-0.23-0.4-1.28-0.04-1.53
		c1.79-0.21,3.86-0.63,5.62-1.06c1.94-0.51,3.62-1.29,3.92-1.28c0.22,0.01,0.52,0.15,0.59,0.5c-0.11,1-0.22,3-0.28,5.18l-0.48,16.6
		c-0.1,3.49,0.15,3.93,2.28,4.17l1.78,0.18c0.38,0.27,0.31,1.41-0.13,1.53c-1.57-0.13-4.18-0.24-6.89-0.32
		c-2.88-0.08-5.49-0.13-7.07-0.09C301.7,671.8,301.7,670.65,302.1,670.4z M286.57,659.83c0,0.83-0.21,1.44-1.56,1.45l-8.37,0.04
		c-1,0-1.09,0.09-1.09,0.79c0.01,3.27,2.12,6.45,6.18,6.43c1.22-0.01,2.88-0.28,4.05-2.29c0.48-0.09,1.14,0.25,1.14,1
		c-1.77,3.72-4.99,5-7.61,5.01c-5.89,0.02-9.09-4.11-9.11-8.86c-0.02-5.5,3.93-9.78,9.38-9.81
		C284.1,653.56,286.55,656.47,286.57,659.83z"/>
	<path class="st1" d="M282.69,599.21c-77.89,0-153.49,9.82-225.63,28.28l0.55,1.81c-0.11,0.03-0.22,0.06-0.33,0.09l2.85,9.82
		c0.14-0.04,0.29-0.08,0.43-0.11l0.31,1.04c70.93-18.1,145.25-27.73,221.82-27.73c76.57,0,150.88,9.63,221.81,27.73l0.31-1.04
		c0.14,0.04,0.29,0.08,0.43,0.11l2.85-9.82c-0.11-0.03-0.22-0.06-0.33-0.09l0.55-1.81C436.18,609.03,360.58,599.21,282.69,599.21z"
		/>
	<path class="st1" d="M12.98,481.35l3.81,12.63c84.91-22.23,174.02-34.08,265.9-34.08c91.88,0,180.98,11.85,265.89,34.08l3.81-12.63
		c-86.11-22.59-176.5-34.64-269.7-34.64C189.49,446.72,99.1,458.77,12.98,481.35z"/>
</g>
</svg>
